<svg xmlns="http://www.w3.org/2000/svg" viewBox="0 0 600 400" role="img" aria-label="Display Sport — Logo">
  <!--
    Display Sport · Logo "D" estilizada (mark only, sin wordmark).
    Recreación vectorial aproximada. Si tienes el archivo SVG original,
    reemplaza el contenido de este archivo y todo el sitio actualiza.
  -->

  <!-- Frame exterior: outline boomerang con creciente interior recortado -->
  <path fill="currentColor" fill-rule="evenodd" d="
    M 85 200
    C 85 95, 220 38, 380 38
    C 515 38, 585 120, 585 210
    C 585 300, 485 362, 360 362
    C 195 362, 85 308, 85 200 Z

    M 145 200
    C 145 125, 250 100, 372 102
    C 472 105, 530 158, 530 218
    C 530 282, 460 312, 358 312
    C 245 312, 145 278, 145 200 Z
  "/>

  <!-- D interior: bowl superior + bowl inferior con stem central -->
  <path fill="currentColor" d="
    M 210 130
    L 305 130
    C 380 130, 425 152, 440 180
    L 425 198
    L 230 198
    L 230 158
    L 290 158
    C 335 158, 365 168, 380 178
    L 380 180
    L 220 180
    Z

    M 230 222
    L 425 222
    L 440 240
    C 425 268, 380 290, 305 290
    L 210 290
    L 220 240
    L 380 240
    L 380 242
    C 365 252, 335 262, 290 262
    L 230 262
    Z
  "/>

  <!-- Slash / rayo horizontal central que parte la D -->
  <path fill="currentColor" d="
    M 195 200
    L 445 195
    L 450 218
    L 200 222
    Z
  "/>
</svg>
