<svg xmlns="http://www.w3.org/2000/svg" width="631" height="393" viewBox="0 0 631 393">
<path d="M191.00,385.50 L190.00,385.50 L189.00,385.50 L188.00,385.50 L187.00,385.50 L186.00,385.50 L185.00,385.50 L184.00,385.50 L183.00,385.50 L182.00,385.50 L181.00,385.50 L180.00,385.50 L179.00,385.50 L178.00,385.50 L177.00,385.50 L176.00,385.50 L175.00,385.50 L174.00,385.50 L173.00,385.50 L172.00,385.50 L171.00,385.50 L170.00,385.50 L169.00,385.50 L168.00,385.50 L167.50,385.00 L167.00,384.50 L166.00,384.50 L165.00,384.50 L164.00,384.50 L163.00,384.50 L162.00,384.50 L161.00,384.50 L160.00,384.50 L159.00,384.50 L158.00,384.50 L157.50,384.00 L157.00,383.50 L156.00,383.50 L155.00,383.50 L154.00,383.50 L153.00,383.50 L152.50,383.00 L152.00,382.50 L151.00,382.50 L150.00,382.50 L149.00,382.50 L148.00,382.50 L147.50,382.00 L147.00,381.50 L146.00,381.50 L145.00,381.50 L144.00,381.50 L143.50,381.00 L143.00,380.50 L142.00,380.50 L141.00,380.50 L140.50,380.00 L140.00,379.50 L139.00,379.50 L138.00,379.50 L137.50,379.00 L137.00,378.50 L136.00,378.50 L135.00,378.50 L134.50,378.00 L134.00,377.50 L133.00,377.50 L132.50,377.00 L132.00,376.50 L131.00,376.50 L130.50,376.00 L130.00,375.50 L129.00,375.50 L128.50,375.00 L128.00,374.50 L127.00,374.50 L126.50,374.00 L126.00,373.50 L125.00,373.50 L124.50,373.00 L124.00,372.50 L123.00,372.50 L122.50,372.00 L122.00,371.50 L121.50,371.00 L121.00,370.50 L120.50,370.00 L120.00,369.50 L119.00,369.50 L118.50,369.00 L118.00,368.50 L117.50,368.00 L117.00,367.50 L116.50,367.00 L116.00,366.50 L115.00,366.50 L114.50,366.00 L114.00,365.50 L113.50,365.00 L113.00,364.50 L112.50,364.00 L112.00,363.50 L111.50,363.00 L111.00,362.50 L110.50,362.00 L110.00,361.50 L109.50,361.00 L109.50,360.00 L109.00,359.50 L108.50,359.00 L108.00,358.50 L107.50,358.00 L107.00,357.50 L106.50,357.00 L106.00,356.50 L105.50,356.00 L105.50,355.00 L105.00,354.50 L104.50,354.00 L104.00,353.50 L103.50,353.00 L103.50,352.00 L103.00,351.50 L102.50,351.00 L102.50,350.00 L102.00,349.50 L101.50,349.00 L101.50,348.00 L101.00,347.50 L100.50,347.00 L100.50,346.00 L100.00,345.50 L99.50,345.00 L99.50,344.00 L99.00,343.50 L98.50,343.00 L98.50,342.00 L98.50,341.00 L98.00,340.50 L97.50,340.00 L97.50,339.00 L97.50,338.00 L97.50,337.00 L97.00,336.50 L96.50,336.00 L96.50,335.00 L96.50,334.00 L96.50,333.00 L96.00,332.50 L95.50,332.00 L95.50,331.00 L95.50,330.00 L95.50,329.00 L95.50,328.00 L95.50,327.00 L95.50,326.00 L95.50,325.00 L95.50,324.00 L95.50,323.00 L95.50,322.00 L95.00,321.50 L94.50,321.00 L95.00,320.50 L95.50,320.00 L95.50,319.00 L95.50,318.00 L95.50,317.00 L95.50,316.00 L95.50,315.00 L95.50,314.00 L95.50,313.00 L95.50,312.00 L95.50,311.00 L95.50,310.00 L95.50,309.00 L96.00,308.50 L96.50,308.00 L96.50,307.00 L96.50,306.00 L96.50,305.00 L96.50,304.00 L97.00,303.50 L97.50,303.00 L97.50,302.00 L97.50,301.00 L97.50,300.00 L98.00,299.50 L98.50,299.00 L98.50,298.00 L98.50,297.00 L99.00,296.50 L99.50,296.00 L99.50,295.00 L99.50,294.00 L100.00,293.50 L100.50,293.00 L100.50,292.00 L101.00,291.50 L101.50,291.00 L101.50,290.00 L101.50,289.00 L102.00,288.50 L102.50,288.00 L102.50,287.00 L103.00,286.50 L103.50,286.00 L103.50,285.00 L104.00,284.50 L104.50,284.00 L105.00,283.50 L105.50,283.00 L105.50,282.00 L106.00,281.50 L106.50,281.00 L106.50,280.00 L107.00,279.50 L107.50,279.00 L108.00,278.50 L108.50,278.00 L109.00,277.50 L109.50,277.00 L109.50,276.00 L110.00,275.50 L110.50,275.00 L111.00,274.50 L111.50,274.00 L112.00,273.50 L112.50,273.00 L113.00,272.50 L113.50,272.00 L114.00,271.50 L115.00,271.50 L115.50,271.00 L116.00,270.50 L116.50,270.00 L117.00,269.50 L117.50,269.00 L118.00,268.50 L118.50,268.00 L119.00,267.50 L119.50,267.00 L120.00,266.50 L120.50,266.00 L121.00,265.50 L121.50,265.00 L122.00,264.50 L122.50,264.00 L123.00,263.50 L123.50,263.00 L124.00,262.50 L124.50,262.00 L125.00,261.50 L125.50,261.00 L126.00,260.50 L126.50,260.00 L127.00,259.50 L127.50,259.00 L128.00,258.50 L128.50,258.00 L129.00,257.50 L129.50,257.00 L130.00,256.50 L130.50,256.00 L131.00,255.50 L131.50,255.00 L132.00,254.50 L132.50,254.00 L133.00,253.50 L133.50,253.00 L134.00,252.50 L134.50,252.00 L135.00,251.50 L135.50,251.00 L136.00,250.50 L136.50,250.00 L137.00,249.50 L137.50,249.00 L138.00,248.50 L138.50,248.00 L139.00,247.50 L139.50,247.00 L140.00,246.50 L140.50,246.00 L141.00,245.50 L141.50,245.00 L142.00,244.50 L142.50,244.00 L142.50,243.00 L143.00,242.50 L143.50,242.00 L144.00,241.50 L144.50,241.00 L145.00,240.50 L145.50,240.00 L146.00,239.50 L146.50,239.00 L147.00,238.50 L147.50,238.00 L148.00,237.50 L148.50,237.00 L149.00,236.50 L149.50,236.00 L150.00,235.50 L150.50,235.00 L150.50,234.00 L151.00,233.50 L151.50,233.00 L152.00,232.50 L152.50,232.00 L153.00,231.50 L153.50,231.00 L154.00,230.50 L154.50,230.00 L155.00,229.50 L155.50,229.00 L155.50,228.00 L156.00,227.50 L156.50,227.00 L157.00,226.50 L157.50,226.00 L158.00,225.50 L158.50,225.00 L159.00,224.50 L159.50,224.00 L159.50,223.00 L160.00,222.50 L160.50,222.00 L161.00,221.50 L161.50,221.00 L161.50,220.00 L162.00,219.50 L162.50,219.00 L163.00,218.50 L163.50,218.00 L164.00,217.50 L164.50,217.00 L164.50,216.00 L165.00,215.50 L165.50,215.00 L166.00,214.50 L166.50,214.00 L166.50,213.00 L167.00,212.50 L167.50,212.00 L167.50,211.00 L168.00,210.50 L168.50,210.00 L168.50,209.00 L169.00,208.50 L169.50,208.00 L169.50,207.00 L170.00,206.50 L170.50,206.00 L171.00,205.50 L171.50,205.00 L171.50,204.00 L171.50,203.00 L172.00,202.50 L172.50,202.00 L172.50,201.00 L172.50,200.00 L173.00,199.50 L173.50,199.00 L173.50,198.00 L173.50,197.00 L174.00,196.50 L174.50,196.00 L174.50,195.00 L174.50,194.00 L174.50,193.00 L174.50,192.00 L174.50,191.00 L174.00,190.50 L173.50,190.00 L173.50,189.00 L173.50,188.00 L173.50,187.00 L173.00,186.50 L172.50,186.00 L172.50,185.00 L172.00,184.50 L171.50,184.00 L171.50,183.00 L171.50,182.00 L171.00,181.50 L170.50,181.00 L170.00,180.50 L169.50,180.00 L169.50,179.00 L169.00,178.50 L168.50,178.00 L168.50,177.00 L168.00,176.50 L167.50,176.00 L167.00,175.50 L166.50,175.00 L166.50,174.00 L166.00,173.50 L165.50,173.00 L165.50,172.00 L165.00,171.50 L164.50,171.00 L164.00,170.50 L163.50,170.00 L163.50,169.00 L163.00,168.50 L162.50,168.00 L162.00,167.50 L161.50,167.00 L161.50,166.00 L161.00,165.50 L160.50,165.00 L160.00,164.50 L159.50,164.00 L159.00,163.50 L158.50,163.00 L158.50,162.00 L158.00,161.50 L157.50,161.00 L157.00,160.50 L156.50,160.00 L156.50,159.00 L156.00,158.50 L155.50,158.00 L155.00,157.50 L154.50,157.00 L154.50,156.00 L154.00,155.50 L153.50,155.00 L153.00,154.50 L152.50,154.00 L152.50,153.00 L152.00,152.50 L151.50,152.00 L151.00,151.50 L150.50,151.00 L150.50,150.00 L150.00,149.50 L149.50,149.00 L149.00,148.50 L148.50,148.00 L148.50,147.00 L148.00,146.50 L147.50,146.00 L147.00,145.50 L146.50,145.00 L146.50,144.00 L146.00,143.50 L145.50,143.00 L145.50,142.00 L145.00,141.50 L144.50,141.00 L144.00,140.50 L143.50,140.00 L143.50,139.00 L143.00,138.50 L142.50,138.00 L142.50,137.00 L142.00,136.50 L141.50,136.00 L141.50,135.00 L141.00,134.50 L140.50,134.00 L140.00,133.50 L139.50,133.00 L139.50,132.00 L139.00,131.50 L138.50,131.00 L138.50,130.00 L138.00,129.50 L137.50,129.00 L137.50,128.00 L137.00,127.50 L136.50,127.00 L136.50,126.00 L136.00,125.50 L135.50,125.00 L135.50,124.00 L135.00,123.50 L134.50,123.00 L134.50,122.00 L134.00,121.50 L133.50,121.00 L133.50,120.00 L133.50,119.00 L133.00,118.50 L132.50,118.00 L132.50,117.00 L132.00,116.50 L131.50,116.00 L131.50,115.00 L131.50,114.00 L131.00,113.50 L130.50,113.00 L130.50,112.00 L130.50,111.00 L130.50,110.00 L130.00,109.50 L129.50,109.00 L129.50,108.00 L129.50,107.00 L129.50,106.00 L129.00,105.50 L128.50,105.00 L128.50,104.00 L128.50,103.00 L128.50,102.00 L128.50,101.00 L128.50,100.00 L128.50,99.00 L128.50,98.00 L128.00,97.50 L127.50,97.00 L127.50,96.00 L127.50,95.00 L127.50,94.00 L127.50,93.00 L127.50,92.00 L127.50,91.00 L127.50,90.00 L128.00,89.50 L128.50,89.00 L128.50,88.00 L128.50,87.00 L128.50,86.00 L128.50,85.00 L128.50,84.00 L128.50,83.00 L128.50,82.00 L129.00,81.50 L129.50,81.00 L129.50,80.00 L129.50,79.00 L129.50,78.00 L130.00,77.50 L130.50,77.00 L130.50,76.00 L130.50,75.00 L131.00,74.50 L131.50,74.00 L131.50,73.00 L131.50,72.00 L132.00,71.50 L132.50,71.00 L132.50,70.00 L133.00,69.50 L133.50,69.00 L133.50,68.00 L134.00,67.50 L134.50,67.00 L134.50,66.00 L135.00,65.50 L135.50,65.00 L135.50,64.00 L136.00,63.50 L136.50,63.00 L136.50,62.00 L137.00,61.50 L137.50,61.00 L138.00,60.50 L138.50,60.00 L138.50,59.00 L139.00,58.50 L139.50,58.00 L140.00,57.50 L140.50,57.00 L141.00,56.50 L141.50,56.00 L142.00,55.50 L142.50,55.00 L142.50,54.00 L143.00,53.50 L143.50,53.00 L144.00,52.50 L144.50,52.00 L145.00,51.50 L145.50,51.00 L146.00,50.50 L146.50,50.00 L147.00,49.50 L147.50,49.00 L148.00,48.50 L148.50,48.00 L149.00,47.50 L149.50,47.00 L150.00,46.50 L151.00,46.50 L151.50,46.00 L152.00,45.50 L152.50,45.00 L153.00,44.50 L153.50,44.00 L154.00,43.50 L155.00,43.50 L155.50,43.00 L156.00,42.50 L156.50,42.00 L157.00,41.50 L158.00,41.50 L158.50,41.00 L159.00,40.50 L159.50,40.00 L160.00,39.50 L161.00,39.50 L161.50,39.00 L162.00,38.50 L163.00,38.50 L163.50,38.00 L164.00,37.50 L165.00,37.50 L165.50,37.00 L166.00,36.50 L167.00,36.50 L167.50,36.00 L168.00,35.50 L169.00,35.50 L170.00,35.50 L170.50,35.00 L171.00,34.50 L172.00,34.50 L172.50,34.00 L173.00,33.50 L174.00,33.50 L175.00,33.50 L175.50,33.00 L176.00,32.50 L177.00,32.50 L178.00,32.50 L179.00,32.50 L179.50,32.00 L180.00,31.50 L181.00,31.50 L182.00,31.50 L183.00,31.50 L184.00,31.50 L184.50,31.00 L185.00,30.50 L186.00,30.50 L187.00,30.50 L188.00,30.50 L189.00,30.50 L190.00,30.50 L191.00,30.50 L192.00,30.50 L193.00,30.50 L194.00,30.50 L195.00,30.50 L196.00,30.50 L197.00,30.50 L198.00,30.50 L199.00,30.50 L200.00,30.50 L201.00,30.50 L202.00,30.50 L203.00,30.50 L204.00,30.50 L205.00,30.50 L206.00,30.50 L206.50,31.00 L207.00,31.50 L208.00,31.50 L209.00,31.50 L210.00,31.50 L211.00,31.50 L212.00,31.50 L213.00,31.50 L214.00,31.50 L214.50,32.00 L215.00,32.50 L216.00,32.50 L217.00,32.50 L218.00,32.50 L219.00,32.50 L220.00,32.50 L221.00,32.50 L221.50,33.00 L222.00,33.50 L223.00,33.50 L224.00,33.50 L225.00,33.50 L226.00,33.50 L227.00,33.50 L227.50,34.00 L228.00,34.50 L229.00,34.50 L230.00,34.50 L231.00,34.50 L232.00,34.50 L233.00,34.50 L233.50,35.00 L234.00,35.50 L235.00,35.50 L236.00,35.50 L237.00,35.50 L238.00,35.50 L238.50,36.00 L239.00,36.50 L240.00,36.50 L241.00,36.50 L242.00,36.50 L243.00,36.50 L243.50,37.00 L244.00,37.50 L245.00,37.50 L246.00,37.50 L247.00,37.50 L248.00,37.50 L248.50,38.00 L249.00,38.50 L250.00,38.50 L251.00,38.50 L252.00,38.50 L253.00,38.50 L253.50,39.00 L254.00,39.50 L255.00,39.50 L256.00,39.50 L257.00,39.50 L258.00,39.50 L258.50,40.00 L259.00,40.50 L260.00,40.50 L261.00,40.50 L262.00,40.50 L262.50,41.00 L263.00,41.50 L264.00,41.50 L265.00,41.50 L266.00,41.50 L267.00,41.50 L267.50,42.00 L268.00,42.50 L269.00,42.50 L270.00,42.50 L271.00,42.50 L271.50,43.00 L272.00,43.50 L273.00,43.50 L274.00,43.50 L275.00,43.50 L276.00,43.50 L276.50,44.00 L277.00,44.50 L278.00,44.50 L279.00,44.50 L280.00,44.50 L280.50,45.00 L281.00,45.50 L282.00,45.50 L283.00,45.50 L284.00,45.50 L284.50,46.00 L285.00,46.50 L286.00,46.50 L287.00,46.50 L288.00,46.50 L288.50,47.00 L289.00,47.50 L290.00,47.50 L291.00,47.50 L292.00,47.50 L292.50,48.00 L293.00,48.50 L294.00,48.50 L295.00,48.50 L296.00,48.50 L296.50,49.00 L297.00,49.50 L298.00,49.50 L299.00,49.50 L300.00,49.50 L300.50,50.00 L301.00,50.50 L302.00,50.50 L303.00,50.50 L304.00,50.50 L304.50,51.00 L305.00,51.50 L306.00,51.50 L307.00,51.50 L308.00,51.50 L308.50,52.00 L309.00,52.50 L310.00,52.50 L311.00,52.50 L311.50,53.00 L312.00,53.50 L313.00,53.50 L314.00,53.50 L315.00,53.50 L315.50,54.00 L316.00,54.50 L317.00,54.50 L318.00,54.50 L319.00,54.50 L319.50,55.00 L320.00,55.50 L321.00,55.50 L322.00,55.50 L322.50,56.00 L323.00,56.50 L324.00,56.50 L325.00,56.50 L326.00,56.50 L326.50,57.00 L327.00,57.50 L328.00,57.50 L329.00,57.50 L329.50,58.00 L330.00,58.50 L331.00,58.50 L332.00,58.50 L333.00,58.50 L333.50,59.00 L334.00,59.50 L335.00,59.50 L336.00,59.50 L336.50,60.00 L337.00,60.50 L338.00,60.50 L339.00,60.50 L340.00,60.50 L340.50,61.00 L341.00,61.50 L342.00,61.50 L343.00,61.50 L343.50,62.00 L344.00,62.50 L345.00,62.50 L346.00,62.50 L347.00,62.50 L347.50,63.00 L348.00,63.50 L349.00,63.50 L350.00,63.50 L350.50,64.00 L351.00,64.50 L352.00,64.50 L353.00,64.50 L353.50,65.00 L354.00,65.50 L355.00,65.50 L356.00,65.50 L357.00,65.50 L357.50,66.00 L358.00,66.50 L359.00,66.50 L360.00,66.50 L360.50,67.00 L361.00,67.50 L362.00,67.50 L363.00,67.50 L363.50,68.00 L364.00,68.50 L365.00,68.50 L366.00,68.50 L366.50,69.00 L367.00,69.50 L368.00,69.50 L369.00,69.50 L369.50,70.00 L370.00,70.50 L371.00,70.50 L372.00,70.50 L373.00,70.50 L373.50,71.00 L374.00,71.50 L375.00,71.50 L376.00,71.50 L376.50,72.00 L377.00,72.50 L378.00,72.50 L379.00,72.50 L379.50,73.00 L380.00,73.50 L381.00,73.50 L382.00,73.50 L382.50,74.00 L383.00,74.50 L384.00,74.50 L385.00,74.50 L385.50,75.00 L386.00,75.50 L387.00,75.50 L388.00,75.50 L388.50,76.00 L389.00,76.50 L390.00,76.50 L391.00,76.50 L391.50,77.00 L392.00,77.50 L393.00,77.50 L394.00,77.50 L394.50,78.00 L395.00,78.50 L396.00,78.50 L397.00,78.50 L397.50,79.00 L398.00,79.50 L399.00,79.50 L400.00,79.50 L400.50,80.00 L401.00,80.50 L402.00,80.50 L403.00,80.50 L403.50,81.00 L404.00,81.50 L405.00,81.50 L405.50,82.00 L406.00,82.50 L407.00,82.50 L408.00,82.50 L408.50,83.00 L409.00,83.50 L410.00,83.50 L411.00,83.50 L411.50,84.00 L412.00,84.50 L413.00,84.50 L414.00,84.50 L414.50,85.00 L415.00,85.50 L416.00,85.50 L417.00,85.50 L417.50,86.00 L418.00,86.50 L419.00,86.50 L419.50,87.00 L420.00,87.50 L421.00,87.50 L422.00,87.50 L422.50,88.00 L423.00,88.50 L424.00,88.50 L425.00,88.50 L425.50,89.00 L426.00,89.50 L427.00,89.50 L427.50,90.00 L428.00,90.50 L429.00,90.50 L430.00,90.50 L430.50,91.00 L431.00,91.50 L432.00,91.50 L433.00,91.50 L433.50,92.00 L434.00,92.50 L435.00,92.50 L435.50,93.00 L436.00,93.50 L437.00,93.50 L438.00,93.50 L438.50,94.00 L439.00,94.50 L440.00,94.50 L440.50,95.00 L441.00,95.50 L442.00,95.50 L443.00,95.50 L443.50,96.00 L444.00,96.50 L445.00,96.50 L445.50,97.00 L446.00,97.50 L447.00,97.50 L448.00,97.50 L448.50,98.00 L449.00,98.50 L450.00,98.50 L450.50,99.00 L451.00,99.50 L452.00,99.50 L453.00,99.50 L453.50,100.00 L454.00,100.50 L455.00,100.50 L455.50,101.00 L456.00,101.50 L457.00,101.50 L458.00,101.50 L458.50,102.00 L459.00,102.50 L460.00,102.50 L460.50,103.00 L461.00,103.50 L462.00,103.50 L462.50,104.00 L463.00,104.50 L464.00,104.50 L465.00,104.50 L465.50,105.00 L466.00,105.50 L467.00,105.50 L467.50,106.00 L468.00,106.50 L469.00,106.50 L469.50,107.00 L470.00,107.50 L471.00,107.50 L472.00,107.50 L472.50,108.00 L473.00,108.50 L474.00,108.50 L474.50,109.00 L475.00,109.50 L476.00,109.50 L476.50,110.00 L477.00,110.50 L478.00,110.50 L479.00,110.50 L479.50,111.00 L480.00,111.50 L481.00,111.50 L481.50,112.00 L482.00,112.50 L483.00,112.50 L483.50,113.00 L484.00,113.50 L485.00,113.50 L485.50,114.00 L486.00,114.50 L487.00,114.50 L487.50,115.00 L488.00,115.50 L489.00,115.50 L489.50,116.00 L490.00,116.50 L491.00,116.50 L492.00,116.50 L492.50,117.00 L493.00,117.50 L494.00,117.50 L494.50,118.00 L495.00,118.50 L496.00,118.50 L496.50,119.00 L497.00,119.50 L498.00,119.50 L498.50,120.00 L499.00,120.50 L500.00,120.50 L500.50,121.00 L501.00,121.50 L502.00,121.50 L502.50,122.00 L503.00,122.50 L504.00,122.50 L504.50,123.00 L505.00,123.50 L506.00,123.50 L506.50,124.00 L507.00,124.50 L508.00,124.50 L508.50,125.00 L509.00,125.50 L510.00,125.50 L510.50,126.00 L511.00,126.50 L512.00,126.50 L512.50,127.00 L513.00,127.50 L514.00,127.50 L514.50,128.00 L515.00,128.50 L516.00,128.50 L516.50,129.00 L517.00,129.50 L518.00,129.50 L518.50,130.00 L519.00,130.50 L520.00,130.50 L520.50,131.00 L521.00,131.50 L521.50,132.00 L522.00,132.50 L523.00,132.50 L523.50,133.00 L524.00,133.50 L525.00,133.50 L525.50,134.00 L526.00,134.50 L527.00,134.50 L527.50,135.00 L528.00,135.50 L529.00,135.50 L529.50,136.00 L530.00,136.50 L530.50,137.00 L531.00,137.50 L532.00,137.50 L532.50,138.00 L533.00,138.50 L534.00,138.50 L534.50,139.00 L535.00,139.50 L536.00,139.50 L536.50,140.00 L537.00,140.50 L537.50,141.00 L538.00,141.50 L539.00,141.50 L539.50,142.00 L540.00,142.50 L541.00,142.50 L541.50,143.00 L542.00,143.50 L542.50,144.00 L543.00,144.50 L544.00,144.50 L544.50,145.00 L545.00,145.50 L546.00,145.50 L546.50,146.00 L547.00,146.50 L547.50,147.00 L548.00,147.50 L549.00,147.50 L549.50,148.00 L550.00,148.50 L550.50,149.00 L551.00,149.50 L552.00,149.50 L552.50,150.00 L553.00,150.50 L553.50,151.00 L554.00,151.50 L555.00,151.50 L555.50,152.00 L556.00,152.50 L557.00,152.50 L557.50,153.00 L558.00,153.50 L558.50,154.00 L559.00,154.50 L559.50,155.00 L560.00,155.50 L561.00,155.50 L561.50,156.00 L562.00,156.50 L562.50,157.00 L563.00,157.50 L564.00,157.50 L564.50,158.00 L565.00,158.50 L565.50,159.00 L566.00,159.50 L566.50,160.00 L567.00,160.50 L567.50,161.00 L568.00,161.50 L569.00,161.50 L569.50,162.00 L570.00,162.50 L570.50,163.00 L571.00,163.50 L571.50,164.00 L572.00,164.50 L572.50,165.00 L573.00,165.50 L573.50,166.00 L574.00,166.50 L574.50,167.00 L575.00,167.50 L575.50,168.00 L576.00,168.50 L576.50,169.00 L577.00,169.50 L577.50,170.00 L578.00,170.50 L578.50,171.00 L579.00,171.50 L579.50,172.00 L580.00,172.50 L580.50,173.00 L581.00,173.50 L581.50,174.00 L582.00,174.50 L582.50,175.00 L582.50,176.00 L583.00,176.50 L583.50,177.00 L584.00,177.50 L584.50,178.00 L585.00,178.50 L585.50,179.00 L586.00,179.50 L586.50,180.00 L586.50,181.00 L587.00,181.50 L587.50,182.00 L588.00,182.50 L588.50,183.00 L588.50,184.00 L589.00,184.50 L589.50,185.00 L590.00,185.50 L590.50,186.00 L590.50,187.00 L591.00,187.50 L591.50,188.00 L591.50,189.00 L592.00,189.50 L592.50,190.00 L592.50,191.00 L593.00,191.50 L593.50,192.00 L593.50,193.00 L594.00,193.50 L594.50,194.00 L594.50,195.00 L595.00,195.50 L595.50,196.00 L595.50,197.00 L596.00,197.50 L596.50,198.00 L596.50,199.00 L597.00,199.50 L597.50,200.00 L597.50,201.00 L597.50,202.00 L598.00,202.50 L598.50,203.00 L598.50,204.00 L598.50,205.00 L599.00,205.50 L599.50,206.00 L599.50,207.00 L599.50,208.00 L599.50,209.00 L600.00,209.50 L600.50,210.00 L600.50,211.00 L600.50,212.00 L600.50,213.00 L601.00,213.50 L601.50,214.00 L601.50,215.00 L601.50,216.00 L601.50,217.00 L601.50,218.00 L601.50,219.00 L601.50,220.00 L602.00,220.50 L602.50,221.00 L602.50,222.00 L602.50,223.00 L602.50,224.00 L602.50,225.00 L602.50,226.00 L602.50,227.00 L602.50,228.00 L602.50,229.00 L602.50,230.00 L602.50,231.00 L602.50,232.00 L602.50,233.00 L602.50,234.00 L602.50,235.00 L602.50,236.00 L602.50,237.00 L602.00,237.50 L601.50,238.00 L601.50,239.00 L601.50,240.00 L601.50,241.00 L601.50,242.00 L601.50,243.00 L601.00,243.50 L600.50,244.00 L600.50,245.00 L600.50,246.00 L600.50,247.00 L600.00,247.50 L599.50,248.00 L599.50,249.00 L599.50,250.00 L599.50,251.00 L599.00,251.50 L598.50,252.00 L598.50,253.00 L598.50,254.00 L598.00,254.50 L597.50,255.00 L597.50,256.00 L597.50,257.00 L597.00,257.50 L596.50,258.00 L596.50,259.00 L596.00,259.50 L595.50,260.00 L595.50,261.00 L595.00,261.50 L594.50,262.00 L594.50,263.00 L594.00,263.50 L593.50,264.00 L593.50,265.00 L593.00,265.50 L592.50,266.00 L592.50,267.00 L592.00,267.50 L591.50,268.00 L591.50,269.00 L591.00,269.50 L590.50,270.00 L590.00,270.50 L589.50,271.00 L589.50,272.00 L589.00,272.50 L588.50,273.00 L588.00,273.50 L587.50,274.00 L587.50,275.00 L587.00,275.50 L586.50,276.00 L586.00,276.50 L585.50,277.00 L585.50,278.00 L585.00,278.50 L584.50,279.00 L584.00,279.50 L583.50,280.00 L583.00,280.50 L582.50,281.00 L582.00,281.50 L581.50,282.00 L581.00,282.50 L580.50,283.00 L580.00,283.50 L579.50,284.00 L579.00,284.50 L578.50,285.00 L578.00,285.50 L577.50,286.00 L577.00,286.50 L576.50,287.00 L576.00,287.50 L575.50,288.00 L575.00,288.50 L574.50,289.00 L574.00,289.50 L573.50,290.00 L573.00,290.50 L572.50,291.00 L572.00,291.50 L571.50,292.00 L571.00,292.50 L570.50,293.00 L570.00,293.50 L569.00,293.50 L568.50,294.00 L568.00,294.50 L567.50,295.00 L567.00,295.50 L566.50,296.00 L566.00,296.50 L565.00,296.50 L564.50,297.00 L564.00,297.50 L563.50,298.00 L563.00,298.50 L562.00,298.50 L561.50,299.00 L561.00,299.50 L560.50,300.00 L560.00,300.50 L559.00,300.50 L558.50,301.00 L558.00,301.50 L557.50,302.00 L557.00,302.50 L556.00,302.50 L555.50,303.00 L555.00,303.50 L554.00,303.50 L553.50,304.00 L553.00,304.50 L552.00,304.50 L551.50,305.00 L551.00,305.50 L550.00,305.50 L549.50,306.00 L549.00,306.50 L548.00,306.50 L547.50,307.00 L547.00,307.50 L546.00,307.50 L545.50,308.00 L545.00,308.50 L544.00,308.50 L543.50,309.00 L543.00,309.50 L542.00,309.50 L541.00,309.50 L540.50,310.00 L540.00,310.50 L539.00,310.50 L538.50,311.00 L538.00,311.50 L537.00,311.50 L536.50,312.00 L536.00,312.50 L535.00,312.50 L534.50,313.00 L534.00,313.50 L533.00,313.50 L532.00,313.50 L531.50,314.00 L531.00,314.50 L530.00,314.50 L529.50,315.00 L529.00,315.50 L528.00,315.50 L527.00,315.50 L526.50,316.00 L526.00,316.50 L525.00,316.50 L524.50,317.00 L524.00,317.50 L523.00,317.50 L522.00,317.50 L521.50,318.00 L521.00,318.50 L520.00,318.50 L519.00,318.50 L518.50,319.00 L518.00,319.50 L517.00,319.50 L516.50,320.00 L516.00,320.50 L515.00,320.50 L514.00,320.50 L513.50,321.00 L513.00,321.50 L512.00,321.50 L511.00,321.50 L510.50,322.00 L510.00,322.50 L509.00,322.50 L508.00,322.50 L507.50,323.00 L507.00,323.50 L506.00,323.50 L505.50,324.00 L505.00,324.50 L504.00,324.50 L503.00,324.50 L502.50,325.00 L502.00,325.50 L501.00,325.50 L500.00,325.50 L499.50,326.00 L499.00,326.50 L498.00,326.50 L497.00,326.50 L496.50,327.00 L496.00,327.50 L495.00,327.50 L494.00,327.50 L493.50,328.00 L493.00,328.50 L492.00,328.50 L491.00,328.50 L490.50,329.00 L490.00,329.50 L489.00,329.50 L488.00,329.50 L487.00,329.50 L486.50,330.00 L486.00,330.50 L485.00,330.50 L484.00,330.50 L483.50,331.00 L483.00,331.50 L482.00,331.50 L481.00,331.50 L480.50,332.00 L480.00,332.50 L479.00,332.50 L478.00,332.50 L477.50,333.00 L477.00,333.50 L476.00,333.50 L475.00,333.50 L474.00,333.50 L473.50,334.00 L473.00,334.50 L472.00,334.50 L471.00,334.50 L470.50,335.00 L470.00,335.50 L469.00,335.50 L468.00,335.50 L467.50,336.00 L467.00,336.50 L466.00,336.50 L465.00,336.50 L464.00,336.50 L463.50,337.00 L463.00,337.50 L462.00,337.50 L461.00,337.50 L460.50,338.00 L460.00,338.50 L459.00,338.50 L458.00,338.50 L457.00,338.50 L456.50,339.00 L456.00,339.50 L455.00,339.50 L454.00,339.50 L453.00,339.50 L452.50,340.00 L452.00,340.50 L451.00,340.50 L450.00,340.50 L449.50,341.00 L449.00,341.50 L448.00,341.50 L447.00,341.50 L446.00,341.50 L445.50,342.00 L445.00,342.50 L444.00,342.50 L443.00,342.50 L442.00,342.50 L441.50,343.00 L441.00,343.50 L440.00,343.50 L439.00,343.50 L438.00,343.50 L437.50,344.00 L437.00,344.50 L436.00,344.50 L435.00,344.50 L434.00,344.50 L433.50,345.00 L433.00,345.50 L432.00,345.50 L431.00,345.50 L430.00,345.50 L429.50,346.00 L429.00,346.50 L428.00,346.50 L427.00,346.50 L426.00,346.50 L425.50,347.00 L425.00,347.50 L424.00,347.50 L423.00,347.50 L422.00,347.50 L421.50,348.00 L421.00,348.50 L420.00,348.50 L419.00,348.50 L418.00,348.50 L417.50,349.00 L417.00,349.50 L416.00,349.50 L415.00,349.50 L414.00,349.50 L413.50,350.00 L413.00,350.50 L412.00,350.50 L411.00,350.50 L410.00,350.50 L409.00,350.50 L408.50,351.00 L408.00,351.50 L407.00,351.50 L406.00,351.50 L405.00,351.50 L404.50,352.00 L404.00,352.50 L403.00,352.50 L402.00,352.50 L401.00,352.50 L400.00,352.50 L399.50,353.00 L399.00,353.50 L398.00,353.50 L397.00,353.50 L396.00,353.50 L395.50,354.00 L395.00,354.50 L394.00,354.50 L393.00,354.50 L392.00,354.50 L391.00,354.50 L390.50,355.00 L390.00,355.50 L389.00,355.50 L388.00,355.50 L387.00,355.50 L386.50,356.00 L386.00,356.50 L385.00,356.50 L384.00,356.50 L383.00,356.50 L382.00,356.50 L381.50,357.00 L381.00,357.50 L380.00,357.50 L379.00,357.50 L378.00,357.50 L377.00,357.50 L376.50,358.00 L376.00,358.50 L375.00,358.50 L374.00,358.50 L373.00,358.50 L372.00,358.50 L371.50,359.00 L371.00,359.50 L370.00,359.50 L369.00,359.50 L368.00,359.50 L367.00,359.50 L366.50,360.00 L366.00,360.50 L365.00,360.50 L364.00,360.50 L363.00,360.50 L362.00,360.50 L361.50,361.00 L361.00,361.50 L360.00,361.50 L359.00,361.50 L358.00,361.50 L357.00,361.50 L356.50,362.00 L356.00,362.50 L355.00,362.50 L354.00,362.50 L353.00,362.50 L352.00,362.50 L351.50,363.00 L351.00,363.50 L350.00,363.50 L349.00,363.50 L348.00,363.50 L347.00,363.50 L346.50,364.00 L346.00,364.50 L345.00,364.50 L344.00,364.50 L343.00,364.50 L342.00,364.50 L341.00,364.50 L340.50,365.00 L340.00,365.50 L339.00,365.50 L338.00,365.50 L337.00,365.50 L336.00,365.50 L335.50,366.00 L335.00,366.50 L334.00,366.50 L333.00,366.50 L332.00,366.50 L331.00,366.50 L330.00,366.50 L329.50,367.00 L329.00,367.50 L328.00,367.50 L327.00,367.50 L326.00,367.50 L325.00,367.50 L324.50,368.00 L324.00,368.50 L323.00,368.50 L322.00,368.50 L321.00,368.50 L320.00,368.50 L319.00,368.50 L318.50,369.00 L318.00,369.50 L317.00,369.50 L316.00,369.50 L315.00,369.50 L314.00,369.50 L313.00,369.50 L312.50,370.00 L312.00,370.50 L311.00,370.50 L310.00,370.50 L309.00,370.50 L308.00,370.50 L307.00,370.50 L306.50,371.00 L306.00,371.50 L305.00,371.50 L304.00,371.50 L303.00,371.50 L302.00,371.50 L301.00,371.50 L300.50,372.00 L300.00,372.50 L299.00,372.50 L298.00,372.50 L297.00,372.50 L296.00,372.50 L295.00,372.50 L294.00,372.50 L293.50,373.00 L293.00,373.50 L292.00,373.50 L291.00,373.50 L290.00,373.50 L289.00,373.50 L288.00,373.50 L287.50,374.00 L287.00,374.50 L286.00,374.50 L285.00,374.50 L284.00,374.50 L283.00,374.50 L282.00,374.50 L281.00,374.50 L280.50,375.00 L280.00,375.50 L279.00,375.50 L278.00,375.50 L277.00,375.50 L276.00,375.50 L275.00,375.50 L274.00,375.50 L273.50,376.00 L273.00,376.50 L272.00,376.50 L271.00,376.50 L270.00,376.50 L269.00,376.50 L268.00,376.50 L267.00,376.50 L266.50,377.00 L266.00,377.50 L265.00,377.50 L264.00,377.50 L263.00,377.50 L262.00,377.50 L261.00,377.50 L260.00,377.50 L259.50,378.00 L259.00,378.50 L258.00,378.50 L257.00,378.50 L256.00,378.50 L255.00,378.50 L254.00,378.50 L253.00,378.50 L252.00,378.50 L251.50,379.00 L251.00,379.50 L250.00,379.50 L249.00,379.50 L248.00,379.50 L247.00,379.50 L246.00,379.50 L245.00,379.50 L244.00,379.50 L243.50,380.00 L243.00,380.50 L242.00,380.50 L241.00,380.50 L240.00,380.50 L239.00,380.50 L238.00,380.50 L237.00,380.50 L236.00,380.50 L235.50,381.00 L235.00,381.50 L234.00,381.50 L233.00,381.50 L232.00,381.50 L231.00,381.50 L230.00,381.50 L229.00,381.50 L228.00,381.50 L227.00,381.50 L226.50,382.00 L226.00,382.50 L225.00,382.50 L224.00,382.50 L223.00,382.50 L222.00,382.50 L221.00,382.50 L220.00,382.50 L219.00,382.50 L218.00,382.50 L217.00,382.50 L216.50,383.00 L216.00,383.50 L215.00,383.50 L214.00,383.50 L213.00,383.50 L212.00,383.50 L211.00,383.50 L210.00,383.50 L209.00,383.50 L208.00,383.50 L207.00,383.50 L206.00,383.50 L205.50,384.00 L205.00,384.50 L204.00,384.50 L203.00,384.50 L202.00,384.50 L201.00,384.50 L200.00,384.50 L199.00,384.50 L198.00,384.50 L197.00,384.50 L196.00,384.50 L195.00,384.50 L194.00,384.50 L193.00,384.50 L192.00,384.50 L191.50,385.00 L191.00,385.50 Z" fill="#ffffff" fill-rule="evenodd"/><path d="M199.50,370.00 L200.00,369.50 L201.00,369.50 L202.00,369.50 L203.00,369.50 L204.00,369.50 L205.00,369.50 L206.00,369.50 L207.00,369.50 L208.00,369.50 L209.00,369.50 L210.00,369.50 L211.00,369.50 L211.50,369.00 L212.00,368.50 L213.00,368.50 L214.00,368.50 L215.00,368.50 L216.00,368.50 L217.00,368.50 L218.00,368.50 L219.00,368.50 L220.00,368.50 L221.00,368.50 L221.50,368.00 L222.00,367.50 L223.00,367.50 L224.00,367.50 L225.00,367.50 L226.00,367.50 L227.00,367.50 L228.00,367.50 L229.00,367.50 L230.00,367.50 L230.50,367.00 L231.00,366.50 L232.00,366.50 L233.00,366.50 L234.00,366.50 L235.00,366.50 L236.00,366.50 L237.00,366.50 L238.00,366.50 L239.00,366.50 L239.50,366.00 L240.00,365.50 L241.00,365.50 L242.00,365.50 L243.00,365.50 L244.00,365.50 L245.00,365.50 L246.00,365.50 L247.00,365.50 L247.50,365.00 L248.00,364.50 L249.00,364.50 L250.00,364.50 L251.00,364.50 L252.00,364.50 L253.00,364.50 L254.00,364.50 L255.00,364.50 L255.50,364.00 L256.00,363.50 L257.00,363.50 L258.00,363.50 L259.00,363.50 L260.00,363.50 L261.00,363.50 L262.00,363.50 L262.50,363.00 L263.00,362.50 L264.00,362.50 L265.00,362.50 L266.00,362.50 L267.00,362.50 L268.00,362.50 L269.00,362.50 L270.00,362.50 L270.50,362.00 L271.00,361.50 L272.00,361.50 L273.00,361.50 L274.00,361.50 L275.00,361.50 L276.00,361.50 L276.50,361.00 L277.00,360.50 L278.00,360.50 L279.00,360.50 L280.00,360.50 L281.00,360.50 L282.00,360.50 L283.00,360.50 L283.50,360.00 L284.00,359.50 L285.00,359.50 L286.00,359.50 L287.00,359.50 L288.00,359.50 L289.00,359.50 L290.00,359.50 L290.50,359.00 L291.00,358.50 L292.00,358.50 L293.00,358.50 L294.00,358.50 L295.00,358.50 L296.00,358.50 L296.50,358.00 L297.00,357.50 L298.00,357.50 L299.00,357.50 L300.00,357.50 L301.00,357.50 L302.00,357.50 L302.50,357.00 L303.00,356.50 L304.00,356.50 L305.00,356.50 L306.00,356.50 L307.00,356.50 L308.00,356.50 L309.00,356.50 L309.50,356.00 L310.00,355.50 L311.00,355.50 L312.00,355.50 L313.00,355.50 L314.00,355.50 L314.50,355.00 L315.00,354.50 L316.00,354.50 L317.00,354.50 L318.00,354.50 L319.00,354.50 L320.00,354.50 L320.50,354.00 L321.00,353.50 L322.00,353.50 L323.00,353.50 L324.00,353.50 L325.00,353.50 L326.00,353.50 L326.50,353.00 L327.00,352.50 L328.00,352.50 L329.00,352.50 L330.00,352.50 L331.00,352.50 L332.00,352.50 L332.50,352.00 L333.00,351.50 L334.00,351.50 L335.00,351.50 L336.00,351.50 L337.00,351.50 L337.50,351.00 L338.00,350.50 L339.00,350.50 L340.00,350.50 L341.00,350.50 L342.00,350.50 L342.50,350.00 L343.00,349.50 L344.00,349.50 L345.00,349.50 L346.00,349.50 L347.00,349.50 L348.00,349.50 L348.50,349.00 L349.00,348.50 L350.00,348.50 L351.00,348.50 L352.00,348.50 L353.00,348.50 L353.50,348.00 L354.00,347.50 L355.00,347.50 L356.00,347.50 L357.00,347.50 L358.00,347.50 L358.50,347.00 L359.00,346.50 L360.00,346.50 L361.00,346.50 L362.00,346.50 L363.00,346.50 L363.50,346.00 L364.00,345.50 L365.00,345.50 L366.00,345.50 L367.00,345.50 L368.00,345.50 L368.50,345.00 L369.00,344.50 L370.00,344.50 L371.00,344.50 L372.00,344.50 L373.00,344.50 L373.50,344.00 L374.00,343.50 L375.00,343.50 L376.00,343.50 L377.00,343.50 L378.00,343.50 L378.50,343.00 L379.00,342.50 L380.00,342.50 L381.00,342.50 L382.00,342.50 L382.50,342.00 L383.00,341.50 L384.00,341.50 L385.00,341.50 L386.00,341.50 L387.00,341.50 L387.50,341.00 L388.00,340.50 L389.00,340.50 L390.00,340.50 L391.00,340.50 L392.00,340.50 L392.50,340.00 L393.00,339.50 L394.00,339.50 L395.00,339.50 L396.00,339.50 L396.50,339.00 L397.00,338.50 L398.00,338.50 L399.00,338.50 L400.00,338.50 L401.00,338.50 L401.50,338.00 L402.00,337.50 L403.00,337.50 L404.00,337.50 L405.00,337.50 L405.50,337.00 L406.00,336.50 L407.00,336.50 L408.00,336.50 L409.00,336.50 L409.50,336.00 L410.00,335.50 L411.00,335.50 L412.00,335.50 L413.00,335.50 L413.50,335.00 L414.00,334.50 L415.00,334.50 L416.00,334.50 L417.00,334.50 L418.00,334.50 L418.50,334.00 L419.00,333.50 L420.00,333.50 L421.00,333.50 L422.00,333.50 L422.50,333.00 L423.00,332.50 L424.00,332.50 L425.00,332.50 L426.00,332.50 L426.50,332.00 L427.00,331.50 L428.00,331.50 L429.00,331.50 L430.00,331.50 L430.50,331.00 L431.00,330.50 L432.00,330.50 L433.00,330.50 L434.00,330.50 L434.50,330.00 L435.00,329.50 L436.00,329.50 L437.00,329.50 L438.00,329.50 L438.50,329.00 L439.00,328.50 L440.00,328.50 L441.00,328.50 L441.50,328.00 L442.00,327.50 L443.00,327.50 L444.00,327.50 L445.00,327.50 L445.50,327.00 L446.00,326.50 L447.00,326.50 L448.00,326.50 L449.00,326.50 L449.50,326.00 L450.00,325.50 L451.00,325.50 L452.00,325.50 L453.00,325.50 L453.50,325.00 L454.00,324.50 L455.00,324.50 L456.00,324.50 L456.50,324.00 L457.00,323.50 L458.00,323.50 L459.00,323.50 L460.00,323.50 L460.50,323.00 L461.00,322.50 L462.00,322.50 L463.00,322.50 L463.50,322.00 L464.00,321.50 L465.00,321.50 L466.00,321.50 L467.00,321.50 L467.50,321.00 L468.00,320.50 L469.00,320.50 L470.00,320.50 L470.50,320.00 L471.00,319.50 L472.00,319.50 L473.00,319.50 L473.50,319.00 L474.00,318.50 L475.00,318.50 L476.00,318.50 L477.00,318.50 L477.50,318.00 L478.00,317.50 L479.00,317.50 L480.00,317.50 L480.50,317.00 L481.00,316.50 L482.00,316.50 L483.00,316.50 L483.50,316.00 L484.00,315.50 L485.00,315.50 L486.00,315.50 L486.50,315.00 L487.00,314.50 L488.00,314.50 L489.00,314.50 L489.50,314.00 L490.00,313.50 L491.00,313.50 L492.00,313.50 L492.50,313.00 L493.00,312.50 L494.00,312.50 L495.00,312.50 L495.50,312.00 L496.00,311.50 L497.00,311.50 L498.00,311.50 L498.50,311.00 L499.00,310.50 L500.00,310.50 L501.00,310.50 L501.50,310.00 L502.00,309.50 L503.00,309.50 L504.00,309.50 L504.50,309.00 L505.00,308.50 L506.00,308.50 L507.00,308.50 L507.50,308.00 L508.00,307.50 L509.00,307.50 L509.50,307.00 L510.00,306.50 L511.00,306.50 L512.00,306.50 L512.50,306.00 L513.00,305.50 L514.00,305.50 L515.00,305.50 L515.50,305.00 L516.00,304.50 L517.00,304.50 L517.50,304.00 L518.00,303.50 L519.00,303.50 L520.00,303.50 L520.50,303.00 L521.00,302.50 L522.00,302.50 L522.50,302.00 L523.00,301.50 L524.00,301.50 L525.00,301.50 L525.50,301.00 L526.00,300.50 L527.00,300.50 L527.50,300.00 L528.00,299.50 L529.00,299.50 L530.00,299.50 L530.50,299.00 L531.00,298.50 L532.00,298.50 L532.50,298.00 L533.00,297.50 L534.00,297.50 L534.50,297.00 L535.00,296.50 L536.00,296.50 L536.50,296.00 L537.00,295.50 L538.00,295.50 L539.00,295.50 L539.50,295.00 L540.00,294.50 L541.00,294.50 L541.50,294.00 L542.00,293.50 L543.00,293.50 L543.50,293.00 L544.00,292.50 L545.00,292.50 L545.50,292.00 L546.00,291.50 L547.00,291.50 L547.50,291.00 L548.00,290.50 L549.00,290.50 L549.50,290.00 L550.00,289.50 L550.50,289.00 L551.00,288.50 L552.00,288.50 L552.50,288.00 L553.00,287.50 L554.00,287.50 L554.50,287.00 L555.00,286.50 L555.50,286.00 L556.00,285.50 L556.50,285.00 L557.00,284.50 L558.00,284.50 L558.50,284.00 L559.00,283.50 L559.50,283.00 L560.00,282.50 L560.50,282.00 L561.00,281.50 L562.00,281.50 L562.50,281.00 L563.00,280.50 L563.50,280.00 L564.00,279.50 L564.50,279.00 L565.00,278.50 L565.50,278.00 L566.00,277.50 L566.50,277.00 L567.00,276.50 L567.50,276.00 L568.00,275.50 L568.50,275.00 L569.00,274.50 L569.50,274.00 L570.00,273.50 L570.50,273.00 L571.00,272.50 L571.50,272.00 L572.00,271.50 L572.50,271.00 L572.50,270.00 L573.00,269.50 L573.50,269.00 L574.00,268.50 L574.50,268.00 L575.00,267.50 L575.50,267.00 L575.50,266.00 L576.00,265.50 L576.50,265.00 L577.00,264.50 L577.50,264.00 L577.50,263.00 L578.00,262.50 L578.50,262.00 L579.00,261.50 L579.50,261.00 L579.50,260.00 L580.00,259.50 L580.50,259.00 L580.50,258.00 L581.00,257.50 L581.50,257.00 L581.50,256.00 L582.00,255.50 L582.50,255.00 L582.50,254.00 L583.00,253.50 L583.50,253.00 L583.50,252.00 L583.50,251.00 L584.00,250.50 L584.50,250.00 L584.50,249.00 L585.00,248.50 L585.50,248.00 L585.50,247.00 L585.50,246.00 L585.50,245.00 L586.00,244.50 L586.50,244.00 L586.50,243.00 L586.50,242.00 L586.50,241.00 L587.00,240.50 L587.50,240.00 L587.50,239.00 L587.50,238.00 L587.50,237.00 L587.50,236.00 L587.50,235.00 L587.50,234.00 L587.50,233.00 L587.50,232.00 L588.00,231.50 L588.50,231.00 L588.50,230.00 L588.50,229.00 L588.50,228.00 L588.50,227.00 L588.50,226.00 L588.50,225.00 L588.00,224.50 L587.50,224.00 L587.50,223.00 L587.50,222.00 L587.50,221.00 L587.50,220.00 L587.50,219.00 L587.50,218.00 L587.50,217.00 L587.00,216.50 L586.50,216.00 L586.50,215.00 L586.50,214.00 L586.50,213.00 L586.00,212.50 L585.50,212.00 L585.50,211.00 L585.50,210.00 L585.00,209.50 L584.50,209.00 L584.50,208.00 L584.50,207.00 L584.00,206.50 L583.50,206.00 L583.50,205.00 L583.50,204.00 L583.00,203.50 L582.50,203.00 L582.50,202.00 L582.00,201.50 L581.50,201.00 L581.50,200.00 L581.00,199.50 L580.50,199.00 L580.50,198.00 L580.00,197.50 L579.50,197.00 L579.50,196.00 L579.00,195.50 L578.50,195.00 L578.50,194.00 L578.00,193.50 L577.50,193.00 L577.00,192.50 L576.50,192.00 L576.50,191.00 L576.00,190.50 L575.50,190.00 L575.00,189.50 L574.50,189.00 L574.50,188.00 L574.00,187.50 L573.50,187.00 L573.00,186.50 L572.50,186.00 L572.00,185.50 L571.50,185.00 L571.00,184.50 L570.50,184.00 L570.00,183.50 L569.50,183.00 L569.50,182.00 L569.00,181.50 L568.50,181.00 L568.00,180.50 L567.50,180.00 L567.00,179.50 L566.50,179.00 L566.00,178.50 L565.50,178.00 L565.00,177.50 L564.50,177.00 L564.00,176.50 L563.50,176.00 L563.00,175.50 L562.50,175.00 L562.00,174.50 L561.00,174.50 L560.50,174.00 L560.00,173.50 L559.50,173.00 L559.00,172.50 L558.50,172.00 L558.00,171.50 L557.50,171.00 L557.00,170.50 L556.50,170.00 L556.00,169.50 L555.00,169.50 L554.50,169.00 L554.00,168.50 L553.50,168.00 L553.00,167.50 L552.50,167.00 L552.00,166.50 L551.00,166.50 L550.50,166.00 L550.00,165.50 L549.50,165.00 L549.00,164.50 L548.00,164.50 L547.50,164.00 L547.00,163.50 L546.50,163.00 L546.00,162.50 L545.00,162.50 L544.50,162.00 L544.00,161.50 L543.00,161.50 L542.50,161.00 L542.00,160.50 L541.50,160.00 L541.00,159.50 L540.00,159.50 L539.50,159.00 L539.00,158.50 L538.50,158.00 L538.00,157.50 L537.00,157.50 L536.50,157.00 L536.00,156.50 L535.00,156.50 L534.50,156.00 L534.00,155.50 L533.50,155.00 L533.00,154.50 L532.00,154.50 L531.50,154.00 L531.00,153.50 L530.00,153.50 L529.50,153.00 L529.00,152.50 L528.50,152.00 L528.00,151.50 L527.00,151.50 L526.50,151.00 L526.00,150.50 L525.00,150.50 L524.50,150.00 L524.00,149.50 L523.00,149.50 L522.50,149.00 L522.00,148.50 L521.50,148.00 L521.00,147.50 L520.00,147.50 L519.50,147.00 L519.00,146.50 L518.00,146.50 L517.50,146.00 L517.00,145.50 L516.00,145.50 L515.50,145.00 L515.00,144.50 L514.00,144.50 L513.50,144.00 L513.00,143.50 L512.00,143.50 L511.50,143.00 L511.00,142.50 L510.50,142.00 L510.00,141.50 L509.00,141.50 L508.50,141.00 L508.00,140.50 L507.00,140.50 L506.50,140.00 L506.00,139.50 L505.00,139.50 L504.50,139.00 L504.00,138.50 L503.00,138.50 L502.50,138.00 L502.00,137.50 L501.00,137.50 L500.50,137.00 L500.00,136.50 L499.00,136.50 L498.50,136.00 L498.00,135.50 L497.00,135.50 L496.50,135.00 L496.00,134.50 L495.00,134.50 L494.50,134.00 L494.00,133.50 L493.00,133.50 L492.50,133.00 L492.00,132.50 L491.00,132.50 L490.50,132.00 L490.00,131.50 L489.00,131.50 L488.50,131.00 L488.00,130.50 L487.00,130.50 L486.00,130.50 L485.50,130.00 L485.00,129.50 L484.00,129.50 L483.50,129.00 L483.00,128.50 L482.00,128.50 L481.50,128.00 L481.00,127.50 L480.00,127.50 L479.50,127.00 L479.00,126.50 L478.00,126.50 L477.50,126.00 L477.00,125.50 L476.00,125.50 L475.50,125.00 L475.00,124.50 L474.00,124.50 L473.00,124.50 L472.50,124.00 L472.00,123.50 L471.00,123.50 L470.50,123.00 L470.00,122.50 L469.00,122.50 L468.50,122.00 L468.00,121.50 L467.00,121.50 L466.50,121.00 L466.00,120.50 L465.00,120.50 L464.00,120.50 L463.50,120.00 L463.00,119.50 L462.00,119.50 L461.50,119.00 L461.00,118.50 L460.00,118.50 L459.50,118.00 L459.00,117.50 L458.00,117.50 L457.00,117.50 L456.50,117.00 L456.00,116.50 L455.00,116.50 L454.50,116.00 L454.00,115.50 L453.00,115.50 L452.00,115.50 L451.50,115.00 L451.00,114.50 L450.00,114.50 L449.50,114.00 L449.00,113.50 L448.00,113.50 L447.50,113.00 L447.00,112.50 L446.00,112.50 L445.00,112.50 L444.50,112.00 L444.00,111.50 L443.00,111.50 L442.50,111.00 L442.00,110.50 L441.00,110.50 L440.00,110.50 L439.50,110.00 L439.00,109.50 L438.00,109.50 L437.50,109.00 L437.00,108.50 L436.00,108.50 L435.00,108.50 L434.50,108.00 L434.00,107.50 L433.00,107.50 L432.50,107.00 L432.00,106.50 L431.00,106.50 L430.00,106.50 L429.50,106.00 L429.00,105.50 L428.00,105.50 L427.00,105.50 L426.50,105.00 L426.00,104.50 L425.00,104.50 L424.50,104.00 L424.00,103.50 L423.00,103.50 L422.00,103.50 L421.50,103.00 L421.00,102.50 L420.00,102.50 L419.00,102.50 L418.50,102.00 L418.00,101.50 L417.00,101.50 L416.50,101.00 L416.00,100.50 L415.00,100.50 L414.00,100.50 L413.50,100.00 L413.00,99.50 L412.00,99.50 L411.00,99.50 L410.50,99.00 L410.00,98.50 L409.00,98.50 L408.00,98.50 L407.50,98.00 L407.00,97.50 L406.00,97.50 L405.50,97.00 L405.00,96.50 L404.00,96.50 L403.00,96.50 L402.50,96.00 L402.00,95.50 L401.00,95.50 L400.00,95.50 L399.50,95.00 L399.00,94.50 L398.00,94.50 L397.00,94.50 L396.50,94.00 L396.00,93.50 L395.00,93.50 L394.00,93.50 L393.50,93.00 L393.00,92.50 L392.00,92.50 L391.00,92.50 L390.50,92.00 L390.00,91.50 L389.00,91.50 L388.00,91.50 L387.50,91.00 L387.00,90.50 L386.00,90.50 L385.00,90.50 L384.50,90.00 L384.00,89.50 L383.00,89.50 L382.00,89.50 L381.50,89.00 L381.00,88.50 L380.00,88.50 L379.00,88.50 L378.50,88.00 L378.00,87.50 L377.00,87.50 L376.00,87.50 L375.50,87.00 L375.00,86.50 L374.00,86.50 L373.00,86.50 L372.50,86.00 L372.00,85.50 L371.00,85.50 L370.00,85.50 L369.50,85.00 L369.00,84.50 L368.00,84.50 L367.00,84.50 L366.50,84.00 L366.00,83.50 L365.00,83.50 L364.00,83.50 L363.50,83.00 L363.00,82.50 L362.00,82.50 L361.00,82.50 L360.50,82.00 L360.00,81.50 L359.00,81.50 L358.00,81.50 L357.00,81.50 L356.50,81.00 L356.00,80.50 L355.00,80.50 L354.00,80.50 L353.50,80.00 L353.00,79.50 L352.00,79.50 L351.00,79.50 L350.50,79.00 L350.00,78.50 L349.00,78.50 L348.00,78.50 L347.50,78.00 L347.00,77.50 L346.00,77.50 L345.00,77.50 L344.00,77.50 L343.50,77.00 L343.00,76.50 L342.00,76.50 L341.00,76.50 L340.50,76.00 L340.00,75.50 L339.00,75.50 L338.00,75.50 L337.50,75.00 L337.00,74.50 L336.00,74.50 L335.00,74.50 L334.00,74.50 L333.50,74.00 L333.00,73.50 L332.00,73.50 L331.00,73.50 L330.50,73.00 L330.00,72.50 L329.00,72.50 L328.00,72.50 L327.00,72.50 L326.50,72.00 L326.00,71.50 L325.00,71.50 L324.00,71.50 L323.50,71.00 L323.00,70.50 L322.00,70.50 L321.00,70.50 L320.00,70.50 L319.50,70.00 L319.00,69.50 L318.00,69.50 L317.00,69.50 L316.00,69.50 L315.50,69.00 L315.00,68.50 L314.00,68.50 L313.00,68.50 L312.50,68.00 L312.00,67.50 L311.00,67.50 L310.00,67.50 L309.00,67.50 L308.50,67.00 L308.00,66.50 L307.00,66.50 L306.00,66.50 L305.00,66.50 L304.50,66.00 L304.00,65.50 L303.00,65.50 L302.00,65.50 L301.00,65.50 L300.50,65.00 L300.00,64.50 L299.00,64.50 L298.00,64.50 L297.50,64.00 L297.00,63.50 L296.00,63.50 L295.00,63.50 L294.00,63.50 L293.50,63.00 L293.00,62.50 L292.00,62.50 L291.00,62.50 L290.00,62.50 L289.50,62.00 L289.00,61.50 L288.00,61.50 L287.00,61.50 L286.00,61.50 L285.50,61.00 L285.00,60.50 L284.00,60.50 L283.00,60.50 L282.00,60.50 L281.50,60.00 L281.00,59.50 L280.00,59.50 L279.00,59.50 L278.00,59.50 L277.50,59.00 L277.00,58.50 L276.00,58.50 L275.00,58.50 L274.00,58.50 L273.00,58.50 L272.50,58.00 L272.00,57.50 L271.00,57.50 L270.00,57.50 L269.00,57.50 L268.50,57.00 L268.00,56.50 L267.00,56.50 L266.00,56.50 L265.00,56.50 L264.50,56.00 L264.00,55.50 L263.00,55.50 L262.00,55.50 L261.00,55.50 L260.00,55.50 L259.50,55.00 L259.00,54.50 L258.00,54.50 L257.00,54.50 L256.00,54.50 L255.50,54.00 L255.00,53.50 L254.00,53.50 L253.00,53.50 L252.00,53.50 L251.00,53.50 L250.50,53.00 L250.00,52.50 L249.00,52.50 L248.00,52.50 L247.00,52.50 L246.00,52.50 L245.50,52.00 L245.00,51.50 L244.00,51.50 L243.00,51.50 L242.00,51.50 L241.00,51.50 L240.50,51.00 L240.00,50.50 L239.00,50.50 L238.00,50.50 L237.00,50.50 L236.00,50.50 L235.50,50.00 L235.00,49.50 L234.00,49.50 L233.00,49.50 L232.00,49.50 L231.00,49.50 L230.00,49.50 L229.50,49.00 L229.00,48.50 L228.00,48.50 L227.00,48.50 L226.00,48.50 L225.00,48.50 L224.50,48.00 L224.00,47.50 L223.00,47.50 L222.00,47.50 L221.00,47.50 L220.00,47.50 L219.00,47.50 L218.50,47.00 L218.00,46.50 L217.00,46.50 L216.00,46.50 L215.00,46.50 L214.00,46.50 L213.00,46.50 L212.00,46.50 L211.50,46.00 L211.00,45.50 L210.00,45.50 L209.00,45.50 L208.00,45.50 L207.00,45.50 L206.00,45.50 L205.00,45.50 L204.00,45.50 L203.00,45.50 L202.00,45.50 L201.50,45.00 L201.00,44.50 L200.00,44.50 L199.00,44.50 L198.00,44.50 L197.00,44.50 L196.00,44.50 L195.00,44.50 L194.00,44.50 L193.00,44.50 L192.00,44.50 L191.00,44.50 L190.00,44.50 L189.00,44.50 L188.00,44.50 L187.50,45.00 L187.00,45.50 L186.00,45.50 L185.00,45.50 L184.00,45.50 L183.00,45.50 L182.50,46.00 L182.00,46.50 L181.00,46.50 L180.00,46.50 L179.50,47.00 L179.00,47.50 L178.00,47.50 L177.00,47.50 L176.50,48.00 L176.00,48.50 L175.00,48.50 L174.00,48.50 L173.50,49.00 L173.00,49.50 L172.00,49.50 L171.50,50.00 L171.00,50.50 L170.00,50.50 L169.50,51.00 L169.00,51.50 L168.00,51.50 L167.50,52.00 L167.00,52.50 L166.50,53.00 L166.00,53.50 L165.00,53.50 L164.50,54.00 L164.00,54.50 L163.50,55.00 L163.00,55.50 L162.00,55.50 L161.50,56.00 L161.00,56.50 L160.50,57.00 L160.00,57.50 L159.50,58.00 L159.00,58.50 L158.50,59.00 L158.00,59.50 L157.50,60.00 L157.00,60.50 L156.50,61.00 L156.00,61.50 L155.50,62.00 L155.00,62.50 L154.50,63.00 L154.00,63.50 L153.50,64.00 L153.00,64.50 L152.50,65.00 L152.00,65.50 L151.50,66.00 L151.00,66.50 L150.50,67.00 L150.50,68.00 L150.00,68.50 L149.50,69.00 L149.00,69.50 L148.50,70.00 L148.50,71.00 L148.00,71.50 L147.50,72.00 L147.50,73.00 L147.00,73.50 L146.50,74.00 L146.50,75.00 L146.00,75.50 L145.50,76.00 L145.50,77.00 L145.50,78.00 L145.00,78.50 L144.50,79.00 L144.50,80.00 L144.50,81.00 L144.00,81.50 L143.50,82.00 L143.50,83.00 L143.50,84.00 L143.50,85.00 L143.00,85.50 L142.50,86.00 L142.50,87.00 L142.50,88.00 L142.50,89.00 L142.50,90.00 L142.50,91.00 L142.50,92.00 L142.50,93.00 L142.50,94.00 L142.50,95.00 L142.50,96.00 L142.50,97.00 L142.50,98.00 L142.50,99.00 L142.50,100.00 L142.50,101.00 L143.00,101.50 L143.50,102.00 L143.50,103.00 L143.50,104.00 L143.50,105.00 L143.50,106.00 L144.00,106.50 L144.50,107.00 L144.50,108.00 L144.50,109.00 L145.00,109.50 L145.50,110.00 L145.50,111.00 L145.50,112.00 L146.00,112.50 L146.50,113.00 L146.50,114.00 L146.50,115.00 L147.00,115.50 L147.50,116.00 L147.50,117.00 L148.00,117.50 L148.50,118.00 L148.50,119.00 L149.00,119.50 L149.50,120.00 L149.50,121.00 L150.00,121.50 L150.50,122.00 L150.50,123.00 L151.00,123.50 L151.50,124.00 L151.50,125.00 L152.00,125.50 L152.50,126.00 L153.00,126.50 L153.50,127.00 L153.50,128.00 L154.00,128.50 L154.50,129.00 L154.50,130.00 L155.00,130.50 L155.50,131.00 L155.50,132.00 L156.00,132.50 L156.50,133.00 L157.00,133.50 L157.50,134.00 L157.50,135.00 L158.00,135.50 L158.50,136.00 L158.50,137.00 L159.00,137.50 L159.50,138.00 L160.00,138.50 L160.50,139.00 L160.50,140.00 L161.00,140.50 L161.50,141.00 L162.00,141.50 L162.50,142.00 L162.50,143.00 L163.00,143.50 L163.50,144.00 L164.00,144.50 L164.50,145.00 L164.50,146.00 L165.00,146.50 L165.50,147.00 L166.00,147.50 L166.50,148.00 L166.50,149.00 L167.00,149.50 L167.50,150.00 L168.00,150.50 L168.50,151.00 L168.50,152.00 L169.00,152.50 L169.50,153.00 L170.00,153.50 L170.50,154.00 L170.50,155.00 L171.00,155.50 L171.50,156.00 L172.00,156.50 L172.50,157.00 L172.50,158.00 L173.00,158.50 L173.50,159.00 L174.00,159.50 L174.50,160.00 L175.00,160.50 L175.50,161.00 L175.50,162.00 L176.00,162.50 L176.50,163.00 L177.00,163.50 L177.50,164.00 L177.50,165.00 L178.00,165.50 L178.50,166.00 L178.50,167.00 L179.00,167.50 L179.50,168.00 L180.00,168.50 L180.50,169.00 L180.50,170.00 L181.00,170.50 L181.50,171.00 L181.50,172.00 L182.00,172.50 L182.50,173.00 L183.00,173.50 L183.50,174.00 L183.50,175.00 L184.00,175.50 L184.50,176.00 L184.50,177.00 L185.00,177.50 L185.50,178.00 L185.50,179.00 L185.50,180.00 L186.00,180.50 L186.50,181.00 L186.50,182.00 L187.00,182.50 L187.50,183.00 L187.50,184.00 L187.50,185.00 L187.50,186.00 L188.00,186.50 L188.50,187.00 L188.50,188.00 L188.50,189.00 L188.50,190.00 L188.50,191.00 L188.50,192.00 L188.50,193.00 L188.50,194.00 L188.50,195.00 L188.50,196.00 L188.50,197.00 L188.50,198.00 L188.50,199.00 L188.00,199.50 L187.50,200.00 L187.50,201.00 L187.50,202.00 L187.50,203.00 L187.00,203.50 L186.50,204.00 L186.50,205.00 L186.50,206.00 L186.00,206.50 L185.50,207.00 L185.50,208.00 L185.00,208.50 L184.50,209.00 L184.50,210.00 L184.50,211.00 L184.00,211.50 L183.50,212.00 L183.50,213.00 L183.00,213.50 L182.50,214.00 L182.50,215.00 L182.00,215.50 L181.50,216.00 L181.00,216.50 L180.50,217.00 L180.50,218.00 L180.00,218.50 L179.50,219.00 L179.50,220.00 L179.00,220.50 L178.50,221.00 L178.50,222.00 L178.00,222.50 L177.50,223.00 L177.00,223.50 L176.50,224.00 L176.00,224.50 L175.50,225.00 L175.50,226.00 L175.00,226.50 L174.50,227.00 L174.00,227.50 L173.50,228.00 L173.50,229.00 L173.00,229.50 L172.50,230.00 L172.00,230.50 L171.50,231.00 L171.50,232.00 L171.00,232.50 L170.50,233.00 L170.00,233.50 L169.50,234.00 L169.00,234.50 L168.50,235.00 L168.00,235.50 L167.50,236.00 L167.50,237.00 L167.00,237.50 L166.50,238.00 L166.00,238.50 L165.50,239.00 L165.00,239.50 L164.50,240.00 L164.00,240.50 L163.50,241.00 L163.50,242.00 L163.00,242.50 L162.50,243.00 L162.00,243.50 L161.50,244.00 L161.00,244.50 L160.50,245.00 L160.00,245.50 L159.50,246.00 L159.00,246.50 L158.50,247.00 L158.00,247.50 L157.50,248.00 L157.00,248.50 L156.50,249.00 L156.50,250.00 L156.00,250.50 L155.50,251.00 L155.00,251.50 L154.50,252.00 L154.00,252.50 L153.50,253.00 L153.00,253.50 L152.50,254.00 L152.00,254.50 L151.50,255.00 L151.00,255.50 L150.50,256.00 L150.00,256.50 L149.50,257.00 L149.00,257.50 L148.50,258.00 L148.00,258.50 L147.50,259.00 L147.00,259.50 L146.50,260.00 L146.00,260.50 L145.50,261.00 L145.00,261.50 L144.50,262.00 L144.00,262.50 L143.50,263.00 L143.00,263.50 L142.50,264.00 L142.00,264.50 L141.50,265.00 L141.00,265.50 L140.50,266.00 L140.00,266.50 L139.50,267.00 L139.00,267.50 L138.50,268.00 L138.00,268.50 L137.50,269.00 L137.00,269.50 L136.50,270.00 L136.00,270.50 L135.50,271.00 L135.00,271.50 L134.50,272.00 L134.00,272.50 L133.50,273.00 L133.00,273.50 L132.50,274.00 L132.00,274.50 L131.50,275.00 L131.00,275.50 L130.50,276.00 L130.00,276.50 L129.50,277.00 L129.00,277.50 L128.50,278.00 L128.00,278.50 L127.50,279.00 L127.00,279.50 L126.50,280.00 L126.00,280.50 L125.50,281.00 L125.00,281.50 L124.50,282.00 L124.00,282.50 L123.50,283.00 L123.00,283.50 L122.50,284.00 L122.00,284.50 L121.50,285.00 L121.00,285.50 L120.50,286.00 L120.00,286.50 L119.50,287.00 L119.00,287.50 L118.50,288.00 L118.50,289.00 L118.00,289.50 L117.50,290.00 L117.50,291.00 L117.00,291.50 L116.50,292.00 L116.00,292.50 L115.50,293.00 L115.50,294.00 L115.50,295.00 L115.00,295.50 L114.50,296.00 L114.50,297.00 L114.00,297.50 L113.50,298.00 L113.50,299.00 L113.50,300.00 L113.00,300.50 L112.50,301.00 L112.50,302.00 L112.50,303.00 L112.00,303.50 L111.50,304.00 L111.50,305.00 L111.50,306.00 L111.50,307.00 L111.00,307.50 L110.50,308.00 L110.50,309.00 L110.50,310.00 L110.50,311.00 L110.50,312.00 L110.00,312.50 L109.50,313.00 L109.50,314.00 L109.50,315.00 L109.50,316.00 L109.50,317.00 L109.50,318.00 L109.50,319.00 L109.50,320.00 L109.50,321.00 L109.50,322.00 L109.50,323.00 L109.50,324.00 L109.50,325.00 L109.50,326.00 L109.50,327.00 L109.50,328.00 L110.00,328.50 L110.50,329.00 L110.50,330.00 L110.50,331.00 L110.50,332.00 L110.50,333.00 L111.00,333.50 L111.50,334.00 L111.50,335.00 L111.50,336.00 L112.00,336.50 L112.50,337.00 L112.50,338.00 L112.50,339.00 L113.00,339.50 L113.50,340.00 L113.50,341.00 L114.00,341.50 L114.50,342.00 L114.50,343.00 L115.00,343.50 L115.50,344.00 L115.50,345.00 L116.00,345.50 L116.50,346.00 L117.00,346.50 L117.50,347.00 L117.50,348.00 L118.00,348.50 L118.50,349.00 L119.00,349.50 L119.50,350.00 L120.00,350.50 L120.50,351.00 L121.00,351.50 L121.50,352.00 L122.00,352.50 L122.50,353.00 L123.00,353.50 L123.50,354.00 L124.00,354.50 L124.50,355.00 L125.00,355.50 L125.50,356.00 L126.00,356.50 L126.50,357.00 L127.00,357.50 L127.50,358.00 L128.00,358.50 L129.00,358.50 L129.50,359.00 L130.00,359.50 L130.50,360.00 L131.00,360.50 L132.00,360.50 L132.50,361.00 L133.00,361.50 L134.00,361.50 L134.50,362.00 L135.00,362.50 L136.00,362.50 L136.50,363.00 L137.00,363.50 L138.00,363.50 L138.50,364.00 L139.00,364.50 L140.00,364.50 L140.50,365.00 L141.00,365.50 L142.00,365.50 L143.00,365.50 L143.50,366.00 L144.00,366.50 L145.00,366.50 L146.00,366.50 L146.50,367.00 L147.00,367.50 L148.00,367.50 L149.00,367.50 L150.00,367.50 L150.50,368.00 L151.00,368.50 L152.00,368.50 L153.00,368.50 L154.00,368.50 L155.00,368.50 L155.50,369.00 L156.00,369.50 L157.00,369.50 L158.00,369.50 L159.00,369.50 L160.00,369.50 L161.00,369.50 L162.00,369.50 L162.50,370.00 L163.00,370.50 L164.00,370.50 L165.00,370.50 L166.00,370.50 L167.00,370.50 L168.00,370.50 L169.00,370.50 L170.00,370.50 L171.00,370.50 L172.00,370.50 L173.00,370.50 L174.00,370.50 L175.00,370.50 L176.00,370.50 L177.00,370.50 L178.00,370.50 L179.00,370.50 L180.00,370.50 L181.00,370.50 L182.00,370.50 L183.00,370.50 L184.00,370.50 L185.00,370.50 L186.00,370.50 L187.00,370.50 L188.00,370.50 L189.00,370.50 L190.00,370.50 L191.00,370.50 L192.00,370.50 L193.00,370.50 L194.00,370.50 L195.00,370.50 L196.00,370.50 L197.00,370.50 L198.00,370.50 L199.00,370.50 L199.50,370.00 Z" fill="#0a0a0a" fill-rule="evenodd"/><path d="M177.00,356.50 L176.00,356.50 L175.00,356.50 L174.50,356.00 L174.00,355.50 L173.00,355.50 L172.00,355.50 L171.00,355.50 L170.00,355.50 L169.00,355.50 L168.00,355.50 L167.00,355.50 L166.00,355.50 L165.00,355.50 L164.00,355.50 L163.00,355.50 L162.50,355.00 L162.00,354.50 L161.00,354.50 L160.00,354.50 L159.00,354.50 L158.00,354.50 L157.00,354.50 L156.50,354.00 L156.00,353.50 L155.00,353.50 L154.00,353.50 L153.00,353.50 L152.50,353.00 L152.00,352.50 L151.00,352.50 L150.00,352.50 L149.00,352.50 L148.50,352.00 L148.00,351.50 L147.00,351.50 L146.50,351.00 L146.00,350.50 L145.00,350.50 L144.00,350.50 L143.50,350.00 L143.00,349.50 L142.00,349.50 L141.50,349.00 L141.00,348.50 L140.50,348.00 L140.00,347.50 L139.00,347.50 L138.50,347.00 L138.00,346.50 L137.00,346.50 L136.50,346.00 L136.00,345.50 L135.50,345.00 L135.00,344.50 L134.50,344.00 L134.00,343.50 L133.50,343.00 L133.00,342.50 L132.50,342.00 L132.00,341.50 L131.50,341.00 L131.00,340.50 L130.50,340.00 L130.00,339.50 L129.50,339.00 L129.50,338.00 L129.00,337.50 L128.50,337.00 L128.00,336.50 L127.50,336.00 L127.50,335.00 L127.00,334.50 L126.50,334.00 L126.50,333.00 L126.50,332.00 L126.00,331.50 L125.50,331.00 L125.50,330.00 L125.50,329.00 L125.50,328.00 L125.00,327.50 L124.50,327.00 L124.50,326.00 L124.50,325.00 L124.50,324.00 L124.50,323.00 L124.50,322.00 L124.50,321.00 L124.50,320.00 L124.50,319.00 L124.50,318.00 L124.50,317.00 L124.50,316.00 L124.50,315.00 L124.50,314.00 L125.00,313.50 L125.50,313.00 L125.50,312.00 L125.50,311.00 L125.50,310.00 L125.50,309.00 L126.00,308.50 L127.00,308.50 L128.00,308.50 L129.00,308.50 L130.00,308.50 L131.00,308.50 L132.00,308.50 L133.00,308.50 L134.00,308.50 L135.00,308.50 L136.00,308.50 L137.00,308.50 L138.00,308.50 L139.00,308.50 L140.00,308.50 L141.00,308.50 L142.00,308.50 L143.00,308.50 L144.00,308.50 L145.00,308.50 L146.00,308.50 L147.00,308.50 L148.00,308.50 L149.00,308.50 L150.00,308.50 L151.00,308.50 L152.00,308.50 L153.00,308.50 L154.00,308.50 L155.00,308.50 L156.00,308.50 L157.00,308.50 L158.00,308.50 L159.00,308.50 L160.00,308.50 L161.00,308.50 L162.00,308.50 L163.00,308.50 L164.00,308.50 L165.00,308.50 L166.00,308.50 L167.00,308.50 L168.00,308.50 L169.00,308.50 L170.00,308.50 L171.00,308.50 L172.00,308.50 L173.00,308.50 L174.00,308.50 L175.00,308.50 L176.00,308.50 L176.50,309.00 L177.00,309.50 L178.00,309.50 L179.00,309.50 L180.00,309.50 L181.00,309.50 L182.00,309.50 L183.00,309.50 L184.00,309.50 L185.00,309.50 L186.00,309.50 L187.00,309.50 L188.00,309.50 L189.00,309.50 L190.00,309.50 L191.00,309.50 L192.00,309.50 L193.00,309.50 L194.00,309.50 L195.00,309.50 L196.00,309.50 L197.00,309.50 L198.00,309.50 L199.00,309.50 L200.00,309.50 L201.00,309.50 L202.00,309.50 L203.00,309.50 L204.00,309.50 L205.00,309.50 L206.00,309.50 L207.00,309.50 L208.00,309.50 L209.00,309.50 L210.00,309.50 L211.00,309.50 L212.00,309.50 L213.00,309.50 L214.00,309.50 L215.00,309.50 L216.00,309.50 L217.00,309.50 L218.00,309.50 L219.00,309.50 L220.00,309.50 L221.00,309.50 L222.00,309.50 L223.00,309.50 L224.00,309.50 L225.00,309.50 L226.00,309.50 L227.00,309.50 L228.00,309.50 L229.00,309.50 L230.00,309.50 L231.00,309.50 L232.00,309.50 L233.00,309.50 L234.00,309.50 L235.00,309.50 L236.00,309.50 L237.00,309.50 L238.00,309.50 L239.00,309.50 L240.00,309.50 L241.00,309.50 L242.00,309.50 L243.00,309.50 L244.00,309.50 L245.00,309.50 L246.00,309.50 L247.00,309.50 L248.00,309.50 L249.00,309.50 L250.00,309.50 L251.00,309.50 L252.00,309.50 L253.00,309.50 L253.50,310.00 L254.00,310.50 L255.00,310.50 L256.00,310.50 L257.00,310.50 L258.00,310.50 L259.00,310.50 L260.00,310.50 L261.00,310.50 L262.00,310.50 L263.00,310.50 L264.00,310.50 L265.00,310.50 L266.00,310.50 L267.00,310.50 L268.00,310.50 L269.00,310.50 L270.00,310.50 L271.00,310.50 L272.00,310.50 L273.00,310.50 L274.00,310.50 L275.00,310.50 L276.00,310.50 L277.00,310.50 L278.00,310.50 L279.00,310.50 L280.00,310.50 L281.00,310.50 L282.00,310.50 L283.00,310.50 L284.00,310.50 L285.00,310.50 L286.00,310.50 L287.00,310.50 L288.00,310.50 L289.00,310.50 L290.00,310.50 L290.50,310.00 L291.00,309.50 L292.00,309.50 L293.00,309.50 L294.00,309.50 L295.00,309.50 L296.00,309.50 L297.00,309.50 L298.00,309.50 L299.00,309.50 L300.00,309.50 L301.00,309.50 L302.00,309.50 L303.00,309.50 L304.00,309.50 L305.00,309.50 L306.00,309.50 L307.00,309.50 L308.00,309.50 L309.00,309.50 L310.00,309.50 L311.00,309.50 L312.00,309.50 L313.00,309.50 L314.00,309.50 L315.00,309.50 L316.00,309.50 L317.00,309.50 L318.00,309.50 L319.00,309.50 L320.00,309.50 L321.00,309.50 L322.00,309.50 L323.00,309.50 L324.00,309.50 L325.00,309.50 L326.00,309.50 L327.00,309.50 L328.00,309.50 L329.00,309.50 L329.50,309.00 L330.00,308.50 L331.00,308.50 L332.00,308.50 L333.00,308.50 L334.00,308.50 L335.00,308.50 L336.00,308.50 L337.00,308.50 L338.00,308.50 L339.00,308.50 L340.00,308.50 L341.00,308.50 L342.00,308.50 L343.00,308.50 L344.00,308.50 L345.00,308.50 L346.00,308.50 L347.00,308.50 L348.00,308.50 L348.50,308.00 L349.00,307.50 L350.00,307.50 L351.00,307.50 L352.00,307.50 L353.00,307.50 L354.00,307.50 L355.00,307.50 L356.00,307.50 L357.00,307.50 L358.00,307.50 L359.00,307.50 L360.00,307.50 L360.50,307.00 L361.00,306.50 L362.00,306.50 L363.00,306.50 L364.00,306.50 L365.00,306.50 L366.00,306.50 L367.00,306.50 L367.50,306.00 L368.00,305.50 L369.00,305.50 L370.00,305.50 L371.00,305.50 L372.00,305.50 L372.50,305.00 L373.00,304.50 L374.00,304.50 L375.00,304.50 L376.00,304.50 L377.00,304.50 L377.50,304.00 L378.00,303.50 L379.00,303.50 L380.00,303.50 L381.00,303.50 L382.00,303.50 L382.50,303.00 L383.00,302.50 L384.00,302.50 L385.00,302.50 L386.00,302.50 L386.50,302.00 L387.00,301.50 L388.00,301.50 L389.00,301.50 L389.50,301.00 L390.00,300.50 L391.00,300.50 L392.00,300.50 L393.00,300.50 L393.50,300.00 L394.00,299.50 L395.00,299.50 L396.00,299.50 L396.50,299.00 L397.00,298.50 L398.00,298.50 L399.00,298.50 L399.50,298.00 L400.00,297.50 L401.00,297.50 L402.00,297.50 L402.50,297.00 L403.00,296.50 L404.00,296.50 L405.00,296.50 L405.50,296.00 L406.00,295.50 L407.00,295.50 L407.50,295.00 L408.00,294.50 L409.00,294.50 L410.00,294.50 L410.50,294.00 L411.00,293.50 L412.00,293.50 L413.00,293.50 L413.50,293.00 L414.00,292.50 L415.00,292.50 L415.50,292.00 L416.00,291.50 L417.00,291.50 L417.50,291.00 L418.00,290.50 L419.00,290.50 L419.50,290.00 L420.00,289.50 L421.00,289.50 L422.00,289.50 L422.50,289.00 L423.00,288.50 L424.00,288.50 L424.50,288.00 L425.00,287.50 L426.00,287.50 L426.50,287.00 L427.00,286.50 L428.00,286.50 L428.50,286.00 L429.00,285.50 L430.00,285.50 L430.50,285.00 L431.00,284.50 L432.00,284.50 L432.50,284.00 L433.00,283.50 L433.50,283.00 L434.00,282.50 L435.00,282.50 L435.50,282.00 L436.00,281.50 L437.00,281.50 L437.50,281.00 L438.00,280.50 L439.00,280.50 L439.50,280.00 L440.00,279.50 L441.00,279.50 L441.50,279.00 L442.00,278.50 L442.50,278.00 L443.00,277.50 L444.00,277.50 L444.50,277.00 L445.00,276.50 L445.50,276.00 L446.00,275.50 L447.00,275.50 L447.50,275.00 L448.00,274.50 L448.50,274.00 L449.00,273.50 L450.00,273.50 L450.50,273.00 L451.00,272.50 L451.50,272.00 L452.00,271.50 L453.00,271.50 L453.50,271.00 L454.00,270.50 L454.50,270.00 L455.00,269.50 L455.50,269.00 L456.00,268.50 L457.00,268.50 L457.50,268.00 L458.00,267.50 L458.50,267.00 L459.00,266.50 L459.50,266.00 L460.00,265.50 L460.50,265.00 L461.00,264.50 L461.50,264.00 L462.00,263.50 L462.50,263.00 L463.00,262.50 L464.00,262.50 L464.50,262.00 L465.00,261.50 L465.50,261.00 L466.00,260.50 L466.50,260.00 L467.00,259.50 L467.50,259.00 L468.00,258.50 L468.50,258.00 L469.00,257.50 L469.50,257.00 L470.00,256.50 L470.50,256.00 L471.00,255.50 L471.50,255.00 L472.00,254.50 L472.50,254.00 L472.50,253.00 L473.00,252.50 L473.50,252.00 L474.00,251.50 L474.50,251.00 L475.00,250.50 L475.50,250.00 L476.00,249.50 L476.50,249.00 L477.00,248.50 L477.50,248.00 L477.50,247.00 L478.00,246.50 L478.50,246.00 L479.00,245.50 L479.50,245.00 L480.00,244.50 L480.50,244.00 L481.00,243.50 L481.50,243.00 L481.50,242.00 L482.00,241.50 L482.50,241.00 L483.00,240.50 L483.50,240.00 L483.50,239.00 L484.00,238.50 L484.50,238.00 L485.00,237.50 L485.50,237.00 L485.50,236.00 L486.00,235.50 L486.50,235.00 L487.00,234.50 L487.50,234.00 L488.00,233.50 L488.50,233.00 L488.50,232.00 L489.00,231.50 L489.50,231.00 L489.50,230.00 L490.00,229.50 L490.50,229.00 L491.00,228.50 L491.50,228.00 L491.50,227.00 L492.00,226.50 L492.50,226.00 L492.50,225.00 L493.00,224.50 L493.50,224.00 L494.00,223.50 L494.50,223.00 L494.50,222.00 L495.00,221.50 L495.50,221.00 L495.50,220.00 L496.00,219.50 L496.50,219.00 L496.50,218.00 L497.00,217.50 L497.50,217.00 L497.50,216.00 L498.00,215.50 L498.50,215.00 L498.50,214.00 L499.00,213.50 L499.50,213.00 L499.50,212.00 L499.50,211.00 L500.00,210.50 L500.50,210.00 L500.50,209.00 L500.50,208.00 L501.00,207.50 L501.50,207.00 L501.50,206.00 L502.00,205.50 L502.50,205.00 L502.50,204.00 L502.50,203.00 L502.50,202.00 L503.00,201.50 L503.50,201.00 L503.50,200.00 L503.50,199.00 L503.50,198.00 L504.00,197.50 L504.50,197.00 L504.50,196.00 L504.50,195.00 L504.50,194.00 L504.50,193.00 L505.00,192.50 L505.50,192.00 L505.50,191.00 L505.50,190.00 L505.50,189.00 L505.50,188.00 L505.50,187.00 L505.50,186.00 L505.50,185.00 L505.50,184.00 L505.50,183.00 L505.50,182.00 L505.00,181.50 L504.50,181.00 L504.50,180.00 L504.50,179.00 L504.50,178.00 L504.00,177.50 L503.50,177.00 L503.50,176.00 L503.50,175.00 L503.50,174.00 L503.00,173.50 L502.50,173.00 L502.50,172.00 L502.00,171.50 L501.50,171.00 L501.50,170.00 L501.00,169.50 L500.50,169.00 L500.50,168.00 L500.00,167.50 L499.50,167.00 L499.00,166.50 L498.50,166.00 L498.50,165.00 L498.00,164.50 L497.50,164.00 L497.00,163.50 L496.50,163.00 L496.00,162.50 L495.50,162.00 L495.00,161.50 L494.50,161.00 L494.00,160.50 L493.50,160.00 L493.00,159.50 L492.50,159.00 L492.00,158.50 L491.50,158.00 L491.00,157.50 L490.50,157.00 L490.00,156.50 L489.50,156.00 L489.00,155.50 L488.00,155.50 L487.50,155.00 L487.00,154.50 L486.00,154.50 L485.50,154.00 L485.00,153.50 L484.50,153.00 L484.00,152.50 L483.00,152.50 L482.50,152.00 L482.00,151.50 L481.00,151.50 L480.50,151.00 L480.00,150.50 L479.00,150.50 L478.50,150.00 L478.00,149.50 L477.00,149.50 L476.50,149.00 L476.00,148.50 L475.00,148.50 L474.00,148.50 L473.50,148.00 L473.00,147.50 L472.00,147.50 L471.50,147.00 L471.00,146.50 L470.00,146.50 L469.00,146.50 L468.50,146.00 L468.00,145.50 L467.00,145.50 L466.00,145.50 L465.00,145.50 L464.50,145.00 L464.00,144.50 L463.00,144.50 L462.00,144.50 L461.00,144.50 L460.50,144.00 L460.00,143.50 L459.00,143.50 L458.00,143.50 L457.00,143.50 L456.00,143.50 L455.50,143.00 L455.00,142.50 L454.00,142.50 L453.00,142.50 L452.00,142.50 L451.00,142.50 L450.50,142.00 L450.00,141.50 L449.00,141.50 L448.00,141.50 L447.00,141.50 L446.00,141.50 L445.00,141.50 L444.00,141.50 L443.00,141.50 L442.50,141.00 L442.00,140.50 L441.00,140.50 L440.00,140.50 L439.00,140.50 L438.00,140.50 L437.00,140.50 L436.00,140.50 L435.00,140.50 L434.50,140.00 L434.00,139.50 L433.00,139.50 L432.00,139.50 L431.00,139.50 L430.00,139.50 L429.00,139.50 L428.00,139.50 L427.00,139.50 L426.00,139.50 L425.00,139.50 L424.00,139.50 L423.00,139.50 L422.00,139.50 L421.00,139.50 L420.00,139.50 L419.00,139.50 L418.00,139.50 L417.00,139.50 L416.00,139.50 L415.50,139.00 L415.00,138.50 L414.00,138.50 L413.00,138.50 L412.00,138.50 L411.00,138.50 L410.00,138.50 L409.00,138.50 L408.00,138.50 L407.00,138.50 L406.00,138.50 L405.00,138.50 L404.00,138.50 L403.00,138.50 L402.00,138.50 L401.00,138.50 L400.00,138.50 L399.00,138.50 L398.00,138.50 L397.00,138.50 L396.00,138.50 L395.00,138.50 L394.00,138.50 L393.00,138.50 L392.00,138.50 L391.00,138.50 L390.00,138.50 L389.00,138.50 L388.00,138.50 L387.00,138.50 L386.00,138.50 L385.00,138.50 L384.00,138.50 L383.00,138.50 L382.00,138.50 L381.00,138.50 L380.00,138.50 L379.00,138.50 L378.00,138.50 L377.00,138.50 L376.00,138.50 L375.00,138.50 L374.00,138.50 L373.00,138.50 L372.00,138.50 L371.00,138.50 L370.00,138.50 L369.00,138.50 L368.00,138.50 L367.00,138.50 L366.00,138.50 L365.00,138.50 L364.00,138.50 L363.00,138.50 L362.00,138.50 L361.00,138.50 L360.00,138.50 L359.00,138.50 L358.00,138.50 L357.00,138.50 L356.00,138.50 L355.00,138.50 L354.00,138.50 L353.00,138.50 L352.00,138.50 L351.00,138.50 L350.00,138.50 L349.00,138.50 L348.00,138.50 L347.00,138.50 L346.00,138.50 L345.00,138.50 L344.00,138.50 L343.50,138.00 L343.00,137.50 L342.00,137.50 L341.00,137.50 L340.00,137.50 L339.00,137.50 L338.00,137.50 L337.00,137.50 L336.00,137.50 L335.00,137.50 L334.00,137.50 L333.00,137.50 L332.00,137.50 L331.00,137.50 L330.00,137.50 L329.00,137.50 L328.00,137.50 L327.00,137.50 L326.00,137.50 L325.00,137.50 L324.00,137.50 L323.00,137.50 L322.00,137.50 L321.00,137.50 L320.00,137.50 L319.00,137.50 L318.00,137.50 L317.00,137.50 L316.00,137.50 L315.00,137.50 L314.00,137.50 L313.00,137.50 L312.00,137.50 L311.00,137.50 L310.00,137.50 L309.00,137.50 L308.00,137.50 L307.00,137.50 L306.00,137.50 L305.00,137.50 L304.00,137.50 L303.00,137.50 L302.00,137.50 L301.00,137.50 L300.00,137.50 L299.00,137.50 L298.00,137.50 L297.00,137.50 L296.00,137.50 L295.00,137.50 L294.00,137.50 L293.00,137.50 L292.00,137.50 L291.00,137.50 L290.00,137.50 L289.00,137.50 L288.00,137.50 L287.00,137.50 L286.00,137.50 L285.00,137.50 L284.00,137.50 L283.00,137.50 L282.00,137.50 L281.00,137.50 L280.00,137.50 L279.00,137.50 L278.00,137.50 L277.00,137.50 L276.00,137.50 L275.00,137.50 L274.00,137.50 L273.00,137.50 L272.50,138.00 L272.00,138.50 L271.50,139.00 L271.50,140.00 L271.00,140.50 L270.50,141.00 L270.50,142.00 L270.00,142.50 L269.50,143.00 L269.00,143.50 L268.50,144.00 L268.50,145.00 L268.00,145.50 L267.50,146.00 L267.50,147.00 L267.00,147.50 L266.50,148.00 L266.00,148.50 L265.50,149.00 L265.50,150.00 L265.00,150.50 L264.50,151.00 L264.50,152.00 L264.00,152.50 L263.50,153.00 L263.00,153.50 L262.50,154.00 L262.50,155.00 L262.00,155.50 L261.50,156.00 L261.50,157.00 L261.00,157.50 L260.50,158.00 L260.00,158.50 L259.50,159.00 L259.50,160.00 L259.00,160.50 L258.50,161.00 L258.50,162.00 L258.00,162.50 L257.50,163.00 L257.00,163.50 L256.50,164.00 L256.50,165.00 L256.00,165.50 L255.50,166.00 L255.50,167.00 L255.00,167.50 L254.50,168.00 L254.50,169.00 L254.00,169.50 L253.50,170.00 L253.00,170.50 L252.50,171.00 L252.50,172.00 L252.00,172.50 L251.50,173.00 L251.50,174.00 L251.00,174.50 L250.50,175.00 L250.00,175.50 L249.50,176.00 L249.50,177.00 L249.00,177.50 L248.50,178.00 L248.50,179.00 L248.00,179.50 L247.50,180.00 L247.00,180.50 L246.50,181.00 L246.50,182.00 L246.00,182.50 L245.50,183.00 L245.50,184.00 L245.00,184.50 L244.50,185.00 L244.00,185.50 L243.50,186.00 L243.50,187.00 L243.00,187.50 L242.50,188.00 L242.50,189.00 L242.00,189.50 L241.50,190.00 L241.00,190.50 L240.50,191.00 L240.50,192.00 L240.00,192.50 L239.50,193.00 L239.50,194.00 L239.00,194.50 L238.50,195.00 L238.50,196.00 L238.00,196.50 L237.50,197.00 L237.00,197.50 L236.50,198.00 L236.50,199.00 L236.00,199.50 L235.50,200.00 L235.50,201.00 L235.00,201.50 L234.50,202.00 L234.00,202.50 L233.50,203.00 L233.50,204.00 L233.00,204.50 L232.50,205.00 L232.50,206.00 L232.00,206.50 L231.50,207.00 L231.00,207.50 L230.50,208.00 L230.50,209.00 L230.00,209.50 L229.50,210.00 L229.50,211.00 L229.00,211.50 L228.50,212.00 L228.00,212.50 L227.50,213.00 L227.50,214.00 L227.00,214.50 L226.50,215.00 L226.50,216.00 L226.00,216.50 L225.50,217.00 L225.00,217.50 L224.50,218.00 L224.50,219.00 L225.00,219.50 L226.00,219.50 L227.00,219.50 L228.00,219.50 L229.00,219.50 L230.00,219.50 L231.00,219.50 L232.00,219.50 L233.00,219.50 L234.00,219.50 L235.00,219.50 L236.00,219.50 L237.00,219.50 L238.00,219.50 L239.00,219.50 L240.00,219.50 L241.00,219.50 L242.00,219.50 L243.00,219.50 L244.00,219.50 L245.00,219.50 L246.00,219.50 L247.00,219.50 L248.00,219.50 L249.00,219.50 L250.00,219.50 L251.00,219.50 L252.00,219.50 L253.00,219.50 L254.00,219.50 L255.00,219.50 L256.00,219.50 L257.00,219.50 L258.00,219.50 L259.00,219.50 L260.00,219.50 L261.00,219.50 L262.00,219.50 L263.00,219.50 L264.00,219.50 L265.00,219.50 L266.00,219.50 L267.00,219.50 L268.00,219.50 L269.00,219.50 L270.00,219.50 L270.50,220.00 L271.00,220.50 L272.00,220.50 L273.00,220.50 L274.00,220.50 L275.00,220.50 L276.00,220.50 L277.00,220.50 L278.00,220.50 L279.00,220.50 L280.00,220.50 L281.00,220.50 L282.00,220.50 L283.00,220.50 L284.00,220.50 L285.00,220.50 L286.00,220.50 L287.00,220.50 L288.00,220.50 L289.00,220.50 L290.00,220.50 L291.00,220.50 L292.00,220.50 L293.00,220.50 L294.00,220.50 L295.00,220.50 L296.00,220.50 L297.00,220.50 L298.00,220.50 L299.00,220.50 L300.00,220.50 L301.00,220.50 L302.00,220.50 L303.00,220.50 L304.00,220.50 L305.00,220.50 L306.00,220.50 L307.00,220.50 L308.00,220.50 L309.00,220.50 L310.00,220.50 L311.00,220.50 L312.00,220.50 L313.00,220.50 L314.00,220.50 L315.00,220.50 L315.50,220.00 L315.50,219.00 L316.00,218.50 L316.50,218.00 L316.50,217.00 L317.00,216.50 L317.50,216.00 L318.00,215.50 L318.50,215.00 L318.50,214.00 L319.00,213.50 L319.50,213.00 L319.50,212.00 L320.00,211.50 L320.50,211.00 L320.50,210.00 L321.00,209.50 L321.50,209.00 L322.00,208.50 L322.50,208.00 L322.50,207.00 L323.00,206.50 L323.50,206.00 L323.50,205.00 L324.00,204.50 L324.50,204.00 L325.00,203.50 L325.50,203.00 L325.50,202.00 L326.00,201.50 L326.50,201.00 L326.50,200.00 L327.00,199.50 L327.50,199.00 L328.00,198.50 L328.50,198.00 L328.50,197.00 L329.00,196.50 L329.50,196.00 L329.50,195.00 L330.00,194.50 L330.50,194.00 L331.00,193.50 L331.50,193.00 L331.50,192.00 L332.00,191.50 L332.50,191.00 L332.50,190.00 L333.00,189.50 L333.50,189.00 L334.00,188.50 L334.50,188.00 L334.50,187.00 L335.00,186.50 L335.50,186.00 L335.50,185.00 L336.00,184.50 L336.50,184.00 L336.50,183.00 L337.00,182.50 L337.50,182.00 L338.00,181.50 L338.50,181.00 L338.50,180.00 L339.00,179.50 L339.50,179.00 L339.50,178.00 L340.00,177.50 L341.00,177.50 L342.00,177.50 L343.00,177.50 L344.00,177.50 L345.00,177.50 L346.00,177.50 L347.00,177.50 L348.00,177.50 L349.00,177.50 L350.00,177.50 L351.00,177.50 L352.00,177.50 L353.00,177.50 L354.00,177.50 L355.00,177.50 L356.00,177.50 L357.00,177.50 L358.00,177.50 L359.00,177.50 L360.00,177.50 L361.00,177.50 L362.00,177.50 L363.00,177.50 L364.00,177.50 L365.00,177.50 L366.00,177.50 L367.00,177.50 L368.00,177.50 L369.00,177.50 L370.00,177.50 L371.00,177.50 L372.00,177.50 L373.00,177.50 L374.00,177.50 L375.00,177.50 L375.50,178.00 L376.00,178.50 L377.00,178.50 L378.00,178.50 L379.00,178.50 L380.00,178.50 L381.00,178.50 L382.00,178.50 L383.00,178.50 L384.00,178.50 L384.50,179.00 L385.00,179.50 L386.00,179.50 L387.00,179.50 L388.00,179.50 L389.00,179.50 L390.00,179.50 L390.50,180.00 L391.00,180.50 L392.00,180.50 L393.00,180.50 L394.00,180.50 L394.50,181.00 L395.00,181.50 L396.00,181.50 L397.00,181.50 L397.50,182.00 L398.00,182.50 L399.00,182.50 L400.00,182.50 L400.50,183.00 L401.00,183.50 L402.00,183.50 L402.50,184.00 L403.00,184.50 L403.50,185.00 L404.00,185.50 L405.00,185.50 L405.50,186.00 L406.00,186.50 L406.50,187.00 L407.00,187.50 L407.50,188.00 L408.00,188.50 L408.50,189.00 L409.00,189.50 L409.50,190.00 L409.50,191.00 L410.00,191.50 L410.50,192.00 L410.50,193.00 L410.50,194.00 L410.50,195.00 L411.00,195.50 L411.50,196.00 L411.50,197.00 L411.50,198.00 L411.50,199.00 L411.50,200.00 L411.00,200.50 L410.50,201.00 L410.50,202.00 L410.50,203.00 L410.50,204.00 L410.50,205.00 L410.00,205.50 L409.50,206.00 L409.50,207.00 L409.50,208.00 L409.00,208.50 L408.50,209.00 L408.50,210.00 L408.50,211.00 L408.00,211.50 L407.50,212.00 L407.50,213.00 L407.00,213.50 L406.50,214.00 L406.50,215.00 L406.50,216.00 L406.00,216.50 L405.50,217.00 L405.50,218.00 L405.00,218.50 L404.50,219.00 L405.00,219.50 L405.50,220.00 L406.00,220.50 L406.50,221.00 L407.00,221.50 L408.00,221.50 L408.50,222.00 L409.00,222.50 L409.50,223.00 L410.00,223.50 L410.50,224.00 L411.00,224.50 L411.50,225.00 L412.00,225.50 L412.50,226.00 L413.00,226.50 L413.50,227.00 L414.00,227.50 L414.50,228.00 L415.00,228.50 L415.50,229.00 L416.00,229.50 L416.50,230.00 L417.00,230.50 L418.00,230.50 L418.50,231.00 L418.00,231.50 L417.50,232.00 L417.00,232.50 L416.00,232.50 L415.50,233.00 L415.00,233.50 L414.00,233.50 L413.50,234.00 L413.00,234.50 L412.00,234.50 L411.00,234.50 L410.50,235.00 L410.00,235.50 L409.00,235.50 L408.50,236.00 L408.00,236.50 L407.00,236.50 L406.50,237.00 L406.00,237.50 L405.00,237.50 L404.00,237.50 L403.50,238.00 L403.00,238.50 L402.00,238.50 L401.50,239.00 L401.00,239.50 L400.00,239.50 L399.50,240.00 L399.00,240.50 L398.00,240.50 L397.00,240.50 L396.50,241.00 L396.00,241.50 L395.00,241.50 L394.50,242.00 L394.00,242.50 L393.00,242.50 L392.50,243.00 L392.00,243.50 L391.00,243.50 L390.50,244.00 L390.00,244.50 L389.00,244.50 L388.00,244.50 L387.50,245.00 L387.00,245.50 L386.50,246.00 L386.00,246.50 L385.50,247.00 L385.00,247.50 L384.50,248.00 L384.00,248.50 L383.50,249.00 L383.00,249.50 L382.50,250.00 L382.00,250.50 L381.50,251.00 L381.00,251.50 L380.50,252.00 L380.00,252.50 L379.50,253.00 L379.00,253.50 L378.50,254.00 L378.00,254.50 L377.00,254.50 L376.50,255.00 L376.00,255.50 L375.50,256.00 L375.00,256.50 L374.50,257.00 L374.00,257.50 L373.00,257.50 L372.50,258.00 L372.00,258.50 L371.50,259.00 L371.00,259.50 L370.00,259.50 L369.50,260.00 L369.00,260.50 L368.00,260.50 L367.50,261.00 L367.00,261.50 L366.00,261.50 L365.50,262.00 L365.00,262.50 L364.00,262.50 L363.50,263.00 L363.00,263.50 L362.00,263.50 L361.50,264.00 L361.00,264.50 L360.00,264.50 L359.50,265.00 L359.00,265.50 L358.00,265.50 L357.00,265.50 L356.50,266.00 L356.00,266.50 L355.00,266.50 L354.00,266.50 L353.50,267.00 L353.00,267.50 L352.00,267.50 L351.00,267.50 L350.50,268.00 L350.00,268.50 L349.00,268.50 L348.00,268.50 L347.00,268.50 L346.00,268.50 L345.00,268.50 L344.00,268.50 L343.50,269.00 L343.00,269.50 L342.00,269.50 L341.00,269.50 L340.00,269.50 L339.00,269.50 L338.00,269.50 L337.00,269.50 L336.00,269.50 L335.00,269.50 L334.00,269.50 L333.00,269.50 L332.00,269.50 L331.00,269.50 L330.00,269.50 L329.00,269.50 L328.00,269.50 L327.00,269.50 L326.00,269.50 L325.50,270.00 L325.00,270.50 L324.00,270.50 L323.00,270.50 L322.00,270.50 L321.00,270.50 L320.00,270.50 L319.00,270.50 L318.00,270.50 L317.00,270.50 L316.00,270.50 L315.00,270.50 L314.00,270.50 L313.00,270.50 L312.00,270.50 L311.00,270.50 L310.00,270.50 L309.00,270.50 L308.00,270.50 L307.00,270.50 L306.00,270.50 L305.00,270.50 L304.00,270.50 L303.00,270.50 L302.00,270.50 L301.00,270.50 L300.00,270.50 L299.00,270.50 L298.00,270.50 L297.00,270.50 L296.00,270.50 L295.00,270.50 L294.00,270.50 L293.00,270.50 L292.00,270.50 L291.00,270.50 L290.00,270.50 L289.00,270.50 L288.00,270.50 L287.00,270.50 L286.00,270.50 L285.00,270.50 L284.00,270.50 L283.00,270.50 L282.00,270.50 L281.00,270.50 L280.00,270.50 L279.00,270.50 L278.00,270.50 L277.00,270.50 L276.00,270.50 L275.00,270.50 L274.00,270.50 L273.00,270.50 L272.00,270.50 L271.00,270.50 L270.00,270.50 L269.00,270.50 L268.00,270.50 L267.00,270.50 L266.00,270.50 L265.00,270.50 L264.00,270.50 L263.00,270.50 L262.00,270.50 L261.00,270.50 L260.00,270.50 L259.00,270.50 L258.00,270.50 L257.00,270.50 L256.00,270.50 L255.00,270.50 L254.00,270.50 L253.00,270.50 L252.00,270.50 L251.00,270.50 L250.00,270.50 L249.00,270.50 L248.00,270.50 L247.00,270.50 L246.00,270.50 L245.00,270.50 L244.50,270.00 L244.50,269.00 L245.00,268.50 L245.50,268.00 L245.50,267.00 L246.00,266.50 L246.50,266.00 L246.50,265.00 L247.00,264.50 L247.50,264.00 L248.00,263.50 L248.50,263.00 L248.50,262.00 L249.00,261.50 L249.50,261.00 L249.50,260.00 L250.00,259.50 L250.50,259.00 L251.00,258.50 L251.50,258.00 L251.50,257.00 L252.00,256.50 L252.50,256.00 L252.50,255.00 L253.00,254.50 L253.50,254.00 L254.00,253.50 L254.50,253.00 L254.50,252.00 L255.00,251.50 L255.50,251.00 L255.50,250.00 L256.00,249.50 L256.50,249.00 L257.00,248.50 L257.50,248.00 L257.50,247.00 L258.00,246.50 L258.50,246.00 L258.50,245.00 L259.00,244.50 L259.50,244.00 L259.50,243.00 L260.00,242.50 L260.50,242.00 L261.00,241.50 L261.50,241.00 L261.50,240.00 L262.00,239.50 L262.50,239.00 L262.00,238.50 L261.00,238.50 L260.00,238.50 L259.00,238.50 L258.00,238.50 L257.00,238.50 L256.00,238.50 L255.00,238.50 L254.00,238.50 L253.00,238.50 L252.00,238.50 L251.00,238.50 L250.00,238.50 L249.00,238.50 L248.00,238.50 L247.00,238.50 L246.00,238.50 L245.00,238.50 L244.00,238.50 L243.00,238.50 L242.00,238.50 L241.00,238.50 L240.00,238.50 L239.00,238.50 L238.00,238.50 L237.00,238.50 L236.00,238.50 L235.00,238.50 L234.00,238.50 L233.00,238.50 L232.00,238.50 L231.00,238.50 L230.00,238.50 L229.00,238.50 L228.00,238.50 L227.00,238.50 L226.00,238.50 L225.00,238.50 L224.00,238.50 L223.00,238.50 L222.00,238.50 L221.00,238.50 L220.00,238.50 L219.00,238.50 L218.00,238.50 L217.00,238.50 L216.50,238.00 L216.00,237.50 L215.00,237.50 L214.00,237.50 L213.00,237.50 L212.00,237.50 L211.00,237.50 L210.00,237.50 L209.00,237.50 L208.00,237.50 L207.00,237.50 L206.00,237.50 L205.00,237.50 L204.00,237.50 L203.00,237.50 L202.00,237.50 L201.00,237.50 L200.00,237.50 L199.00,237.50 L198.00,237.50 L197.00,237.50 L196.00,237.50 L195.00,237.50 L194.00,237.50 L193.00,237.50 L192.00,237.50 L191.00,237.50 L190.00,237.50 L189.00,237.50 L188.00,237.50 L187.00,237.50 L186.00,237.50 L185.50,237.00 L186.00,236.50 L186.50,236.00 L187.00,235.50 L187.50,235.00 L187.50,234.00 L188.00,233.50 L188.50,233.00 L189.00,232.50 L189.50,232.00 L189.50,231.00 L190.00,230.50 L190.50,230.00 L191.00,229.50 L191.50,229.00 L191.50,228.00 L192.00,227.50 L192.50,227.00 L192.50,226.00 L193.00,225.50 L193.50,225.00 L194.00,224.50 L194.50,224.00 L194.50,223.00 L195.00,222.50 L195.50,222.00 L195.50,221.00 L196.00,220.50 L196.50,220.00 L196.50,219.00 L197.00,218.50 L197.50,218.00 L197.50,217.00 L198.00,216.50 L198.50,216.00 L198.50,215.00 L199.00,214.50 L199.50,214.00 L199.50,213.00 L199.50,212.00 L200.00,211.50 L200.50,211.00 L200.50,210.00 L200.50,209.00 L201.00,208.50 L201.50,208.00 L201.50,207.00 L201.50,206.00 L202.00,205.50 L202.50,205.00 L202.50,204.00 L202.50,203.00 L202.50,202.00 L202.50,201.00 L202.50,200.00 L203.00,199.50 L203.50,199.00 L203.50,198.00 L203.50,197.00 L203.50,196.00 L203.50,195.00 L203.50,194.00 L203.50,193.00 L203.50,192.00 L203.50,191.00 L203.50,190.00 L203.50,189.00 L203.50,188.00 L203.50,187.00 L203.00,186.50 L202.50,186.00 L202.50,185.00 L202.50,184.00 L202.50,183.00 L202.50,182.00 L202.00,181.50 L201.50,181.00 L201.50,180.00 L201.50,179.00 L201.50,178.00 L201.00,177.50 L200.50,177.00 L200.50,176.00 L200.50,175.00 L200.00,174.50 L199.50,174.00 L199.50,173.00 L199.00,172.50 L198.50,172.00 L198.50,171.00 L198.00,170.50 L197.50,170.00 L197.50,169.00 L197.00,168.50 L196.50,168.00 L196.50,167.00 L196.00,166.50 L195.50,166.00 L195.50,165.00 L195.00,164.50 L194.50,164.00 L194.50,163.00 L194.00,162.50 L193.50,162.00 L193.00,161.50 L192.50,161.00 L192.50,160.00 L192.00,159.50 L191.50,159.00 L191.00,158.50 L190.50,158.00 L190.50,157.00 L190.00,156.50 L189.50,156.00 L189.00,155.50 L188.50,155.00 L188.50,154.00 L188.00,153.50 L187.50,153.00 L187.00,152.50 L186.50,152.00 L186.50,151.00 L186.00,150.50 L185.50,150.00 L185.00,149.50 L184.50,149.00 L184.50,148.00 L184.00,147.50 L183.50,147.00 L183.00,146.50 L182.50,146.00 L182.50,145.00 L182.00,144.50 L181.50,144.00 L181.00,143.50 L180.50,143.00 L180.50,142.00 L180.00,141.50 L179.50,141.00 L179.00,140.50 L178.50,140.00 L178.50,139.00 L178.00,138.50 L177.50,138.00 L177.00,137.50 L176.50,137.00 L176.50,136.00 L176.00,135.50 L175.50,135.00 L175.00,134.50 L174.50,134.00 L174.50,133.00 L174.00,132.50 L173.50,132.00 L173.00,131.50 L172.50,131.00 L172.50,130.00 L172.00,129.50 L171.50,129.00 L171.00,128.50 L170.50,128.00 L170.50,127.00 L170.00,126.50 L169.50,126.00 L169.50,125.00 L169.00,124.50 L168.50,124.00 L168.00,123.50 L167.50,123.00 L167.50,122.00 L167.00,121.50 L166.50,121.00 L166.50,120.00 L166.00,119.50 L165.50,119.00 L165.50,118.00 L165.00,117.50 L164.50,117.00 L164.50,116.00 L164.00,115.50 L163.50,115.00 L163.50,114.00 L163.00,113.50 L162.50,113.00 L162.00,112.50 L161.50,112.00 L161.50,111.00 L161.50,110.00 L161.00,109.50 L160.50,109.00 L160.50,108.00 L160.00,107.50 L159.50,107.00 L159.50,106.00 L159.50,105.00 L159.00,104.50 L158.50,104.00 L158.50,103.00 L158.50,102.00 L158.50,101.00 L158.00,100.50 L157.50,100.00 L157.50,99.00 L157.50,98.00 L157.50,97.00 L157.50,96.00 L157.50,95.00 L157.50,94.00 L157.50,93.00 L157.50,92.00 L157.50,91.00 L157.50,90.00 L157.50,89.00 L157.50,88.00 L157.50,87.00 L158.00,86.50 L158.50,86.00 L158.50,85.00 L158.50,84.00 L159.00,83.50 L159.50,83.00 L159.50,82.00 L159.50,81.00 L160.00,80.50 L160.50,80.00 L160.50,79.00 L161.00,78.50 L161.50,78.00 L162.00,77.50 L162.50,77.00 L162.50,76.00 L163.00,75.50 L163.50,75.00 L164.00,74.50 L164.50,74.00 L165.00,73.50 L165.50,73.00 L166.00,72.50 L166.50,72.00 L167.00,71.50 L167.50,71.00 L168.00,70.50 L168.50,70.00 L169.00,69.50 L169.50,69.00 L170.00,68.50 L170.50,68.00 L171.00,67.50 L172.00,67.50 L172.50,67.00 L173.00,66.50 L173.50,66.00 L174.00,65.50 L175.00,65.50 L175.50,65.00 L176.00,64.50 L176.50,64.00 L177.00,63.50 L178.00,63.50 L179.00,63.50 L179.50,63.00 L180.00,62.50 L181.00,62.50 L181.50,62.00 L182.00,61.50 L183.00,61.50 L184.00,61.50 L184.50,61.00 L185.00,60.50 L186.00,60.50 L187.00,60.50 L188.00,60.50 L188.50,60.00 L189.00,59.50 L190.00,59.50 L191.00,59.50 L192.00,59.50 L193.00,59.50 L194.00,59.50 L195.00,59.50 L196.00,59.50 L197.00,59.50 L198.00,59.50 L199.00,59.50 L200.00,59.50 L201.00,59.50 L202.00,59.50 L202.50,60.00 L203.00,60.50 L204.00,60.50 L205.00,60.50 L206.00,60.50 L207.00,60.50 L208.00,60.50 L209.00,60.50 L210.00,60.50 L210.50,61.00 L211.00,61.50 L212.00,61.50 L213.00,61.50 L214.00,61.50 L215.00,61.50 L216.00,61.50 L217.00,61.50 L217.50,62.00 L218.00,62.50 L219.00,62.50 L220.00,62.50 L221.00,62.50 L222.00,62.50 L223.00,62.50 L223.50,63.00 L224.00,63.50 L225.00,63.50 L226.00,63.50 L227.00,63.50 L228.00,63.50 L229.00,63.50 L229.50,64.00 L230.00,64.50 L231.00,64.50 L232.00,64.50 L233.00,64.50 L234.00,64.50 L234.50,65.00 L235.00,65.50 L236.00,65.50 L237.00,65.50 L238.00,65.50 L239.00,65.50 L239.50,66.00 L240.00,66.50 L241.00,66.50 L242.00,66.50 L243.00,66.50 L244.00,66.50 L244.50,67.00 L245.00,67.50 L246.00,67.50 L247.00,67.50 L248.00,67.50 L249.00,67.50 L249.50,68.00 L250.00,68.50 L251.00,68.50 L252.00,68.50 L253.00,68.50 L253.50,69.00 L254.00,69.50 L255.00,69.50 L256.00,69.50 L257.00,69.50 L258.00,69.50 L258.50,70.00 L259.00,70.50 L260.00,70.50 L261.00,70.50 L262.00,70.50 L262.50,71.00 L263.00,71.50 L264.00,71.50 L265.00,71.50 L266.00,71.50 L267.00,71.50 L267.50,72.00 L268.00,72.50 L269.00,72.50 L270.00,72.50 L271.00,72.50 L271.50,73.00 L272.00,73.50 L273.00,73.50 L274.00,73.50 L275.00,73.50 L275.50,74.00 L276.00,74.50 L277.00,74.50 L278.00,74.50 L279.00,74.50 L279.50,75.00 L280.00,75.50 L281.00,75.50 L282.00,75.50 L283.00,75.50 L283.50,76.00 L284.00,76.50 L285.00,76.50 L286.00,76.50 L287.00,76.50 L287.50,77.00 L288.00,77.50 L289.00,77.50 L290.00,77.50 L291.00,77.50 L291.50,78.00 L292.00,78.50 L293.00,78.50 L294.00,78.50 L295.00,78.50 L295.50,79.00 L296.00,79.50 L297.00,79.50 L298.00,79.50 L299.00,79.50 L299.50,80.00 L300.00,80.50 L301.00,80.50 L302.00,80.50 L303.00,80.50 L303.50,81.00 L304.00,81.50 L305.00,81.50 L306.00,81.50 L307.00,81.50 L307.50,82.00 L308.00,82.50 L309.00,82.50 L310.00,82.50 L310.50,83.00 L311.00,83.50 L312.00,83.50 L313.00,83.50 L314.00,83.50 L314.50,84.00 L315.00,84.50 L316.00,84.50 L317.00,84.50 L317.50,85.00 L318.00,85.50 L319.00,85.50 L320.00,85.50 L321.00,85.50 L321.50,86.00 L322.00,86.50 L323.00,86.50 L324.00,86.50 L324.50,87.00 L325.00,87.50 L326.00,87.50 L327.00,87.50 L328.00,87.50 L328.50,88.00 L329.00,88.50 L330.00,88.50 L331.00,88.50 L332.00,88.50 L332.50,89.00 L333.00,89.50 L334.00,89.50 L335.00,89.50 L335.50,90.00 L336.00,90.50 L337.00,90.50 L338.00,90.50 L338.50,91.00 L339.00,91.50 L340.00,91.50 L341.00,91.50 L341.50,92.00 L342.00,92.50 L343.00,92.50 L344.00,92.50 L345.00,92.50 L345.50,93.00 L346.00,93.50 L347.00,93.50 L348.00,93.50 L348.50,94.00 L349.00,94.50 L350.00,94.50 L351.00,94.50 L351.50,95.00 L352.00,95.50 L353.00,95.50 L354.00,95.50 L355.00,95.50 L355.50,96.00 L356.00,96.50 L357.00,96.50 L358.00,96.50 L358.50,97.00 L359.00,97.50 L360.00,97.50 L361.00,97.50 L361.50,98.00 L362.00,98.50 L363.00,98.50 L364.00,98.50 L364.50,99.00 L365.00,99.50 L366.00,99.50 L367.00,99.50 L367.50,100.00 L368.00,100.50 L369.00,100.50 L370.00,100.50 L370.50,101.00 L371.00,101.50 L372.00,101.50 L373.00,101.50 L373.50,102.00 L374.00,102.50 L375.00,102.50 L376.00,102.50 L376.50,103.00 L377.00,103.50 L378.00,103.50 L379.00,103.50 L379.50,104.00 L380.00,104.50 L381.00,104.50 L382.00,104.50 L382.50,105.00 L383.00,105.50 L384.00,105.50 L385.00,105.50 L385.50,106.00 L386.00,106.50 L387.00,106.50 L388.00,106.50 L388.50,107.00 L389.00,107.50 L390.00,107.50 L391.00,107.50 L391.50,108.00 L392.00,108.50 L393.00,108.50 L394.00,108.50 L394.50,109.00 L395.00,109.50 L396.00,109.50 L397.00,109.50 L397.50,110.00 L398.00,110.50 L399.00,110.50 L399.50,111.00 L400.00,111.50 L401.00,111.50 L402.00,111.50 L402.50,112.00 L403.00,112.50 L404.00,112.50 L405.00,112.50 L405.50,113.00 L406.00,113.50 L407.00,113.50 L408.00,113.50 L408.50,114.00 L409.00,114.50 L410.00,114.50 L411.00,114.50 L411.50,115.00 L412.00,115.50 L413.00,115.50 L413.50,116.00 L414.00,116.50 L415.00,116.50 L416.00,116.50 L416.50,117.00 L417.00,117.50 L418.00,117.50 L419.00,117.50 L419.50,118.00 L420.00,118.50 L421.00,118.50 L421.50,119.00 L422.00,119.50 L423.00,119.50 L424.00,119.50 L424.50,120.00 L425.00,120.50 L426.00,120.50 L426.50,121.00 L427.00,121.50 L428.00,121.50 L429.00,121.50 L429.50,122.00 L430.00,122.50 L431.00,122.50 L432.00,122.50 L432.50,123.00 L433.00,123.50 L434.00,123.50 L434.50,124.00 L435.00,124.50 L436.00,124.50 L437.00,124.50 L437.50,125.00 L438.00,125.50 L439.00,125.50 L439.50,126.00 L440.00,126.50 L441.00,126.50 L441.50,127.00 L442.00,127.50 L443.00,127.50 L444.00,127.50 L444.50,128.00 L445.00,128.50 L446.00,128.50 L446.50,129.00 L447.00,129.50 L448.00,129.50 L449.00,129.50 L449.50,130.00 L450.00,130.50 L451.00,130.50 L451.50,131.00 L452.00,131.50 L453.00,131.50 L453.50,132.00 L454.00,132.50 L455.00,132.50 L456.00,132.50 L456.50,133.00 L457.00,133.50 L458.00,133.50 L458.50,134.00 L459.00,134.50 L460.00,134.50 L461.00,134.50 L461.50,135.00 L462.00,135.50 L463.00,135.50 L463.50,136.00 L464.00,136.50 L465.00,136.50 L465.50,137.00 L466.00,137.50 L467.00,137.50 L467.50,138.00 L468.00,138.50 L469.00,138.50 L469.50,139.00 L470.00,139.50 L471.00,139.50 L471.50,140.00 L472.00,140.50 L473.00,140.50 L474.00,140.50 L474.50,141.00 L475.00,141.50 L476.00,141.50 L476.50,142.00 L477.00,142.50 L478.00,142.50 L478.50,143.00 L479.00,143.50 L480.00,143.50 L480.50,144.00 L481.00,144.50 L482.00,144.50 L482.50,145.00 L483.00,145.50 L484.00,145.50 L484.50,146.00 L485.00,146.50 L486.00,146.50 L487.00,146.50 L487.50,147.00 L488.00,147.50 L489.00,147.50 L489.50,148.00 L490.00,148.50 L490.50,149.00 L491.00,149.50 L492.00,149.50 L492.50,150.00 L493.00,150.50 L494.00,150.50 L494.50,151.00 L495.00,151.50 L496.00,151.50 L496.50,152.00 L497.00,152.50 L498.00,152.50 L498.50,153.00 L499.00,153.50 L500.00,153.50 L500.50,154.00 L501.00,154.50 L502.00,154.50 L502.50,155.00 L503.00,155.50 L504.00,155.50 L504.50,156.00 L505.00,156.50 L506.00,156.50 L506.50,157.00 L507.00,157.50 L508.00,157.50 L508.50,158.00 L509.00,158.50 L510.00,158.50 L510.50,159.00 L511.00,159.50 L512.00,159.50 L512.50,160.00 L513.00,160.50 L513.50,161.00 L514.00,161.50 L515.00,161.50 L515.50,162.00 L516.00,162.50 L517.00,162.50 L517.50,163.00 L518.00,163.50 L519.00,163.50 L519.50,164.00 L520.00,164.50 L520.50,165.00 L521.00,165.50 L522.00,165.50 L522.50,166.00 L523.00,166.50 L524.00,166.50 L524.50,167.00 L525.00,167.50 L526.00,167.50 L526.50,168.00 L527.00,168.50 L527.50,169.00 L528.00,169.50 L529.00,169.50 L529.50,170.00 L530.00,170.50 L530.50,171.00 L531.00,171.50 L532.00,171.50 L532.50,172.00 L533.00,172.50 L534.00,172.50 L534.50,173.00 L535.00,173.50 L535.50,174.00 L536.00,174.50 L537.00,174.50 L537.50,175.00 L538.00,175.50 L538.50,176.00 L539.00,176.50 L540.00,176.50 L540.50,177.00 L541.00,177.50 L541.50,178.00 L542.00,178.50 L543.00,178.50 L543.50,179.00 L544.00,179.50 L544.50,180.00 L545.00,180.50 L546.00,180.50 L546.50,181.00 L547.00,181.50 L547.50,182.00 L548.00,182.50 L548.50,183.00 L549.00,183.50 L549.50,184.00 L550.00,184.50 L550.50,185.00 L551.00,185.50 L552.00,185.50 L552.50,186.00 L553.00,186.50 L553.50,187.00 L554.00,187.50 L554.50,188.00 L555.00,188.50 L555.50,189.00 L556.00,189.50 L556.50,190.00 L557.00,190.50 L557.50,191.00 L558.00,191.50 L558.50,192.00 L558.50,193.00 L559.00,193.50 L559.50,194.00 L560.00,194.50 L560.50,195.00 L561.00,195.50 L561.50,196.00 L562.00,196.50 L562.50,197.00 L562.50,198.00 L563.00,198.50 L563.50,199.00 L564.00,199.50 L564.50,200.00 L564.50,201.00 L565.00,201.50 L565.50,202.00 L566.00,202.50 L566.50,203.00 L566.50,204.00 L567.00,204.50 L567.50,205.00 L567.50,206.00 L568.00,206.50 L568.50,207.00 L568.50,208.00 L569.00,208.50 L569.50,209.00 L569.50,210.00 L569.50,211.00 L570.00,211.50 L570.50,212.00 L570.50,213.00 L570.50,214.00 L571.00,214.50 L571.50,215.00 L571.50,216.00 L571.50,217.00 L571.50,218.00 L572.00,218.50 L572.50,219.00 L572.50,220.00 L572.50,221.00 L572.50,222.00 L572.50,223.00 L572.50,224.00 L572.50,225.00 L573.00,225.50 L573.50,226.00 L573.50,227.00 L573.50,228.00 L573.50,229.00 L573.50,230.00 L573.50,231.00 L573.00,231.50 L572.50,232.00 L572.50,233.00 L572.50,234.00 L572.50,235.00 L572.50,236.00 L572.50,237.00 L572.50,238.00 L572.00,238.50 L571.50,239.00 L571.50,240.00 L571.50,241.00 L571.50,242.00 L571.00,242.50 L570.50,243.00 L570.50,244.00 L570.50,245.00 L570.00,245.50 L569.50,246.00 L569.50,247.00 L569.50,248.00 L569.00,248.50 L568.50,249.00 L568.50,250.00 L568.00,250.50 L567.50,251.00 L567.50,252.00 L567.00,252.50 L566.50,253.00 L566.00,253.50 L565.50,254.00 L565.50,255.00 L565.00,255.50 L564.50,256.00 L564.50,257.00 L564.00,257.50 L563.50,258.00 L563.00,258.50 L562.50,259.00 L562.00,259.50 L561.50,260.00 L561.50,261.00 L561.00,261.50 L560.50,262.00 L560.00,262.50 L559.50,263.00 L559.00,263.50 L558.50,264.00 L558.00,264.50 L557.50,265.00 L557.00,265.50 L556.50,266.00 L556.00,266.50 L555.50,267.00 L555.00,267.50 L554.50,268.00 L554.00,268.50 L553.50,269.00 L553.00,269.50 L552.00,269.50 L551.50,270.00 L551.00,270.50 L550.50,271.00 L550.00,271.50 L549.50,272.00 L549.00,272.50 L548.50,273.00 L548.00,273.50 L547.00,273.50 L546.50,274.00 L546.00,274.50 L545.00,274.50 L544.50,275.00 L544.00,275.50 L543.50,276.00 L543.00,276.50 L542.00,276.50 L541.50,277.00 L541.00,277.50 L540.00,277.50 L539.50,278.00 L539.00,278.50 L538.00,278.50 L537.50,279.00 L537.00,279.50 L536.00,279.50 L535.50,280.00 L535.00,280.50 L534.00,280.50 L533.50,281.00 L533.00,281.50 L532.00,281.50 L531.50,282.00 L531.00,282.50 L530.00,282.50 L529.50,283.00 L529.00,283.50 L528.00,283.50 L527.50,284.00 L527.00,284.50 L526.00,284.50 L525.00,284.50 L524.50,285.00 L524.00,285.50 L523.00,285.50 L522.50,286.00 L522.00,286.50 L521.00,286.50 L520.00,286.50 L519.50,287.00 L519.00,287.50 L518.00,287.50 L517.50,288.00 L517.00,288.50 L516.00,288.50 L515.50,289.00 L515.00,289.50 L514.00,289.50 L513.00,289.50 L512.50,290.00 L512.00,290.50 L511.00,290.50 L510.50,291.00 L510.00,291.50 L509.00,291.50 L508.00,291.50 L507.50,292.00 L507.00,292.50 L506.00,292.50 L505.00,292.50 L504.50,293.00 L504.00,293.50 L503.00,293.50 L502.00,293.50 L501.50,294.00 L501.00,294.50 L500.00,294.50 L499.50,295.00 L499.00,295.50 L498.00,295.50 L497.00,295.50 L496.50,296.00 L496.00,296.50 L495.00,296.50 L494.00,296.50 L493.50,297.00 L493.00,297.50 L492.00,297.50 L491.00,297.50 L490.50,298.00 L490.00,298.50 L489.00,298.50 L488.00,298.50 L487.50,299.00 L487.00,299.50 L486.00,299.50 L485.00,299.50 L484.50,300.00 L484.00,300.50 L483.00,300.50 L482.00,300.50 L481.50,301.00 L481.00,301.50 L480.00,301.50 L479.00,301.50 L478.50,302.00 L478.00,302.50 L477.00,302.50 L476.00,302.50 L475.50,303.00 L475.00,303.50 L474.00,303.50 L473.00,303.50 L472.00,303.50 L471.50,304.00 L471.00,304.50 L470.00,304.50 L469.00,304.50 L468.50,305.00 L468.00,305.50 L467.00,305.50 L466.00,305.50 L465.50,306.00 L465.00,306.50 L464.00,306.50 L463.00,306.50 L462.00,306.50 L461.50,307.00 L461.00,307.50 L460.00,307.50 L459.00,307.50 L458.50,308.00 L458.00,308.50 L457.00,308.50 L456.00,308.50 L455.00,308.50 L454.50,309.00 L454.00,309.50 L453.00,309.50 L452.00,309.50 L451.50,310.00 L451.00,310.50 L450.00,310.50 L449.00,310.50 L448.00,310.50 L447.50,311.00 L447.00,311.50 L446.00,311.50 L445.00,311.50 L444.00,311.50 L443.50,312.00 L443.00,312.50 L442.00,312.50 L441.00,312.50 L440.50,313.00 L440.00,313.50 L439.00,313.50 L438.00,313.50 L437.00,313.50 L436.50,314.00 L436.00,314.50 L435.00,314.50 L434.00,314.50 L433.00,314.50 L432.50,315.00 L432.00,315.50 L431.00,315.50 L430.00,315.50 L429.00,315.50 L428.50,316.00 L428.00,316.50 L427.00,316.50 L426.00,316.50 L425.00,316.50 L424.50,317.00 L424.00,317.50 L423.00,317.50 L422.00,317.50 L421.00,317.50 L420.50,318.00 L420.00,318.50 L419.00,318.50 L418.00,318.50 L417.00,318.50 L416.50,319.00 L416.00,319.50 L415.00,319.50 L414.00,319.50 L413.00,319.50 L412.50,320.00 L412.00,320.50 L411.00,320.50 L410.00,320.50 L409.00,320.50 L408.50,321.00 L408.00,321.50 L407.00,321.50 L406.00,321.50 L405.00,321.50 L404.50,322.00 L404.00,322.50 L403.00,322.50 L402.00,322.50 L401.00,322.50 L400.00,322.50 L399.50,323.00 L399.00,323.50 L398.00,323.50 L397.00,323.50 L396.00,323.50 L395.50,324.00 L395.00,324.50 L394.00,324.50 L393.00,324.50 L392.00,324.50 L391.00,324.50 L390.50,325.00 L390.00,325.50 L389.00,325.50 L388.00,325.50 L387.00,325.50 L386.50,326.00 L386.00,326.50 L385.00,326.50 L384.00,326.50 L383.00,326.50 L382.00,326.50 L381.50,327.00 L381.00,327.50 L380.00,327.50 L379.00,327.50 L378.00,327.50 L377.00,327.50 L376.50,328.00 L376.00,328.50 L375.00,328.50 L374.00,328.50 L373.00,328.50 L372.50,329.00 L372.00,329.50 L371.00,329.50 L370.00,329.50 L369.00,329.50 L368.00,329.50 L367.50,330.00 L367.00,330.50 L366.00,330.50 L365.00,330.50 L364.00,330.50 L363.00,330.50 L362.50,331.00 L362.00,331.50 L361.00,331.50 L360.00,331.50 L359.00,331.50 L358.00,331.50 L357.50,332.00 L357.00,332.50 L356.00,332.50 L355.00,332.50 L354.00,332.50 L353.00,332.50 L352.50,333.00 L352.00,333.50 L351.00,333.50 L350.00,333.50 L349.00,333.50 L348.00,333.50 L347.50,334.00 L347.00,334.50 L346.00,334.50 L345.00,334.50 L344.00,334.50 L343.00,334.50 L342.00,334.50 L341.50,335.00 L341.00,335.50 L340.00,335.50 L339.00,335.50 L338.00,335.50 L337.00,335.50 L336.50,336.00 L336.00,336.50 L335.00,336.50 L334.00,336.50 L333.00,336.50 L332.00,336.50 L331.50,337.00 L331.00,337.50 L330.00,337.50 L329.00,337.50 L328.00,337.50 L327.00,337.50 L326.00,337.50 L325.50,338.00 L325.00,338.50 L324.00,338.50 L323.00,338.50 L322.00,338.50 L321.00,338.50 L320.00,338.50 L319.50,339.00 L319.00,339.50 L318.00,339.50 L317.00,339.50 L316.00,339.50 L315.00,339.50 L314.00,339.50 L313.50,340.00 L313.00,340.50 L312.00,340.50 L311.00,340.50 L310.00,340.50 L309.00,340.50 L308.00,340.50 L307.50,341.00 L307.00,341.50 L306.00,341.50 L305.00,341.50 L304.00,341.50 L303.00,341.50 L302.00,341.50 L301.50,342.00 L301.00,342.50 L300.00,342.50 L299.00,342.50 L298.00,342.50 L297.00,342.50 L296.50,343.00 L296.00,343.50 L295.00,343.50 L294.00,343.50 L293.00,343.50 L292.00,343.50 L291.00,343.50 L290.00,343.50 L289.50,344.00 L289.00,344.50 L288.00,344.50 L287.00,344.50 L286.00,344.50 L285.00,344.50 L284.00,344.50 L283.00,344.50 L282.50,345.00 L282.00,345.50 L281.00,345.50 L280.00,345.50 L279.00,345.50 L278.00,345.50 L277.00,345.50 L276.00,345.50 L275.50,346.00 L275.00,346.50 L274.00,346.50 L273.00,346.50 L272.00,346.50 L271.00,346.50 L270.00,346.50 L269.00,346.50 L268.50,347.00 L268.00,347.50 L267.00,347.50 L266.00,347.50 L265.00,347.50 L264.00,347.50 L263.00,347.50 L262.00,347.50 L261.50,348.00 L261.00,348.50 L260.00,348.50 L259.00,348.50 L258.00,348.50 L257.00,348.50 L256.00,348.50 L255.00,348.50 L254.50,349.00 L254.00,349.50 L253.00,349.50 L252.00,349.50 L251.00,349.50 L250.00,349.50 L249.00,349.50 L248.00,349.50 L247.50,350.00 L247.00,350.50 L246.00,350.50 L245.00,350.50 L244.00,350.50 L243.00,350.50 L242.00,350.50 L241.00,350.50 L240.00,350.50 L239.00,350.50 L238.50,351.00 L238.00,351.50 L237.00,351.50 L236.00,351.50 L235.00,351.50 L234.00,351.50 L233.00,351.50 L232.00,351.50 L231.00,351.50 L230.50,352.00 L230.00,352.50 L229.00,352.50 L228.00,352.50 L227.00,352.50 L226.00,352.50 L225.00,352.50 L224.00,352.50 L223.00,352.50 L222.00,352.50 L221.50,353.00 L221.00,353.50 L220.00,353.50 L219.00,353.50 L218.00,353.50 L217.00,353.50 L216.00,353.50 L215.00,353.50 L214.00,353.50 L213.00,353.50 L212.00,353.50 L211.50,354.00 L211.00,354.50 L210.00,354.50 L209.00,354.50 L208.00,354.50 L207.00,354.50 L206.00,354.50 L205.00,354.50 L204.00,354.50 L203.00,354.50 L202.00,354.50 L201.00,354.50 L200.50,355.00 L200.00,355.50 L199.00,355.50 L198.00,355.50 L197.00,355.50 L196.00,355.50 L195.00,355.50 L194.00,355.50 L193.00,355.50 L192.00,355.50 L191.00,355.50 L190.00,355.50 L189.00,355.50 L188.00,355.50 L187.00,355.50 L186.00,355.50 L185.00,355.50 L184.00,355.50 L183.00,355.50 L182.00,355.50 L181.00,355.50 L180.00,355.50 L179.00,355.50 L178.00,355.50 L177.50,356.00 L177.00,356.50 Z" fill="#ffffff" fill-rule="evenodd"/>
</svg>