<?xml version="1.0" encoding="UTF-8"?>
<svg xmlns="http://www.w3.org/2000/svg" xmlns:xlink="http://www.w3.org/1999/xlink" viewBox="290 0 380 380">
<path fill-rule="evenodd" fill="#FF5E14" fill-opacity="1" d="M 709.246094 384.589844 C 702.527344 384.589844 697.949219 382.679688 695.511719 378.859375 C 693.078125 375.039062 692.800781 369.554688 694.683594 362.417969 C 694.683594 362.417969 696.011719 357.375 696.011719 357.375 C 696.011719 357.375 709.117188 357.375 709.117188 357.375 C 709.117188 357.375 707.519531 363.425781 707.519531 363.425781 C 706.015625 369.136719 707.65625 371.992188 712.441406 371.992188 C 714.796875 371.992188 716.761719 371.300781 718.347656 369.914062 C 719.929688 368.527344 721.132812 366.28125 721.949219 363.171875 C 722.925781 359.476562 722.945312 356.222656 722.003906 353.40625 C 721.066406 350.59375 718.851562 347.210938 715.355469 343.265625 C 710.972656 338.222656 708.183594 333.667969 706.992188 329.59375 C 705.796875 325.519531 705.878906 320.921875 707.226562 315.796875 C 709.066406 308.824219 712.253906 303.429688 716.789062 299.605469 C 721.324219 295.785156 726.953125 293.875 733.671875 293.875 C 740.308594 293.875 744.824219 295.785156 747.21875 299.605469 C 749.613281 303.429688 749.867188 308.910156 747.984375 316.050781 C 747.984375 316.050781 747.019531 319.703125 747.019531 319.703125 C 747.019531 319.703125 733.917969 319.703125 733.917969 319.703125 C 733.917969 319.703125 735.113281 315.167969 735.113281 315.167969 C 735.910156 312.144531 735.90625 309.9375 735.09375 308.554688 C 734.285156 307.167969 732.742188 306.472656 730.476562 306.472656 C 725.855469 306.472656 722.804688 309.289062 721.320312 314.914062 C 720.480469 318.105469 720.554688 321.089844 721.542969 323.859375 C 722.535156 326.632812 724.777344 329.992188 728.273438 333.941406 C 732.738281 338.980469 735.523438 343.558594 736.621094 347.675781 C 737.71875 351.789062 737.539062 356.621094 736.078125 362.164062 C 734.171875 369.386719 730.925781 374.933594 726.335938 378.796875 C 721.746094 382.660156 716.050781 384.589844 709.246094 384.589844 "/>
<path fill-rule="evenodd" fill="#FF5E14" fill-opacity="1" d="M 761.691406 295.132812 C 761.691406 295.132812 782.101562 295.132812 782.101562 295.132812 C 788.988281 295.132812 793.667969 296.980469 796.136719 300.675781 C 798.605469 304.371094 798.898438 309.792969 797.019531 316.929688 C 797.019531 316.929688 794.722656 325.625 794.722656 325.625 C 792.84375 332.765625 789.691406 338.183594 785.273438 341.878906 C 780.855469 345.574219 775.199219 347.421875 768.3125 347.421875 C 768.3125 347.421875 761.761719 347.421875 761.761719 347.421875 C 761.761719 347.421875 752.292969 383.332031 752.292969 383.332031 C 752.292969 383.332031 738.433594 383.332031 738.433594 383.332031 C 738.433594 383.332031 761.691406 295.132812 761.691406 295.132812 Z M 771.636719 334.824219 C 773.902344 334.824219 775.769531 334.191406 777.238281 332.933594 C 778.703125 331.671875 779.835938 329.53125 780.632812 326.507812 C 780.632812 326.507812 783.390625 316.050781 783.390625 316.050781 C 784.1875 313.023438 784.1875 310.882812 783.382812 309.625 C 782.582031 308.363281 781.046875 307.734375 778.777344 307.734375 C 778.777344 307.734375 772.226562 307.734375 772.226562 307.734375 C 772.226562 307.734375 765.085938 334.824219 765.085938 334.824219 C 765.085938 334.824219 771.636719 334.824219 771.636719 334.824219 "/>
<path fill-rule="evenodd" fill="#FF5E14" fill-opacity="1" d="M 806.769531 384.589844 C 799.964844 384.589844 795.265625 382.660156 792.671875 378.796875 C 790.082031 374.933594 789.714844 369.472656 791.574219 362.417969 C 791.574219 362.417969 803.800781 316.050781 803.800781 316.050781 C 805.664062 308.992188 808.90625 303.53125 813.539062 299.667969 C 818.167969 295.804688 823.886719 293.875 830.691406 293.875 C 837.496094 293.875 842.191406 295.804688 844.785156 299.667969 C 847.378906 303.53125 847.746094 308.992188 845.886719 316.050781 C 845.886719 316.050781 833.65625 362.417969 833.65625 362.417969 C 831.796875 369.472656 828.550781 374.933594 823.921875 378.796875 C 819.289062 382.660156 813.574219 384.589844 806.769531 384.589844 Z M 810.089844 371.992188 C 814.878906 371.992188 818.039062 369.09375 819.566406 363.296875 C 819.566406 363.296875 832.257812 315.167969 832.257812 315.167969 C 833.785156 309.371094 832.15625 306.472656 827.367188 306.472656 C 822.578125 306.472656 819.421875 309.371094 817.894531 315.167969 C 817.894531 315.167969 805.203125 363.296875 805.203125 363.296875 C 803.675781 369.09375 805.304688 371.992188 810.089844 371.992188 "/>
<path fill-rule="evenodd" fill="#FF5E14" fill-opacity="1" d="M 860.722656 295.132812 C 860.722656 295.132812 881.261719 295.132812 881.261719 295.132812 C 888.402344 295.132812 893.171875 296.792969 895.574219 300.109375 C 897.972656 303.429688 898.265625 308.53125 896.449219 315.417969 C 896.449219 315.417969 895.023438 320.835938 895.023438 320.835938 C 892.605469 329.992188 888.054688 335.789062 881.363281 338.222656 C 881.363281 338.222656 881.296875 338.476562 881.296875 338.476562 C 884.394531 339.484375 886.222656 341.542969 886.789062 344.652344 C 887.355469 347.757812 886.953125 351.917969 885.578125 357.125 C 885.578125 357.125 881.492188 372.621094 881.492188 372.621094 C 880.828125 375.140625 880.375 377.179688 880.132812 378.734375 C 879.890625 380.285156 879.90625 381.820312 880.179688 383.332031 C 880.179688 383.332031 866.066406 383.332031 866.066406 383.332031 C 865.941406 381.902344 865.957031 380.558594 866.125 379.300781 C 866.289062 378.039062 866.800781 375.773438 867.664062 372.496094 C 867.664062 372.496094 871.917969 356.367188 871.917969 356.367188 C 872.980469 352.335938 873.074219 349.523438 872.191406 347.925781 C 871.308594 346.328125 869.273438 345.53125 866.082031 345.53125 C 866.082031 345.53125 861.292969 345.53125 861.292969 345.53125 C 861.292969 345.53125 851.328125 383.332031 851.328125 383.332031 C 851.328125 383.332031 837.464844 383.332031 837.464844 383.332031 C 837.464844 383.332031 860.722656 295.132812 860.722656 295.132812 Z M 869.65625 332.933594 C 872.429688 332.933594 874.695312 332.21875 876.457031 330.789062 C 878.21875 329.363281 879.542969 326.96875 880.429688 323.609375 C 880.429688 323.609375 882.226562 316.804688 882.226562 316.804688 C 883.066406 313.613281 883.109375 311.304688 882.351562 309.875 C 881.59375 308.445312 879.996094 307.734375 877.5625 307.734375 C 877.5625 307.734375 871.261719 307.734375 871.261719 307.734375 C 871.261719 307.734375 864.617188 332.933594 864.617188 332.933594 C 864.617188 332.933594 869.65625 332.933594 869.65625 332.933594 "/>
<path fill-rule="evenodd" fill="#FF5E14" fill-opacity="1" d="M 918.761719 307.734375 C 918.761719 307.734375 904.273438 307.734375 904.273438 307.734375 C 904.273438 307.734375 907.59375 295.132812 907.59375 295.132812 C 907.59375 295.132812 950.433594 295.132812 950.433594 295.132812 C 950.433594 295.132812 947.113281 307.734375 947.113281 307.734375 C 947.113281 307.734375 932.621094 307.734375 932.621094 307.734375 C 932.621094 307.734375 912.6875 383.332031 912.6875 383.332031 C 912.6875 383.332031 898.828125 383.332031 898.828125 383.332031 C 898.828125 383.332031 918.761719 307.734375 918.761719 307.734375 "/>
<path fill-rule="evenodd" fill="#FF5E14" fill-opacity="1" d="M 190.3125 315.507812 C 190.3125 315.507812 183.222656 338.046875 183.222656 338.046875 C 183.222656 338.046875 136.59375 338.046875 136.59375 338.046875 C 136.59375 338.046875 150.035156 295.332031 150.035156 295.332031 C 150.035156 295.332031 219.398438 295.332031 219.398438 295.332031 C 233.074219 295.332031 243.777344 296.429688 251.503906 298.617188 C 259.234375 300.808594 265.203125 303.953125 269.410156 308.046875 C 273.617188 312.140625 276.105469 316.90625 276.867188 322.339844 C 277.632812 327.773438 277.058594 333.53125 275.144531 339.617188 C 272.144531 349.144531 267.980469 356.535156 262.65625 361.785156 C 257.328125 367.035156 250.839844 371.4375 243.195312 374.984375 C 235.550781 378.53125 227.796875 380.894531 219.941406 382.070312 C 209.191406 383.691406 178.46875 384.503906 170.15625 384.503906 C 170.15625 384.503906 100.789062 384.503906 100.789062 384.503906 C 100.789062 384.503906 112.378906 347.675781 112.378906 347.675781 C 112.378906 347.675781 159.007812 347.675781 159.007812 347.675781 C 159.007812 347.675781 153.804688 364.203125 153.804688 364.203125 C 153.804688 364.203125 165.277344 364.203125 165.277344 364.203125 C 175.0625 364.203125 203.40625 363.566406 207.941406 362.289062 C 212.476562 361.011719 216.414062 358.785156 219.757812 355.601562 C 221.230469 354.203125 222.59375 352.421875 223.851562 350.257812 C 223.851562 350.257812 238.117188 343.03125 238.117188 343.03125 C 238.117188 343.03125 229.125 336.582031 229.125 336.582031 C 230.898438 329.050781 229.988281 323.765625 226.390625 320.738281 C 222.25 317.25 214.117188 315.507812 201.992188 315.507812 C 201.992188 315.507812 190.3125 315.507812 190.3125 315.507812 "/>
<path fill-rule="evenodd" fill="#FF5E14" fill-opacity="1" d="M 268.523438 382.773438 C 268.523438 382.773438 299.589844 297.734375 299.589844 297.734375 C 299.589844 297.734375 299.761719 297.273438 299.761719 297.273438 C 299.761719 297.273438 300.25 297.273438 300.25 297.273438 C 300.25 297.273438 323.402344 297.273438 323.402344 297.273438 C 323.402344 297.273438 324.40625 297.273438 324.40625 297.273438 C 324.40625 297.273438 324.058594 298.214844 324.058594 298.214844 C 324.058594 298.214844 293.011719 383.246094 293.011719 383.246094 C 293.011719 383.246094 292.84375 383.710938 292.84375 383.710938 C 292.84375 383.710938 292.355469 383.710938 292.355469 383.710938 C 292.355469 383.710938 269.183594 383.710938 269.183594 383.710938 C 269.183594 383.710938 268.179688 383.710938 268.179688 383.710938 C 268.179688 383.710938 268.523438 382.773438 268.523438 382.773438 "/>
<path fill-rule="evenodd" fill="#FF5E14" fill-opacity="1" d="M 324.492188 353.34375 C 325.855469 355.222656 327.230469 356.847656 328.609375 358.207031 C 329.980469 359.558594 331.355469 360.65625 332.746094 361.5 C 332.746094 361.5 332.746094 361.496094 332.746094 361.496094 C 334.128906 362.328125 335.589844 362.957031 337.105469 363.371094 C 338.617188 363.78125 340.210938 363.992188 341.878906 363.992188 C 343.242188 363.992188 344.496094 363.824219 345.640625 363.5 C 346.777344 363.175781 347.8125 362.6875 348.746094 362.039062 C 349.671875 361.386719 350.417969 360.636719 350.984375 359.796875 C 351.546875 358.957031 351.941406 358.011719 352.15625 356.964844 C 352.429688 355.632812 351.953125 354.210938 350.722656 352.710938 C 349.40625 351.109375 347.25 349.425781 344.253906 347.675781 C 344.253906 347.675781 344.25 347.675781 344.25 347.675781 C 344.25 347.675781 344.011719 347.53125 344.011719 347.53125 C 343.53125 347.246094 343.152344 347.023438 342.886719 346.882812 C 342.886719 346.882812 342.859375 346.867188 342.859375 346.867188 C 339.828125 345.105469 337.320312 343.367188 335.339844 341.664062 C 333.332031 339.9375 331.851562 338.230469 330.90625 336.554688 C 329.949219 334.863281 329.355469 332.988281 329.128906 330.9375 C 328.90625 328.910156 329.039062 326.707031 329.53125 324.335938 C 330.414062 320.054688 331.945312 316.15625 334.117188 312.648438 C 336.285156 309.140625 339.101562 306.019531 342.554688 303.292969 C 342.554688 303.292969 342.554688 303.289062 342.554688 303.289062 C 346 300.578125 349.734375 298.535156 353.742188 297.175781 C 357.746094 295.8125 362.023438 295.132812 366.5625 295.132812 C 368.960938 295.132812 371.277344 295.347656 373.507812 295.769531 C 375.738281 296.195312 377.882812 296.835938 379.933594 297.683594 C 381.972656 298.53125 383.917969 299.59375 385.753906 300.847656 C 387.59375 302.109375 389.335938 303.574219 390.964844 305.234375 C 390.964844 305.234375 391.398438 305.675781 391.398438 305.675781 C 391.398438 305.675781 391.015625 306.160156 391.015625 306.160156 C 391.015625 306.160156 377.820312 322.910156 377.820312 322.910156 C 377.820312 322.910156 377.324219 323.542969 377.324219 323.542969 C 377.324219 323.542969 376.765625 322.960938 376.765625 322.960938 C 375.535156 321.675781 374.328125 320.554688 373.160156 319.605469 C 372 318.660156 370.867188 317.878906 369.765625 317.261719 C 368.683594 316.652344 367.621094 316.195312 366.582031 315.894531 C 365.558594 315.597656 364.546875 315.445312 363.546875 315.445312 C 362.460938 315.445312 361.429688 315.605469 360.46875 315.914062 C 359.496094 316.222656 358.582031 316.691406 357.734375 317.3125 C 356.894531 317.925781 356.214844 318.609375 355.703125 319.359375 C 355.203125 320.09375 354.859375 320.90625 354.675781 321.78125 C 354.675781 321.78125 354.675781 321.785156 354.675781 321.785156 C 354.476562 322.753906 354.886719 323.824219 355.90625 324.992188 C 357.019531 326.265625 358.847656 327.628906 361.378906 329.082031 C 362.359375 329.648438 363.171875 330.125 363.816406 330.515625 C 364.511719 330.9375 365.117188 331.320312 365.628906 331.65625 C 365.628906 331.65625 365.628906 331.652344 365.628906 331.652344 C 368.308594 333.320312 370.535156 335.011719 372.296875 336.730469 C 374.078125 338.460938 375.394531 340.226562 376.238281 342.019531 C 377.078125 343.816406 377.574219 345.832031 377.71875 348.058594 C 377.863281 350.257812 377.660156 352.679688 377.117188 355.320312 C 376.160156 359.960938 374.488281 364.140625 372.109375 367.847656 C 369.738281 371.542969 366.652344 374.78125 362.859375 377.546875 C 359.082031 380.320312 354.867188 382.398438 350.230469 383.78125 C 345.59375 385.160156 340.523438 385.851562 335.03125 385.851562 C 332.140625 385.851562 329.394531 385.542969 326.804688 384.921875 C 326.804688 384.921875 326.804688 384.925781 326.804688 384.925781 C 324.207031 384.308594 321.769531 383.375 319.488281 382.140625 C 317.207031 380.902344 315.109375 379.359375 313.203125 377.519531 C 311.292969 375.679688 309.570312 373.542969 308.042969 371.113281 C 308.042969 371.113281 307.761719 370.664062 307.761719 370.664062 C 307.761719 370.664062 308.113281 370.273438 308.113281 370.273438 C 308.113281 370.273438 323.402344 353.285156 323.402344 353.285156 C 323.402344 353.285156 323.980469 352.640625 323.980469 352.640625 C 323.980469 352.640625 324.492188 353.34375 324.492188 353.34375 "/>
<path fill-rule="evenodd" fill="#FF5E14" fill-opacity="1" d="M 377.21875 382.773438 C 377.21875 382.773438 408.324219 297.734375 408.324219 297.734375 C 408.324219 297.734375 408.496094 297.273438 408.496094 297.273438 C 408.496094 297.273438 408.984375 297.273438 408.984375 297.273438 C 408.984375 297.273438 432.332031 297.273438 432.332031 297.273438 C 435.554688 297.273438 438.390625 297.339844 440.828125 297.472656 C 443.265625 297.605469 445.285156 297.808594 446.875 298.078125 C 448.488281 298.34375 449.976562 298.699219 451.320312 299.144531 C 452.691406 299.597656 453.941406 300.148438 455.050781 300.796875 C 455.050781 300.796875 455.050781 300.800781 455.050781 300.800781 C 457.054688 301.933594 458.742188 303.292969 460.101562 304.863281 C 461.472656 306.441406 462.511719 308.234375 463.214844 310.230469 C 463.921875 312.214844 464.308594 314.394531 464.371094 316.765625 C 464.4375 319.113281 464.183594 321.652344 463.621094 324.378906 C 463.0625 327.085938 462.226562 329.699219 461.121094 332.203125 C 460.019531 334.695312 458.640625 337.097656 456.988281 339.390625 C 455.339844 341.703125 453.535156 343.746094 451.578125 345.519531 C 449.613281 347.304688 447.484375 348.824219 445.214844 350.066406 C 445.214844 350.066406 445.210938 350.066406 445.210938 350.066406 C 443.867188 350.800781 442.433594 351.429688 440.921875 351.945312 C 440.921875 351.945312 440.921875 351.949219 440.921875 351.949219 C 439.414062 352.460938 437.808594 352.878906 436.109375 353.191406 C 436.109375 353.191406 436.105469 353.191406 436.105469 353.191406 C 434.421875 353.496094 432.308594 353.722656 429.773438 353.875 C 427.222656 354.023438 424.253906 354.097656 420.871094 354.097656 C 420.871094 354.097656 417.382812 354.097656 417.382812 354.097656 C 417.382812 354.097656 411.824219 354.097656 411.824219 354.097656 C 411.824219 354.097656 401.113281 383.253906 401.113281 383.253906 C 401.113281 383.253906 400.945312 383.710938 400.945312 383.710938 C 400.945312 383.710938 400.453125 383.710938 400.453125 383.710938 C 400.453125 383.710938 377.875 383.710938 377.875 383.710938 C 377.875 383.710938 376.875 383.710938 376.875 383.710938 C 376.875 383.710938 377.21875 382.773438 377.21875 382.773438 Z M 418.933594 334.617188 C 418.933594 334.617188 420.070312 334.617188 420.070312 334.617188 C 423.714844 334.617188 426.804688 334.425781 429.332031 334.046875 C 431.820312 333.671875 433.765625 333.117188 435.148438 332.382812 C 436.503906 331.664062 437.613281 330.691406 438.460938 329.472656 C 439.328125 328.234375 439.941406 326.730469 440.304688 324.96875 C 440.605469 323.515625 440.613281 322.261719 440.324219 321.226562 C 440.050781 320.234375 439.496094 319.421875 438.664062 318.792969 C 438.664062 318.792969 438.664062 318.796875 438.664062 318.796875 C 437.773438 318.132812 436.539062 317.625 434.964844 317.285156 C 433.347656 316.933594 431.375 316.753906 429.050781 316.753906 C 429.050781 316.753906 425.476562 316.753906 425.476562 316.753906 C 425.476562 316.753906 418.933594 334.617188 418.933594 334.617188 "/>
<path fill-rule="evenodd" fill="#FF5E14" fill-opacity="1" d="M 610.460938 382.773438 C 610.460938 382.773438 624.214844 345.054688 624.214844 345.054688 C 624.214844 345.054688 610.09375 298.175781 610.09375 298.175781 C 610.09375 298.175781 609.824219 297.273438 609.824219 297.273438 C 609.824219 297.273438 610.769531 297.273438 610.769531 297.273438 C 610.769531 297.273438 636.078125 297.273438 636.078125 297.273438 C 636.078125 297.273438 636.644531 297.273438 636.644531 297.273438 C 636.644531 297.273438 636.765625 297.824219 636.765625 297.824219 C 636.765625 297.824219 641.550781 319.550781 641.550781 319.550781 C 641.550781 319.550781 641.546875 319.550781 641.546875 319.550781 C 641.695312 320.144531 641.832031 320.746094 641.953125 321.359375 C 641.953125 321.359375 641.953125 321.363281 641.953125 321.363281 C 642.070312 321.976562 642.195312 322.65625 642.3125 323.394531 C 642.425781 324.105469 642.535156 324.839844 642.636719 325.578125 C 642.636719 325.578125 642.691406 325.988281 642.691406 325.988281 C 642.691406 325.988281 643.566406 324.628906 643.566406 324.628906 C 644.234375 323.601562 644.835938 322.699219 645.347656 321.945312 C 645.347656 321.945312 645.347656 321.941406 645.347656 321.941406 C 645.8125 321.265625 646.222656 320.691406 646.570312 320.222656 C 646.941406 319.722656 647.269531 319.316406 647.539062 319.003906 C 647.539062 319.003906 647.550781 318.992188 647.550781 318.992188 C 647.550781 318.992188 667.078125 297.503906 667.078125 297.503906 C 667.078125 297.503906 667.289062 297.273438 667.289062 297.273438 C 667.289062 297.273438 667.597656 297.273438 667.597656 297.273438 C 667.597656 297.273438 693.78125 297.273438 693.78125 297.273438 C 693.78125 297.273438 695.441406 297.273438 695.441406 297.273438 C 695.441406 297.273438 694.28125 298.464844 694.28125 298.464844 C 694.28125 298.464844 648.324219 345.691406 648.324219 345.691406 C 648.324219 345.691406 634.652344 383.246094 634.652344 383.246094 C 634.652344 383.246094 634.484375 383.710938 634.484375 383.710938 C 634.484375 383.710938 633.992188 383.710938 633.992188 383.710938 C 633.992188 383.710938 611.117188 383.710938 611.117188 383.710938 C 611.117188 383.710938 610.117188 383.710938 610.117188 383.710938 C 610.117188 383.710938 610.460938 382.773438 610.460938 382.773438 "/>
<path fill-rule="evenodd" fill="#FF5E14" fill-opacity="1" d="M 190.3125 315.507812 C 190.3125 315.507812 183.222656 338.046875 183.222656 338.046875 C 183.222656 338.046875 136.59375 338.046875 136.59375 338.046875 C 136.59375 338.046875 150.035156 295.332031 150.035156 295.332031 C 150.035156 295.332031 219.398438 295.332031 219.398438 295.332031 C 233.074219 295.332031 243.777344 296.429688 251.503906 298.617188 C 259.234375 300.808594 265.203125 303.953125 269.410156 308.046875 C 273.617188 312.140625 276.105469 316.90625 276.867188 322.339844 C 277.632812 327.773438 277.058594 333.53125 275.144531 339.617188 C 272.144531 349.144531 267.980469 356.535156 262.65625 361.785156 C 257.328125 367.035156 250.839844 371.4375 243.195312 374.984375 C 235.550781 378.53125 227.796875 380.894531 219.941406 382.070312 C 209.191406 383.691406 178.46875 384.503906 170.15625 384.503906 C 170.15625 384.503906 100.789062 384.503906 100.789062 384.503906 C 100.789062 384.503906 112.378906 347.675781 112.378906 347.675781 C 112.378906 347.675781 159.007812 347.675781 159.007812 347.675781 C 159.007812 347.675781 153.804688 364.203125 153.804688 364.203125 C 153.804688 364.203125 165.277344 364.203125 165.277344 364.203125 C 175.0625 364.203125 203.40625 363.566406 207.941406 362.289062 C 212.476562 361.011719 216.414062 358.785156 219.757812 355.601562 C 221.230469 354.203125 222.59375 352.421875 223.851562 350.257812 C 223.851562 350.257812 238.117188 343.03125 238.117188 343.03125 C 238.117188 343.03125 229.125 336.582031 229.125 336.582031 C 230.898438 329.050781 229.988281 323.765625 226.390625 320.738281 C 222.25 317.25 214.117188 315.507812 201.992188 315.507812 C 201.992188 315.507812 190.3125 315.507812 190.3125 315.507812 "/>
<path fill-rule="evenodd" fill="#FF5E14" fill-opacity="1" d="M 268.523438 382.773438 C 268.523438 382.773438 299.589844 297.734375 299.589844 297.734375 C 299.589844 297.734375 299.761719 297.273438 299.761719 297.273438 C 299.761719 297.273438 300.25 297.273438 300.25 297.273438 C 300.25 297.273438 323.402344 297.273438 323.402344 297.273438 C 323.402344 297.273438 324.40625 297.273438 324.40625 297.273438 C 324.40625 297.273438 324.058594 298.214844 324.058594 298.214844 C 324.058594 298.214844 293.011719 383.246094 293.011719 383.246094 C 293.011719 383.246094 292.84375 383.710938 292.84375 383.710938 C 292.84375 383.710938 292.355469 383.710938 292.355469 383.710938 C 292.355469 383.710938 269.183594 383.710938 269.183594 383.710938 C 269.183594 383.710938 268.179688 383.710938 268.179688 383.710938 C 268.179688 383.710938 268.523438 382.773438 268.523438 382.773438 "/>
<path fill-rule="evenodd" fill="#FF5E14" fill-opacity="1" d="M 324.492188 353.34375 C 325.855469 355.222656 327.230469 356.847656 328.609375 358.207031 C 329.980469 359.558594 331.355469 360.65625 332.746094 361.5 C 332.746094 361.5 332.746094 361.496094 332.746094 361.496094 C 334.128906 362.328125 335.589844 362.957031 337.105469 363.371094 C 338.617188 363.78125 340.210938 363.992188 341.878906 363.992188 C 343.242188 363.992188 344.496094 363.824219 345.640625 363.5 C 346.777344 363.175781 347.8125 362.6875 348.746094 362.039062 C 349.671875 361.386719 350.417969 360.636719 350.984375 359.796875 C 351.546875 358.957031 351.941406 358.011719 352.15625 356.964844 C 352.429688 355.632812 351.953125 354.210938 350.722656 352.710938 C 349.40625 351.109375 347.25 349.425781 344.253906 347.675781 C 344.253906 347.675781 344.25 347.675781 344.25 347.675781 C 344.25 347.675781 344.011719 347.53125 344.011719 347.53125 C 343.53125 347.246094 343.152344 347.023438 342.886719 346.882812 C 342.886719 346.882812 342.859375 346.867188 342.859375 346.867188 C 339.828125 345.105469 337.320312 343.367188 335.339844 341.664062 C 333.332031 339.9375 331.851562 338.230469 330.90625 336.554688 C 329.949219 334.863281 329.355469 332.988281 329.128906 330.9375 C 328.90625 328.910156 329.039062 326.707031 329.53125 324.335938 C 330.414062 320.054688 331.945312 316.15625 334.117188 312.648438 C 336.285156 309.140625 339.101562 306.019531 342.554688 303.292969 C 342.554688 303.292969 342.554688 303.289062 342.554688 303.289062 C 346 300.578125 349.734375 298.535156 353.742188 297.175781 C 357.746094 295.8125 362.023438 295.132812 366.5625 295.132812 C 368.960938 295.132812 371.277344 295.347656 373.507812 295.769531 C 375.738281 296.195312 377.882812 296.835938 379.933594 297.683594 C 381.972656 298.53125 383.917969 299.59375 385.753906 300.847656 C 387.59375 302.109375 389.335938 303.574219 390.964844 305.234375 C 390.964844 305.234375 391.398438 305.675781 391.398438 305.675781 C 391.398438 305.675781 391.015625 306.160156 391.015625 306.160156 C 391.015625 306.160156 377.820312 322.910156 377.820312 322.910156 C 377.820312 322.910156 377.324219 323.542969 377.324219 323.542969 C 377.324219 323.542969 376.765625 322.960938 376.765625 322.960938 C 375.535156 321.675781 374.328125 320.554688 373.160156 319.605469 C 372 318.660156 370.867188 317.878906 369.765625 317.261719 C 368.683594 316.652344 367.621094 316.195312 366.582031 315.894531 C 365.558594 315.597656 364.546875 315.445312 363.546875 315.445312 C 362.460938 315.445312 361.429688 315.605469 360.46875 315.914062 C 359.496094 316.222656 358.582031 316.691406 357.734375 317.3125 C 356.894531 317.925781 356.214844 318.609375 355.703125 319.359375 C 355.203125 320.09375 354.859375 320.90625 354.675781 321.78125 C 354.675781 321.78125 354.675781 321.785156 354.675781 321.785156 C 354.476562 322.753906 354.886719 323.824219 355.90625 324.992188 C 357.019531 326.265625 358.847656 327.628906 361.378906 329.082031 C 362.359375 329.648438 363.171875 330.125 363.816406 330.515625 C 364.511719 330.9375 365.117188 331.320312 365.628906 331.65625 C 365.628906 331.65625 365.628906 331.652344 365.628906 331.652344 C 368.308594 333.320312 370.535156 335.011719 372.296875 336.730469 C 374.078125 338.460938 375.394531 340.226562 376.238281 342.019531 C 377.078125 343.816406 377.574219 345.832031 377.71875 348.058594 C 377.863281 350.257812 377.660156 352.679688 377.117188 355.320312 C 376.160156 359.960938 374.488281 364.140625 372.109375 367.847656 C 369.738281 371.542969 366.652344 374.78125 362.859375 377.546875 C 359.082031 380.320312 354.867188 382.398438 350.230469 383.78125 C 345.59375 385.160156 340.523438 385.851562 335.03125 385.851562 C 332.140625 385.851562 329.394531 385.542969 326.804688 384.921875 C 326.804688 384.921875 326.804688 384.925781 326.804688 384.925781 C 324.207031 384.308594 321.769531 383.375 319.488281 382.140625 C 317.207031 380.902344 315.109375 379.359375 313.203125 377.519531 C 311.292969 375.679688 309.570312 373.542969 308.042969 371.113281 C 308.042969 371.113281 307.761719 370.664062 307.761719 370.664062 C 307.761719 370.664062 308.113281 370.273438 308.113281 370.273438 C 308.113281 370.273438 323.402344 353.285156 323.402344 353.285156 C 323.402344 353.285156 323.980469 352.640625 323.980469 352.640625 C 323.980469 352.640625 324.492188 353.34375 324.492188 353.34375 "/>
<path fill-rule="evenodd" fill="#FF5E14" fill-opacity="1" d="M 377.21875 382.773438 C 377.21875 382.773438 408.324219 297.734375 408.324219 297.734375 C 408.324219 297.734375 408.496094 297.273438 408.496094 297.273438 C 408.496094 297.273438 408.984375 297.273438 408.984375 297.273438 C 408.984375 297.273438 432.332031 297.273438 432.332031 297.273438 C 435.554688 297.273438 438.390625 297.339844 440.828125 297.472656 C 443.265625 297.605469 445.285156 297.808594 446.875 298.078125 C 448.488281 298.34375 449.976562 298.699219 451.320312 299.144531 C 452.691406 299.597656 453.941406 300.148438 455.050781 300.796875 C 455.050781 300.796875 455.050781 300.800781 455.050781 300.800781 C 457.054688 301.933594 458.742188 303.292969 460.101562 304.863281 C 461.472656 306.441406 462.511719 308.234375 463.214844 310.230469 C 463.921875 312.214844 464.308594 314.394531 464.371094 316.765625 C 464.4375 319.113281 464.183594 321.652344 463.621094 324.378906 C 463.0625 327.085938 462.226562 329.699219 461.121094 332.203125 C 460.019531 334.695312 458.640625 337.097656 456.988281 339.390625 C 455.339844 341.703125 453.535156 343.746094 451.578125 345.519531 C 449.613281 347.304688 447.484375 348.824219 445.214844 350.066406 C 445.214844 350.066406 445.210938 350.066406 445.210938 350.066406 C 443.867188 350.800781 442.433594 351.429688 440.921875 351.945312 C 440.921875 351.945312 440.921875 351.949219 440.921875 351.949219 C 439.414062 352.460938 437.808594 352.878906 436.109375 353.191406 C 436.109375 353.191406 436.105469 353.191406 436.105469 353.191406 C 434.421875 353.496094 432.308594 353.722656 429.773438 353.875 C 427.222656 354.023438 424.253906 354.097656 420.871094 354.097656 C 420.871094 354.097656 417.382812 354.097656 417.382812 354.097656 C 417.382812 354.097656 411.824219 354.097656 411.824219 354.097656 C 411.824219 354.097656 401.113281 383.253906 401.113281 383.253906 C 401.113281 383.253906 400.945312 383.710938 400.945312 383.710938 C 400.945312 383.710938 400.453125 383.710938 400.453125 383.710938 C 400.453125 383.710938 377.875 383.710938 377.875 383.710938 C 377.875 383.710938 376.875 383.710938 376.875 383.710938 C 376.875 383.710938 377.21875 382.773438 377.21875 382.773438 Z M 418.933594 334.617188 C 418.933594 334.617188 420.070312 334.617188 420.070312 334.617188 C 423.714844 334.617188 426.804688 334.425781 429.332031 334.046875 C 431.820312 333.671875 433.765625 333.117188 435.148438 332.382812 C 436.503906 331.664062 437.613281 330.691406 438.460938 329.472656 C 439.328125 328.234375 439.941406 326.730469 440.304688 324.96875 C 440.605469 323.515625 440.613281 322.261719 440.324219 321.226562 C 440.050781 320.234375 439.496094 319.421875 438.664062 318.792969 C 438.664062 318.792969 438.664062 318.796875 438.664062 318.796875 C 437.773438 318.132812 436.539062 317.625 434.964844 317.285156 C 433.347656 316.933594 431.375 316.753906 429.050781 316.753906 C 429.050781 316.753906 425.476562 316.753906 425.476562 316.753906 C 425.476562 316.753906 418.933594 334.617188 418.933594 334.617188 "/>
<path fill-rule="evenodd" fill="#FF5E14" fill-opacity="1" d="M 610.460938 382.773438 C 610.460938 382.773438 624.214844 345.054688 624.214844 345.054688 C 624.214844 345.054688 610.09375 298.175781 610.09375 298.175781 C 610.09375 298.175781 609.824219 297.273438 609.824219 297.273438 C 609.824219 297.273438 610.769531 297.273438 610.769531 297.273438 C 610.769531 297.273438 636.078125 297.273438 636.078125 297.273438 C 636.078125 297.273438 636.644531 297.273438 636.644531 297.273438 C 636.644531 297.273438 636.765625 297.824219 636.765625 297.824219 C 636.765625 297.824219 641.550781 319.550781 641.550781 319.550781 C 641.550781 319.550781 641.546875 319.550781 641.546875 319.550781 C 641.695312 320.144531 641.832031 320.746094 641.953125 321.359375 C 641.953125 321.359375 641.953125 321.363281 641.953125 321.363281 C 642.070312 321.976562 642.195312 322.65625 642.3125 323.394531 C 642.425781 324.105469 642.535156 324.839844 642.636719 325.578125 C 642.636719 325.578125 642.691406 325.988281 642.691406 325.988281 C 642.691406 325.988281 643.566406 324.628906 643.566406 324.628906 C 644.234375 323.601562 644.835938 322.699219 645.347656 321.945312 C 645.347656 321.945312 645.347656 321.941406 645.347656 321.941406 C 645.8125 321.265625 646.222656 320.691406 646.570312 320.222656 C 646.941406 319.722656 647.269531 319.316406 647.539062 319.003906 C 647.539062 319.003906 647.550781 318.992188 647.550781 318.992188 C 647.550781 318.992188 667.078125 297.503906 667.078125 297.503906 C 667.078125 297.503906 667.289062 297.273438 667.289062 297.273438 C 667.289062 297.273438 667.597656 297.273438 667.597656 297.273438 C 667.597656 297.273438 693.78125 297.273438 693.78125 297.273438 C 693.78125 297.273438 695.441406 297.273438 695.441406 297.273438 C 695.441406 297.273438 694.28125 298.464844 694.28125 298.464844 C 694.28125 298.464844 648.324219 345.691406 648.324219 345.691406 C 648.324219 345.691406 634.652344 383.246094 634.652344 383.246094 C 634.652344 383.246094 634.484375 383.710938 634.484375 383.710938 C 634.484375 383.710938 633.992188 383.710938 633.992188 383.710938 C 633.992188 383.710938 611.117188 383.710938 611.117188 383.710938 C 611.117188 383.710938 610.117188 383.710938 610.117188 383.710938 C 610.117188 383.710938 610.460938 382.773438 610.460938 382.773438 "/>
<path fill-rule="evenodd" fill="#FF5E14" fill-opacity="1" d="M 500.953125 383.707031 L 500.949219 383.710938 C 500.910156 383.8125 500.90625 383.820312 500.90625 383.820312 M 500.949219 383.710938 L 500.960938 383.710938 M 449.726562 383.710938 C 449.726562 383.710938 499.460938 383.710938 499.460938 383.710938 L 500.949219 383.710938 L 500.953125 383.707031 L 500.957031 383.699219 L 500.960938 383.6875 L 500.960938 383.683594 L 500.976562 383.652344 L 500.976562 383.644531 L 500.984375 383.632812 L 500.988281 383.617188 L 500.988281 383.613281 L 501 383.59375 L 501 383.589844 L 501.007812 383.570312 L 501.011719 383.558594 L 501.019531 383.546875 L 501.027344 383.527344 L 501.027344 383.519531 L 501.039062 383.496094 L 501.039062 383.492188 L 501.050781 383.46875 L 501.054688 383.453125 L 501.0625 383.4375 L 501.074219 383.410156 L 501.074219 383.40625 L 501.085938 383.371094 L 501.089844 383.367188 L 501.101562 383.335938 L 501.109375 383.316406 L 501.117188 383.300781 L 501.128906 383.265625 L 501.132812 383.261719 L 501.148438 383.222656 L 501.152344 383.210938 L 501.175781 383.152344 L 501.183594 383.136719 L 501.199219 383.09375 L 501.199219 383.089844 L 501.21875 383.042969 L 501.226562 383.027344 L 501.242188 382.992188 L 501.253906 382.957031 L 501.261719 382.941406 L 501.285156 382.886719 L 501.304688 382.832031 L 501.316406 382.808594 L 501.328125 382.773438 L 501.347656 382.726562 L 501.355469 382.710938 L 501.378906 382.648438 L 501.382812 382.640625 L 501.40625 382.582031 L 501.417969 382.550781 L 501.433594 382.515625 L 501.457031 382.457031 L 501.460938 382.445312 L 501.492188 382.371094 L 501.496094 382.359375 L 501.519531 382.296875 L 501.539062 382.257812 L 501.550781 382.21875 L 501.582031 382.148438 L 501.585938 382.140625 L 501.617188 382.054688 L 501.625 382.035156 L 501.652344 381.96875 L 501.675781 381.917969 L 501.6875 381.882812 L 501.722656 381.792969 L 501.726562 381.789062 L 501.761719 381.695312 L 501.773438 381.667969 L 501.800781 381.601562 L 501.828125 381.53125 L 501.84375 381.5 L 501.882812 381.398438 L 501.886719 381.394531 L 501.925781 381.289062 L 501.941406 381.25 L 501.96875 381.179688 L 502.015625 381.070312 L 502.0625 380.953125 L 502.066406 380.945312 L 502.109375 380.835938 L 502.132812 380.78125 L 502.15625 380.714844 L 502.199219 380.613281 L 502.207031 380.589844 L 502.261719 380.460938 L 502.269531 380.441406 L 502.3125 380.332031 L 502.339844 380.261719 L 502.367188 380.195312 L 502.421875 380.058594 L 502.480469 379.914062 L 502.492188 379.882812 L 502.539062 379.769531 L 502.574219 379.683594 L 502.597656 379.621094 L 502.65625 379.480469 L 502.660156 379.46875 L 502.722656 379.3125 L 502.738281 379.269531 L 502.785156 379.152344 L 502.828125 379.046875 L 502.851562 378.988281 L 502.917969 378.824219 C 502.917969 378.824219 508.707031 362.914062 508.707031 362.914062 C 508.707031 362.914062 509.050781 361.972656 509.050781 361.972656 C 509.050781 361.972656 508.046875 361.972656 508.046875 361.972656 C 508.046875 361.972656 480.945312 361.972656 480.945312 361.972656 C 480.945312 361.972656 504.269531 298.214844 504.269531 298.214844 C 504.269531 298.214844 504.613281 297.273438 504.613281 297.273438 C 504.613281 297.273438 503.609375 297.273438 503.609375 297.273438 C 503.609375 297.273438 480.734375 297.273438 480.734375 297.273438 C 480.734375 297.273438 480.246094 297.273438 480.246094 297.273438 C 480.246094 297.273438 480.078125 297.734375 480.078125 297.734375 C 480.078125 297.734375 449.066406 382.773438 449.066406 382.773438 C 449.066406 382.773438 448.726562 383.710938 448.726562 383.710938 C 448.726562 383.710938 449.726562 383.710938 449.726562 383.710938 Z M 499.492188 383.667969 L 499.460938 383.710938 Z M 499.492188 383.667969 "/>
<path fill-rule="evenodd" fill="#FF5E14" fill-opacity="1" d="M 543.527344 367.761719 C 543.527344 367.761719 572.207031 367.761719 572.207031 367.761719 C 572.207031 367.761719 572.308594 383.117188 572.308594 383.117188 C 572.308594 383.117188 572.316406 383.820312 572.316406 383.820312 C 572.316406 383.820312 573.007812 383.820312 573.007812 383.820312 C 573.007812 383.820312 596.0625 383.820312 596.0625 383.820312 C 596.0625 383.820312 596.765625 383.820312 596.765625 383.820312 C 596.765625 383.820312 596.761719 383.113281 596.761719 383.113281 C 596.761719 383.113281 596.292969 298.078125 596.292969 298.078125 C 596.292969 298.078125 596.289062 297.378906 596.289062 297.378906 C 596.289062 297.378906 595.59375 297.378906 595.59375 297.378906 C 595.59375 297.378906 567.128906 297.378906 567.128906 297.378906 C 567.128906 297.378906 566.765625 297.378906 566.765625 297.378906 C 566.765625 297.378906 566.554688 297.679688 566.554688 297.679688 C 566.554688 297.679688 509.085938 378.929688 509.085938 378.929688 C 505.628906 383.820312 505.628906 383.820312 505.628906 383.820312 C 505.628906 383.820312 505.734375 383.820312 505.878906 383.820312 C 506.226562 383.820312 506.816406 383.820312 506.816406 383.820312 C 506.816406 383.820312 506.984375 383.820312 506.984375 383.820312 C 506.984375 383.820312 507.308594 383.820312 507.308594 383.820312 C 507.308594 383.820312 531.703125 383.820312 531.703125 383.820312 C 531.703125 383.820312 532.0625 383.820312 532.0625 383.820312 C 532.0625 383.820312 532.273438 383.523438 532.273438 383.523438 C 532.273438 383.523438 543.527344 367.761719 543.527344 367.761719 Z M 572.867188 347.449219 C 572.867188 347.449219 556.914062 347.449219 556.914062 347.449219 C 556.914062 347.449219 569.230469 329.074219 569.230469 329.074219 C 569.230469 329.074219 569.234375 329.070312 569.234375 329.070312 C 569.539062 328.59375 569.898438 328.023438 570.304688 327.363281 C 570.707031 326.707031 571.15625 325.964844 571.644531 325.140625 C 571.644531 325.140625 571.644531 325.136719 571.644531 325.136719 C 572.21875 324.160156 572.792969 323.175781 573.308594 322.273438 C 573.308594 322.273438 573.363281 322.183594 573.363281 322.183594 C 573.363281 322.183594 573.289062 322.933594 573.289062 322.933594 C 573.289062 322.933594 573.285156 322.941406 573.285156 322.941406 C 573.226562 323.691406 573.179688 324.535156 573.140625 325.453125 C 573.109375 326.324219 573.082031 327.269531 573.066406 328.277344 C 573.066406 328.277344 573.066406 328.285156 573.066406 328.285156 C 573.066406 328.285156 572.867188 347.449219 572.867188 347.449219 "/>
<path fill-rule="evenodd" fill="#FF5E14" fill-opacity="1" d="M 401.667969 184.300781 L 405.4375 179.617188 L 408.652344 175.269531 L 411.335938 171.257812 L 413.515625 167.570312 L 415.230469 164.203125 L 416.515625 161.140625 L 417.421875 158.371094 L 417.996094 155.867188 L 418.285156 153.582031 L 418.339844 151.449219 L 418.175781 149.410156 L 417.8125 147.390625 L 417.242188 145.335938 L 416.457031 143.199219 L 415.449219 140.960938 L 414.21875 138.613281 L 412.773438 136.132812 L 411.128906 133.519531 L 409.308594 130.769531 L 407.328125 127.871094 L 405.222656 124.808594 L 403.019531 121.578125 L 400.742188 118.15625 L 398.425781 114.539062 L 396.097656 110.699219 L 393.792969 106.628906 L 391.519531 102.257812 L 390.292969 99.605469 L 389.257812 96.90625 L 388.433594 94.21875 L 387.820312 91.542969 L 387.421875 88.894531 L 387.238281 86.277344 L 387.269531 83.703125 L 387.503906 81.195312 L 387.9375 78.761719 L 388.5625 76.40625 L 389.359375 74.160156 L 390.308594 72.03125 L 391.398438 70.015625 L 392.613281 68.121094 L 393.925781 66.355469 L 395.332031 64.707031 L 396.808594 63.183594 L 398.347656 61.773438 L 399.941406 60.476562 L 401.570312 59.289062 L 403.234375 58.199219 L 404.925781 57.214844 L 406.632812 56.328125 L 408.359375 55.53125 L 410.085938 54.835938 L 411.824219 54.226562 L 413.558594 53.703125 L 415.300781 53.277344 L 417.035156 52.941406 L 418.773438 52.703125 L 420.519531 52.5625 L 422.246094 52.53125 L 425.671875 52.695312 L 429.527344 53.046875 L 433.851562 53.574219 L 438.65625 54.273438 L 443.921875 55.148438 L 449.644531 56.1875 L 455.785156 57.390625 L 462.328125 58.757812 L 469.234375 60.285156 L 476.488281 61.96875 L 484.046875 63.808594 L 491.890625 65.796875 L 499.984375 67.933594 L 508.296875 70.222656 L 516.800781 72.648438 L 525.460938 75.21875 L 534.25 77.929688 L 543.132812 80.769531 L 552.082031 83.75 L 561.066406 86.855469 L 570.050781 90.089844 L 579.011719 93.453125 L 587.914062 96.9375 L 596.730469 100.542969 L 605.421875 104.273438 L 613.96875 108.113281 L 622.335938 112.078125 L 630.496094 116.152344 L 638.417969 120.347656 L 646.070312 124.65625 L 653.425781 129.082031 L 660.484375 133.648438 L 663.753906 135.972656 L 666.832031 138.410156 L 669.691406 140.949219 L 672.328125 143.574219 L 674.738281 146.289062 L 676.921875 149.085938 L 678.878906 151.953125 L 680.605469 154.898438 L 682.09375 157.898438 L 683.351562 160.949219 L 684.367188 164.042969 L 685.144531 167.164062 L 685.679688 170.300781 L 685.976562 173.4375 L 686.039062 176.5625 L 685.875 179.667969 L 685.476562 182.738281 L 684.863281 185.757812 L 684.035156 188.722656 L 682.996094 191.617188 L 681.765625 194.433594 L 680.339844 197.167969 L 678.730469 199.8125 L 676.949219 202.355469 L 674.996094 204.796875 L 672.882812 207.132812 L 670.609375 209.347656 L 668.1875 211.445312 L 665.621094 213.417969 L 662.917969 215.265625 L 660.078125 216.976562 L 657.160156 218.523438 L 651.546875 221.1875 L 645.648438 223.765625 L 639.4375 226.285156 L 632.933594 228.742188 L 626.160156 231.148438 L 619.136719 233.496094 L 611.875 235.789062 L 604.410156 238.023438 L 596.753906 240.207031 L 588.929688 242.324219 L 580.960938 244.390625 L 572.871094 246.390625 L 564.683594 248.332031 L 556.417969 250.210938 L 548.097656 252.023438 L 539.75 253.765625 L 531.390625 255.441406 L 523.050781 257.046875 L 514.746094 258.582031 L 506.503906 260.039062 L 498.34375 261.421875 L 490.292969 262.726562 L 482.371094 263.953125 L 474.609375 265.09375 L 467.019531 266.152344 L 459.628906 267.128906 L 452.457031 268.015625 L 445.53125 268.8125 L 438.871094 269.519531 L 432.5 270.128906 L 426.4375 270.644531 L 420.636719 271.070312 L 414.738281 271.339844 L 409.179688 271.339844 L 403.992188 271.074219 L 399.164062 270.554688 L 394.667969 269.78125 L 390.488281 268.75 L 386.605469 267.460938 L 383.027344 265.910156 L 379.746094 264.105469 L 376.773438 262.039062 L 374.125 259.734375 L 371.828125 257.222656 L 369.890625 254.546875 L 368.316406 251.757812 L 367.097656 248.910156 L 366.210938 246.050781 L 365.621094 243.230469 L 365.292969 240.460938 L 365.1875 237.773438 L 365.273438 235.183594 L 365.519531 232.699219 L 365.898438 230.332031 L 366.382812 228.085938 L 366.953125 225.964844 L 367.585938 223.980469 L 368.265625 222.132812 L 368.980469 220.425781 L 369.71875 218.863281 L 370.484375 217.421875 L 371.300781 216.0625 L 372.269531 214.6875 L 373.296875 213.527344 L 380.558594 206.632812 L 386.785156 200.484375 L 392.363281 194.726562 L 397.316406 189.332031 Z M 408.601562 150.628906 L 408.683594 151.699219 L 408.65625 152.859375 L 408.488281 154.175781 L 408.117188 155.792969 L 407.46875 157.773438 L 406.476562 160.140625 L 405.0625 162.921875 L 403.171875 166.117188 L 400.757812 169.722656 L 397.796875 173.726562 L 394.261719 178.121094 L 390.117188 182.921875 L 385.351562 188.101562 L 379.929688 193.703125 L 373.851562 199.707031 L 366.371094 206.8125 L 364.710938 208.671875 L 363.210938 210.792969 L 362.085938 212.671875 L 361.09375 214.535156 L 360.160156 216.511719 L 359.285156 218.605469 L 358.457031 220.859375 L 357.699219 223.253906 L 357.007812 225.8125 L 356.417969 228.554688 L 355.953125 231.464844 L 355.648438 234.539062 L 355.535156 237.792969 L 355.667969 241.21875 L 356.09375 244.785156 L 356.863281 248.476562 L 358.039062 252.25 L 359.660156 256.03125 L 361.75 259.761719 L 364.335938 263.328125 L 367.375 266.648438 L 370.839844 269.664062 L 374.664062 272.3125 L 378.78125 274.582031 L 383.167969 276.476562 L 387.800781 278.019531 L 392.699219 279.226562 L 397.820312 280.105469 L 403.226562 280.691406 L 408.929688 280.984375 L 414.964844 280.980469 L 421.210938 280.695312 L 427.191406 280.257812 L 433.371094 279.734375 L 439.839844 279.113281 L 446.585938 278.398438 L 453.597656 277.589844 L 460.851562 276.691406 L 468.304688 275.707031 L 475.972656 274.644531 L 483.808594 273.492188 L 491.800781 272.253906 L 499.917969 270.941406 L 508.152344 269.546875 L 516.460938 268.066406 L 524.832031 266.523438 L 533.246094 264.902344 L 541.683594 263.214844 L 550.109375 261.453125 L 558.511719 259.628906 L 566.863281 257.722656 L 575.136719 255.765625 L 583.328125 253.738281 L 591.398438 251.648438 L 599.335938 249.496094 L 607.113281 247.28125 L 614.710938 245.007812 L 622.113281 242.664062 L 629.304688 240.269531 L 636.253906 237.796875 L 642.953125 235.265625 L 649.390625 232.65625 L 655.546875 229.964844 L 661.488281 227.144531 L 664.832031 225.367188 L 668.121094 223.382812 L 671.285156 221.234375 L 674.292969 218.914062 L 677.140625 216.449219 L 679.832031 213.816406 L 682.335938 211.050781 L 684.664062 208.144531 L 686.800781 205.101562 L 688.75 201.910156 L 690.464844 198.601562 L 691.964844 195.1875 L 693.226562 191.644531 L 694.242188 188.023438 L 694.996094 184.324219 L 695.484375 180.546875 L 695.6875 176.71875 L 695.609375 172.882812 L 695.246094 169.03125 L 694.589844 165.179688 L 693.632812 161.359375 L 692.398438 157.605469 L 690.882812 153.917969 L 689.089844 150.308594 L 687.027344 146.796875 L 684.710938 143.394531 L 682.148438 140.113281 L 679.339844 136.953125 L 676.304688 133.921875 L 673.03125 131.015625 L 669.542969 128.257812 L 665.898438 125.667969 L 658.527344 120.898438 L 650.917969 116.316406 L 643.035156 111.882812 L 634.910156 107.578125 L 626.554688 103.402344 L 618.011719 99.359375 L 609.296875 95.445312 L 600.453125 91.652344 L 591.5 87.988281 L 582.460938 84.449219 L 573.378906 81.042969 L 564.269531 77.757812 L 555.179688 74.617188 L 546.121094 71.605469 L 537.136719 68.730469 L 528.25 65.988281 L 519.492188 63.390625 L 510.902344 60.941406 L 502.496094 58.625 L 494.304688 56.460938 L 486.371094 54.445312 L 478.714844 52.582031 L 471.363281 50.878906 L 464.351562 49.328125 L 457.699219 47.941406 L 451.429688 46.707031 L 445.570312 45.648438 L 440.140625 44.746094 L 435.136719 44.015625 L 430.550781 43.453125 L 426.339844 43.074219 L 422.394531 42.882812 L 420.046875 42.921875 L 417.722656 43.113281 L 415.453125 43.425781 L 413.242188 43.859375 L 411.023438 44.394531 L 408.835938 45.054688 L 406.691406 45.804688 L 404.523438 46.679688 L 402.378906 47.671875 L 400.277344 48.765625 L 398.175781 49.984375 L 396.09375 51.34375 L 394.039062 52.835938 L 392.03125 54.484375 L 390.082031 56.269531 L 388.207031 58.203125 L 386.382812 60.332031 L 384.667969 62.640625 L 383.082031 65.117188 L 381.652344 67.765625 L 380.394531 70.574219 L 379.335938 73.558594 L 378.515625 76.671875 L 377.933594 79.898438 L 377.628906 83.203125 L 377.589844 86.5625 L 377.832031 89.949219 L 378.335938 93.328125 L 379.109375 96.714844 L 380.140625 100.0625 L 381.40625 103.347656 L 382.851562 106.503906 L 385.316406 111.226562 L 387.777344 115.578125 L 390.238281 119.632812 L 392.660156 123.425781 L 395.023438 126.980469 L 397.273438 130.265625 L 399.367188 133.3125 L 401.300781 136.15625 L 403.027344 138.753906 L 404.523438 141.132812 L 405.777344 143.277344 L 406.769531 145.179688 L 407.523438 146.847656 L 408.054688 148.304688 L 408.40625 149.554688 Z M 408.601562 150.628906 "/>
<path fill-rule="evenodd" fill="#FF5E14" fill-opacity="1" d="M 400.492188 97.839844 C 417.65625 132.328125 444.066406 143.125 416.160156 181.9375 L 467.871094 182.613281 L 455.222656 203.96875 L 470.15625 204.160156 C 482.886719 204.328125 520.011719 203.980469 526.371094 202.402344 C 532.726562 200.824219 538.648438 198 544.132812 193.929688 C 546.546875 192.136719 548.957031 189.847656 551.363281 187.0625 L 572.5 177.933594 L 563.089844 169.414062 C 568.082031 159.671875 568.777344 152.800781 565.167969 148.808594 C 561.019531 144.21875 551.054688 141.820312 535.269531 141.613281 L 520.070312 141.414062 L 502.820312 170.53125 L 442.125 169.742188 L 474.816406 114.558594 L 565.109375 115.738281 C 582.910156 115.96875 596.449219 117.570312 605.734375 120.542969 C 615.011719 123.515625 621.664062 127.695312 625.683594 133.078125 C 629.707031 138.464844 631.246094 144.6875 630.308594 151.75 C 629.367188 158.808594 626.570312 166.269531 621.914062 174.128906 C 614.625 186.4375 606.574219 195.957031 597.769531 202.679688 C 588.964844 209.398438 578.957031 214.996094 567.742188 219.46875 C 556.527344 223.945312 545.597656 226.875 534.949219 228.269531 C 520.378906 230.191406 480.105469 230.71875 469.28125 230.578125 L 376.371094 229.367188 C 372.8125 242.289062 374.644531 264.082031 420.039062 261.070312 C 477.914062 257.230469 598.488281 236.4375 652.667969 209.570312 C 679.785156 196.121094 686.785156 163.355469 654.867188 141.90625 C 584.945312 94.921875 449.566406 62.988281 422.089844 62.515625 C 410.777344 62.316406 388.96875 74.683594 400.492188 97.839844 "/>
<path fill-rule="nonzero" fill="#FF5E14" fill-opacity="1" d="M 407.738281 478.757812 L 400.058594 449.9375 L 394.574219 449.9375 L 394.574219 478.757812 L 384.003906 478.757812 L 384.003906 408.953125 L 400.558594 408.953125 C 405.644531 408.953125 409.632812 410.449219 412.625 413.441406 C 415.617188 416.53125 417.113281 420.519531 417.113281 425.605469 L 417.113281 433.285156 C 417.113281 436.476562 416.515625 439.269531 415.21875 441.761719 C 413.921875 444.253906 412.125 446.148438 409.832031 447.546875 L 418.707031 478.757812 Z M 394.574219 439.96875 L 400.058594 439.96875 C 402.15625 439.96875 403.75 439.367188 404.847656 438.273438 C 405.945312 437.175781 406.542969 435.578125 406.542969 433.484375 L 406.542969 425.40625 C 406.542969 423.3125 405.945312 421.71875 404.847656 420.621094 C 403.75 419.523438 402.15625 418.925781 400.058594 418.925781 L 394.574219 418.925781 Z M 443.441406 479.757812 C 438.554688 479.757812 434.664062 478.261719 431.574219 475.167969 C 428.480469 472.175781 426.984375 468.289062 426.984375 463.402344 L 426.984375 408.953125 L 437.554688 408.953125 L 437.554688 463.402344 C 437.554688 465.394531 438.15625 466.992188 439.25 468.089844 C 440.347656 469.1875 441.746094 469.785156 443.441406 469.785156 C 445.136719 469.785156 446.632812 469.1875 447.726562 468.089844 C 448.824219 466.992188 449.324219 465.394531 449.324219 463.402344 L 449.324219 408.953125 L 459.695312 408.953125 L 459.695312 463.402344 C 459.695312 468.289062 458.199219 472.175781 455.207031 475.167969 C 452.214844 478.261719 448.328125 479.757812 443.441406 479.757812 M 470.863281 408.953125 L 482.53125 408.953125 L 495.996094 455.824219 L 495.996094 408.953125 L 506.367188 408.953125 L 506.367188 478.757812 L 495.195312 478.757812 L 481.234375 434.082031 L 481.234375 478.757812 L 470.863281 478.757812 Z M 517.933594 408.953125 L 529.601562 408.953125 L 543.0625 455.824219 L 543.0625 408.953125 L 553.433594 408.953125 L 553.433594 478.757812 L 542.265625 478.757812 L 528.304688 434.082031 L 528.304688 478.757812 L 517.933594 478.757812 Z M 565.003906 408.953125 L 575.574219 408.953125 L 575.574219 478.757812 L 565.003906 478.757812 Z M 587.140625 408.953125 L 598.808594 408.953125 L 612.273438 455.824219 L 612.273438 408.953125 L 622.644531 408.953125 L 622.644531 478.757812 L 611.476562 478.757812 L 597.511719 434.082031 L 597.511719 478.757812 L 587.140625 478.757812 Z M 656.648438 430.691406 L 656.648438 424.808594 C 656.648438 422.613281 656.050781 420.917969 654.953125 419.722656 C 653.855469 418.527344 652.261719 417.925781 650.265625 417.925781 C 648.273438 417.925781 646.675781 418.527344 645.582031 419.722656 C 644.484375 420.917969 643.886719 422.613281 643.886719 424.808594 L 643.886719 462.902344 C 643.886719 465.097656 644.484375 466.792969 645.582031 467.988281 C 646.675781 469.1875 648.273438 469.785156 650.265625 469.785156 C 652.261719 469.785156 653.855469 469.1875 654.953125 467.988281 C 656.050781 466.792969 656.648438 465.097656 656.648438 462.902344 L 656.648438 450.539062 L 650.265625 450.539062 L 650.265625 440.566406 L 667.21875 440.566406 L 667.21875 462.902344 C 667.21875 467.988281 665.625 471.976562 662.53125 475.070312 C 659.441406 478.160156 655.351562 479.757812 650.265625 479.757812 C 645.179688 479.757812 641.09375 478.160156 638 475.070312 C 634.910156 471.976562 633.3125 467.988281 633.3125 462.902344 L 633.3125 424.808594 C 633.3125 419.722656 634.910156 415.632812 638 412.542969 C 641.09375 409.453125 645.179688 407.957031 650.265625 407.957031 C 655.351562 407.957031 659.441406 409.453125 662.53125 412.542969 C 665.625 415.632812 667.21875 419.722656 667.21875 424.808594 L 667.21875 430.691406 Z M 656.648438 430.691406 "/>
</svg>
